<?xml version="1.0" encoding="UTF-8"?>
<svg version="1.1" xmlns="http://www.w3.org/2000/svg" width="64" height="64">
<path d="M0 0 C2.64 0 5.28 0 8 0 C8.66 1.32 9.32 2.64 10 4 C11.98 4 13.96 4 16 4 C16 5.32 16 6.64 16 8 C17.8253125 7.9071875 17.8253125 7.9071875 19.6875 7.8125 C22.27870663 7.68074373 24.11466204 8.03552696 26.60498047 8.80712891 C29.49608087 11.45420982 29.39632146 12.19324682 29.59936523 15.99047852 C29.61212421 18.11995957 29.59661499 20.24972642 29.55859375 22.37890625 C29.55509666 24.0634214 29.55509666 24.0634214 29.55152893 25.78196716 C29.54178131 28.15672395 29.51997127 30.53145712 29.48706055 32.90600586 C29.4376475 36.55161742 29.42558133 40.19588072 29.41992188 43.84179688 C29.40583683 46.14584777 29.38963278 48.44988689 29.37109375 50.75390625 C29.36573105 51.84973526 29.36036835 52.94556427 29.35484314 54.07460022 C29.33086205 55.59143654 29.33086205 55.59143654 29.30639648 57.13891602 C29.29043678 58.47769554 29.29043678 58.47769554 29.27415466 59.84352112 C29 62 29 62 27 64 C25.02661133 64.25396729 25.02661133 64.25396729 22.58203125 64.25878906 C21.21050903 64.26824554 21.21050903 64.26824554 19.8112793 64.27789307 C18.82168213 64.2738446 17.83208496 64.26979614 16.8125 64.265625 C15.79905518 64.26753845 14.78561035 64.2694519 13.74145508 64.27142334 C11.59618888 64.27278591 9.45091447 64.26908447 7.30566406 64.26074219 C4.01348428 64.25004382 0.72185022 64.26063519 -2.5703125 64.2734375 C-4.65104288 64.27211592 -6.73177291 64.26955355 -8.8125 64.265625 C-9.80209717 64.26967346 -10.79169434 64.27372192 -11.8112793 64.27789307 C-13.18280151 64.26843658 -13.18280151 64.26843658 -14.58203125 64.25878906 C-15.38874268 64.25719788 -16.1954541 64.25560669 -17.02661133 64.25396729 C-19 64 -19 64 -21 62 C-21.27415466 59.84352112 -21.27415466 59.84352112 -21.30639648 57.13891602 C-21.32238388 56.1276918 -21.33837128 55.11646759 -21.35484314 54.07460022 C-21.36020584 52.97877121 -21.36556854 51.8829422 -21.37109375 50.75390625 C-21.38012222 49.63185287 -21.3891507 48.5097995 -21.39845276 47.35374451 C-21.41298028 44.977312 -21.42184818 42.60083928 -21.42553711 40.22436523 C-21.43744108 36.58053555 -21.48661165 32.93839422 -21.53710938 29.29492188 C-21.54657202 26.98959163 -21.55380781 24.68425095 -21.55859375 22.37890625 C-21.57812607 21.28510147 -21.59765839 20.19129669 -21.61778259 19.06434631 C-21.60112898 16.28484909 -21.55132999 13.72422207 -21 11 C-18.45586712 8.67060127 -17.11573998 8.14603926 -13.76171875 7.70703125 C-11.84114583 7.8046875 -9.92057292 7.90234375 -8 8 C-8 6.68 -8 5.36 -8 4 C-6.02 4 -4.04 4 -2 4 C-1.34 2.68 -0.68 1.36 0 0 Z " fill="#D1DFF2" transform="translate(28,0)"/>
<path d="M0 0 C2.64 0 5.28 0 8 0 C8.66 1.32 9.32 2.64 10 4 C11.98 4 13.96 4 16 4 C16 7.63 16 11.26 16 15 C8.08 15 0.16 15 -8 15 C-8 11.37 -8 7.74 -8 4 C-6.02 4 -4.04 4 -2 4 C-1.34 2.68 -0.68 1.36 0 0 Z " fill="#06CEB5" transform="translate(28,0)"/>
<path d="M0 0 C6.93 0 13.86 0 21 0 C21 0.99 21 1.98 21 3 C14.07 3 7.14 3 0 3 C0 2.01 0 1.02 0 0 Z " fill="#17456E" transform="translate(29,51)"/>
<path d="M0 0 C6.93 0 13.86 0 21 0 C21 0.99 21 1.98 21 3 C14.07 3 7.14 3 0 3 C0 2.01 0 1.02 0 0 Z " fill="#0A3A65" transform="translate(29,38)"/>
<path d="M0 0 C6.93 0 13.86 0 21 0 C21 0.99 21 1.98 21 3 C14.07 3 7.14 3 0 3 C0 2.01 0 1.02 0 0 Z " fill="#0F3D67" transform="translate(29,25)"/>
<path d="M0 0 C0.99 0 1.98 0 3 0 C2.52753358 4.25219775 0.22727623 6.37314725 -3 9 C-6.06731977 8.91236229 -6.81352381 8.18647619 -9 6 C-9 5.01 -9 4.02 -9 3 C-8.2575 3.2475 -7.515 3.495 -6.75 3.75 C-5.8425 3.8325 -4.935 3.915 -4 4 C-1.85410577 2.10413616 -1.85410577 2.10413616 0 0 Z " fill="#16BF73" transform="translate(23,34)"/>
<path d="M0 0 C-0.17625835 2.37948772 -0.69719773 3.70225849 -2.40234375 5.37890625 C-3.90649092 6.62115486 -5.45129851 7.81376056 -7 9 C-9.5 7.1875 -9.5 7.1875 -12 5 C-12 4.01 -12 3.02 -12 2 C-9.525 2.99 -9.525 2.99 -7 4 C-6.401875 3.34 -5.80375 2.68 -5.1875 2 C-3 0 -3 0 0 0 Z " fill="#12BE70" transform="translate(26,47)"/>
<path d="M0 0 C-0.47246642 4.25219775 -2.77272377 6.37314725 -6 9 C-9.06731977 8.91236229 -9.81352381 8.18647619 -12 6 C-12 5.01 -12 4.02 -12 3 C-10.9171875 3.37125 -10.9171875 3.37125 -9.8125 3.75 C-6.83172517 4.32409662 -6.83172517 4.32409662 -4.3125 2.0625 C-2 0 -2 0 0 0 Z " fill="#0FBD6E" transform="translate(26,21)"/>
</svg>
