<?xml version="1.0" encoding="UTF-8"?>
<svg version="1.1" xmlns="http://www.w3.org/2000/svg" width="64" height="64">
<path d="M0 0 C2.4497579 0.39795645 3.24093142 1.47051866 4.8515625 3.30078125 C7.95995271 4.02770385 7.95995271 4.02770385 10.8515625 4.30078125 C10.8515625 5.62078125 10.8515625 6.94078125 10.8515625 8.30078125 C11.45484375 8.24277344 12.058125 8.18476563 12.6796875 8.125 C13.87851563 8.05732422 13.87851563 8.05732422 15.1015625 7.98828125 C15.89046875 7.93027344 16.679375 7.87226562 17.4921875 7.8125 C19.8515625 8.30078125 19.8515625 8.30078125 21.96801758 10.16699219 C24.70338863 14.71802561 24.40686058 18.7137883 24.34765625 23.9296875 C24.34911148 24.95634018 24.35056671 25.98299286 24.35206604 27.04075623 C24.35040895 29.20680587 24.33886898 31.37286751 24.31811523 33.53881836 C24.28913345 36.85516288 24.29751625 40.16991113 24.31054688 43.48632812 C24.30431007 45.59245569 24.29591959 47.69857821 24.28515625 49.8046875 C24.28809189 50.79642471 24.29102753 51.78816193 24.29405212 52.80995178 C24.27502586 54.19675392 24.27502586 54.19675392 24.25561523 55.61157227 C24.25021225 56.42255875 24.24480927 57.23354523 24.23924255 58.06910706 C23.74467955 60.91605131 22.90138404 62.27161013 20.8515625 64.30078125 C18.76464844 64.80871582 18.76464844 64.80871582 16.3359375 64.81835938 C15.42489258 64.83096802 14.51384766 64.84357666 13.57519531 64.85656738 C12.59389648 64.84847046 11.61259766 64.84037354 10.6015625 64.83203125 C9.5919043 64.83585815 8.58224609 64.83968506 7.54199219 64.84362793 C5.4068909 64.84635043 3.27175646 64.83896568 1.13671875 64.82226562 C-2.13617126 64.80086147 -5.40686597 64.82205656 -8.6796875 64.84765625 C-10.75260902 64.84501303 -12.82552918 64.83988819 -14.8984375 64.83203125 C-15.87973633 64.84012817 -16.86103516 64.8482251 -17.87207031 64.85656738 C-19.2386377 64.83765442 -19.2386377 64.83765442 -20.6328125 64.81835938 C-21.43428711 64.815177 -22.23576172 64.81199463 -23.06152344 64.80871582 C-25.1484375 64.30078125 -25.1484375 64.30078125 -26.90541077 62.56150818 C-28.30861934 60.00945412 -28.53320351 58.50650398 -28.55249023 55.61157227 C-28.56517441 54.68703751 -28.57785858 53.76250275 -28.59092712 52.80995178 C-28.58799149 51.81821457 -28.58505585 50.82647736 -28.58203125 49.8046875 C-28.5872731 48.77899155 -28.59251495 47.75329559 -28.59791565 46.69651794 C-28.60433506 44.52872624 -28.60299992 42.36089971 -28.59448242 40.19311523 C-28.58597723 36.87876234 -28.61472849 33.56613555 -28.64648438 30.25195312 C-28.64809662 28.14453177 -28.64751842 26.03710736 -28.64453125 23.9296875 C-28.65576523 22.93997452 -28.66699921 21.95026154 -28.67857361 20.93055725 C-28.63418455 16.54090145 -28.56419485 13.99250664 -26.26489258 10.16699219 C-24.1484375 8.30078125 -24.1484375 8.30078125 -21.7890625 7.8125 C-20.60570312 7.89951172 -20.60570312 7.89951172 -19.3984375 7.98828125 C-18.59921875 8.03339844 -17.8 8.07851562 -16.9765625 8.125 C-16.37328125 8.18300781 -15.77 8.24101562 -15.1484375 8.30078125 C-15.1484375 6.98078125 -15.1484375 5.66078125 -15.1484375 4.30078125 C-13.75625 4.14609375 -13.75625 4.14609375 -12.3359375 3.98828125 C-9.16837224 3.63563093 -9.16837224 3.63563093 -7.7734375 1.73828125 C-5.35586143 -0.40034373 -3.13550636 -0.10831749 0 0 Z " fill="#CEDCEF" transform="translate(34.1484375,-0.30078125)"/>
<path d="M0 0 C2.4497579 0.39795645 3.24093142 1.47051866 4.8515625 3.30078125 C7.95995271 4.02770385 7.95995271 4.02770385 10.8515625 4.30078125 C10.8515625 5.62078125 10.8515625 6.94078125 10.8515625 8.30078125 C11.45484375 8.24277344 12.058125 8.18476563 12.6796875 8.125 C13.87851563 8.05732422 13.87851563 8.05732422 15.1015625 7.98828125 C15.89046875 7.93027344 16.679375 7.87226562 17.4921875 7.8125 C19.8515625 8.30078125 19.8515625 8.30078125 21.96801758 10.16699219 C24.70338863 14.71802561 24.40686058 18.7137883 24.34765625 23.9296875 C24.34911148 24.95634018 24.35056671 25.98299286 24.35206604 27.04075623 C24.35040895 29.20680587 24.33886898 31.37286751 24.31811523 33.53881836 C24.28913345 36.85516288 24.29751625 40.16991113 24.31054688 43.48632812 C24.30431007 45.59245569 24.29591959 47.69857821 24.28515625 49.8046875 C24.28809189 50.79642471 24.29102753 51.78816193 24.29405212 52.80995178 C24.27502586 54.19675392 24.27502586 54.19675392 24.25561523 55.61157227 C24.25021225 56.42255875 24.24480927 57.23354523 24.23924255 58.06910706 C23.74467955 60.91605131 22.90138404 62.27161013 20.8515625 64.30078125 C18.76464844 64.80871582 18.76464844 64.80871582 16.3359375 64.81835938 C15.42489258 64.83096802 14.51384766 64.84357666 13.57519531 64.85656738 C12.59389648 64.84847046 11.61259766 64.84037354 10.6015625 64.83203125 C9.5919043 64.83585815 8.58224609 64.83968506 7.54199219 64.84362793 C5.4068909 64.84635043 3.27175646 64.83896568 1.13671875 64.82226562 C-2.13617126 64.80086147 -5.40686597 64.82205656 -8.6796875 64.84765625 C-10.75260902 64.84501303 -12.82552918 64.83988819 -14.8984375 64.83203125 C-15.87973633 64.84012817 -16.86103516 64.8482251 -17.87207031 64.85656738 C-19.2386377 64.83765442 -19.2386377 64.83765442 -20.6328125 64.81835938 C-21.43428711 64.815177 -22.23576172 64.81199463 -23.06152344 64.80871582 C-25.1484375 64.30078125 -25.1484375 64.30078125 -26.90541077 62.56150818 C-28.30861934 60.00945412 -28.53320351 58.50650398 -28.55249023 55.61157227 C-28.56517441 54.68703751 -28.57785858 53.76250275 -28.59092712 52.80995178 C-28.58799149 51.81821457 -28.58505585 50.82647736 -28.58203125 49.8046875 C-28.5872731 48.77899155 -28.59251495 47.75329559 -28.59791565 46.69651794 C-28.60433506 44.52872624 -28.60299992 42.36089971 -28.59448242 40.19311523 C-28.58597723 36.87876234 -28.61472849 33.56613555 -28.64648438 30.25195312 C-28.64809662 28.14453177 -28.64751842 26.03710736 -28.64453125 23.9296875 C-28.65576523 22.93997452 -28.66699921 21.95026154 -28.67857361 20.93055725 C-28.63418455 16.54090145 -28.56419485 13.99250664 -26.26489258 10.16699219 C-24.1484375 8.30078125 -24.1484375 8.30078125 -21.7890625 7.8125 C-20.60570312 7.89951172 -20.60570312 7.89951172 -19.3984375 7.98828125 C-18.59921875 8.03339844 -17.8 8.07851562 -16.9765625 8.125 C-16.37328125 8.18300781 -15.77 8.24101562 -15.1484375 8.30078125 C-15.1484375 6.98078125 -15.1484375 5.66078125 -15.1484375 4.30078125 C-13.75625 4.14609375 -13.75625 4.14609375 -12.3359375 3.98828125 C-9.16837224 3.63563093 -9.16837224 3.63563093 -7.7734375 1.73828125 C-5.35586143 -0.40034373 -3.13550636 -0.10831749 0 0 Z M-24.1484375 13.30078125 C-24.44707999 15.39482641 -24.44707999 15.39482641 -24.39135742 17.82641602 C-24.39443405 18.7640126 -24.39751068 19.70160919 -24.40068054 20.6676178 C-24.39349503 21.6822258 -24.38630951 22.6968338 -24.37890625 23.7421875 C-24.37844803 24.78020004 -24.37798981 25.81821259 -24.3775177 26.88768005 C-24.37449333 29.08422996 -24.36660155 31.28077768 -24.35424805 33.47729492 C-24.3359943 36.85277847 -24.33373829 40.22798789 -24.33398438 43.60351562 C-24.32906927 45.73307531 -24.32324099 47.86263312 -24.31640625 49.9921875 C-24.31529343 51.00881973 -24.3141806 52.02545197 -24.31303406 53.07289124 C-24.30665421 54.00733566 -24.30027435 54.94178009 -24.29370117 55.90454102 C-24.28988937 56.73123795 -24.28607758 57.55793488 -24.28215027 58.40968323 C-24.35523779 60.31247208 -24.35523779 60.31247208 -23.1484375 61.30078125 C-20.05762285 61.40195045 -16.98961195 61.44046683 -13.8984375 61.43359375 C-12.96999023 61.43455048 -12.04154297 61.4355072 -11.08496094 61.43649292 C-9.11783785 61.4371748 -7.15071254 61.43531997 -5.18359375 61.43115234 C-2.16140724 61.4258042 0.86063065 61.43109707 3.8828125 61.4375 C5.78906283 61.43683922 7.69531307 61.43555806 9.6015625 61.43359375 C10.96716309 61.4366301 10.96716309 61.4366301 12.36035156 61.43972778 C16.42819928 61.83969457 16.42819928 61.83969457 19.8515625 60.30078125 C19.954975 58.83821948 19.99006571 57.37073861 19.99682617 55.90454102 C20.00320602 54.97009659 20.00958588 54.03565216 20.01615906 53.07289124 C20.01727188 52.056259 20.0183847 51.03962677 20.01953125 49.9921875 C20.02285965 48.95513168 20.02618805 47.91807587 20.02961731 46.84959412 C20.0346911 44.65128016 20.0370255 42.45295848 20.03686523 40.25463867 C20.03905088 36.88121924 20.05719964 33.50812708 20.07617188 30.13476562 C20.0791058 28.00390737 20.0810906 25.87304756 20.08203125 23.7421875 C20.08921677 22.7275795 20.09640228 21.7129715 20.10380554 20.6676178 C20.0991906 19.26122292 20.0991906 19.26122292 20.09448242 17.82641602 C20.09590744 16.99892349 20.09733246 16.17143097 20.09880066 15.31886292 C20.03385001 13.07248645 20.03385001 13.07248645 17.8515625 11.30078125 C14.26812274 11.13400843 14.26812274 11.13400843 10.8515625 11.30078125 C10.5215625 12.95078125 10.1915625 14.60078125 9.8515625 16.30078125 C1.9315625 16.30078125 -5.9884375 16.30078125 -14.1484375 16.30078125 C-14.4784375 14.65078125 -14.8084375 13.00078125 -15.1484375 11.30078125 C-20.1690204 10.79786744 -20.1690204 10.79786744 -24.1484375 13.30078125 Z " fill="#0B3C66" transform="translate(34.1484375,-0.30078125)"/>
<path d="M0 0 C2.375 0.3125 2.375 0.3125 5 1 C5.66 1.99 6.32 2.98 7 4 C9.56282742 4.72965366 9.56282742 4.72965366 12 5 C12 6.98 12 8.96 12 11 C5.4 11 -1.2 11 -8 11 C-8 9.02 -8 7.04 -8 5 C-6.8553125 4.87625 -6.8553125 4.87625 -5.6875 4.75 C-2.47626739 3.85384206 -1.70625501 2.78388975 0 0 Z " fill="#00C6B0" transform="translate(30,3)"/>
<path d="M0 0 C6.6 0 13.2 0 20 0 C20 0.99 20 1.98 20 3 C13.73 3 7.46 3 1 3 C0.67 2.01 0.34 1.02 0 0 Z " fill="#234F76" transform="translate(29,50)"/>
<path d="M0 0 C6.27 0 12.54 0 19 0 C19 0.99 19 1.98 19 3 C12.4 3 5.8 3 -1 3 C-0.67 2.01 -0.34 1.02 0 0 Z " fill="#1F4B73" transform="translate(30,37)"/>
<path d="M0 0 C6.27 0 12.54 0 19 0 C19 0.99 19 1.98 19 3 C12.4 3 5.8 3 -1 3 C-0.67 2.01 -0.34 1.02 0 0 Z " fill="#12406A" transform="translate(30,25)"/>
<path d="M0 0 C0.99 0 1.98 0 3 0 C2.46104623 3.7726764 1.00464642 5.68212991 -2 8 C-5.01811422 7.82246387 -5.83735215 7.16264785 -8 5 C-8 4.01 -8 3.02 -8 2 C-6.8553125 2.3403125 -6.8553125 2.3403125 -5.6875 2.6875 C-4.800625 2.790625 -3.91375 2.89375 -3 3 C-1.35405861 1.60411246 -1.35405861 1.60411246 0 0 Z " fill="#1C4971" transform="translate(23,34)"/>
<path d="M0 0 C0.99 0 1.98 0 3 0 C2.65120368 3.25543229 1.97866739 4.01873107 -0.5625 6.25 C-1.366875 6.8275 -2.17125 7.405 -3 8 C-4.9375 7.25 -4.9375 7.25 -7 6 C-7.75 3.875 -7.75 3.875 -8 2 C-6.8553125 2.3403125 -6.8553125 2.3403125 -5.6875 2.6875 C-4.800625 2.790625 -3.91375 2.89375 -3 3 C-1.35405861 1.60411246 -1.35405861 1.60411246 0 0 Z " fill="#16446D" transform="translate(23,22)"/>
<path d="M0 0 C0.66 0 1.32 0 2 0 C1.46104623 3.7726764 0.00464642 5.68212991 -3 8 C-6.01811422 7.82246387 -6.83735215 7.16264785 -9 5 C-9 4.01 -9 3.02 -9 2 C-7.6078125 2.3403125 -7.6078125 2.3403125 -6.1875 2.6875 C-5.135625 2.790625 -4.08375 2.89375 -3 3 C-1.22809091 1.64555699 -1.22809091 1.64555699 0 0 Z " fill="#15436C" transform="translate(24,46)"/>
</svg>
