<?xml version="1.0" encoding="UTF-8"?>
<svg version="1.1" xmlns="http://www.w3.org/2000/svg" width="64" height="64">
<path d="M0 0 C0.68050415 -0.00095673 1.3610083 -0.00191345 2.06213379 -0.00289917 C3.50122164 -0.00357981 4.94031257 -0.00173357 6.37939453 0.00244141 C8.58503093 0.00779135 10.7904637 0.00249259 12.99609375 -0.00390625 C14.39322962 -0.00324545 15.79036536 -0.00196424 17.1875 0 C19.10079102 0.00169189 19.10079102 0.00169189 21.05273438 0.00341797 C24.09375 0.1328125 24.09375 0.1328125 26.09375 1.1328125 C26.09375 17.6328125 26.09375 34.1328125 26.09375 51.1328125 C21.47375 51.4628125 16.85375 51.7928125 12.09375 52.1328125 C10.07007462 54.15648788 10.65582767 58.13913853 10.47265625 60.8828125 C10.28509766 61.9965625 10.28509766 61.9965625 10.09375 63.1328125 C7.77534016 64.29201742 6.43935869 64.25954538 3.859375 64.26220703 C2.98506836 64.26535919 2.11076172 64.26851135 1.20996094 64.27175903 C0.26411133 64.2697348 -0.68173828 64.26771057 -1.65625 64.265625 C-3.1098291 64.26706009 -3.1098291 64.26706009 -4.59277344 64.26852417 C-6.64388087 64.2692054 -8.69499045 64.26735511 -10.74609375 64.26318359 C-13.89327823 64.25783455 -17.04031998 64.26313054 -20.1875 64.26953125 C-22.17708365 64.26887046 -24.16666721 64.26758927 -26.15625 64.265625 C-27.10209961 64.26764923 -28.04794922 64.26967346 -29.02246094 64.27175903 C-29.89676758 64.26860687 -30.77107422 64.26545471 -31.671875 64.26220703 C-32.82864746 64.26101364 -32.82864746 64.26101364 -34.00878906 64.25979614 C-35.90625 64.1328125 -35.90625 64.1328125 -37.90625 63.1328125 C-38.02269156 60.04979834 -38.09357432 56.96735127 -38.15625 53.8828125 C-38.18976562 53.01011719 -38.22328125 52.13742188 -38.2578125 51.23828125 C-38.35629879 44.78742893 -38.35629879 44.78742893 -36.1875 41.6328125 C-33.84967858 40.09561486 -31.83605199 39.17098956 -29.15625 38.3828125 C-28.35703125 38.14046875 -27.5578125 37.898125 -26.734375 37.6484375 C-26.13109375 37.47828125 -25.5278125 37.308125 -24.90625 37.1328125 C-25.56625 34.4928125 -26.22625 31.8528125 -26.90625 29.1328125 C-28.22625 28.8028125 -29.54625 28.4728125 -30.90625 28.1328125 C-31.23625 27.8028125 -31.56625 27.4728125 -31.90625 27.1328125 C-31.63085254 24.79193408 -31.2875574 22.45878761 -30.90625 20.1328125 C-30.74125 19.1221875 -30.57625 18.1115625 -30.40625 17.0703125 C-30.24125 16.1009375 -30.07625 15.1315625 -29.90625 14.1328125 C-29.7825 13.0809375 -29.65875 12.0290625 -29.53125 10.9453125 C-28.83299215 7.80315218 -28.47608801 6.98611287 -25.90625 5.1328125 C-22.91015625 4.76953125 -22.91015625 4.76953125 -19.46875 4.8203125 C-18.33566406 4.82417969 -17.20257812 4.82804688 -16.03515625 4.83203125 C-13.09050455 5.11510014 -11.39301927 5.59920295 -8.90625 7.1328125 C-8.90625 5.1528125 -8.90625 3.1728125 -8.90625 1.1328125 C-5.9519943 -0.34431535 -3.29364796 0.00291252 0 0 Z " fill="#0F0F10" transform="translate(37.90625,-0.1328125)"/>
<path d="M0 0 C0.68050415 -0.00095673 1.3610083 -0.00191345 2.06213379 -0.00289917 C3.50122164 -0.00357981 4.94031257 -0.00173357 6.37939453 0.00244141 C8.58503093 0.00779135 10.7904637 0.00249259 12.99609375 -0.00390625 C14.39322962 -0.00324545 15.79036536 -0.00196424 17.1875 0 C19.10079102 0.00169189 19.10079102 0.00169189 21.05273438 0.00341797 C24.09375 0.1328125 24.09375 0.1328125 26.09375 1.1328125 C26.09375 17.6328125 26.09375 34.1328125 26.09375 51.1328125 C22.46375 51.1328125 18.83375 51.1328125 15.09375 51.1328125 C15.09375 50.8028125 15.09375 50.4728125 15.09375 50.1328125 C18.06375 50.1328125 21.03375 50.1328125 24.09375 50.1328125 C24.09375 34.6228125 24.09375 19.1128125 24.09375 3.1328125 C13.86375 3.1328125 3.63375 3.1328125 -6.90625 3.1328125 C-6.57625 5.4428125 -6.24625 7.7528125 -5.90625 10.1328125 C-7.22625 9.8028125 -8.54625 9.4728125 -9.90625 9.1328125 C-9.41701981 14.17755974 -9.41701981 14.17755974 -7.28125 18.6953125 C-5.48171828 21.88539146 -6.01954318 23.66659495 -6.90625 27.1328125 C-5.25625 26.8028125 -3.60625 26.4728125 -1.90625 26.1328125 C-1.90625 26.7928125 -1.90625 27.4528125 -1.90625 28.1328125 C-3.22625 28.4628125 -4.54625 28.7928125 -5.90625 29.1328125 C-6.23625 32.4328125 -6.56625 35.7328125 -6.90625 39.1328125 C-5.58625 39.7928125 -4.26625 40.4528125 -2.90625 41.1328125 C-5.87625 41.6278125 -5.87625 41.6278125 -8.90625 42.1328125 C-8.90625 44.1128125 -8.90625 46.0928125 -8.90625 48.1328125 C-10.22625 47.8028125 -11.54625 47.4728125 -12.90625 47.1328125 C-13.23625 48.7828125 -13.56625 50.4328125 -13.90625 52.1328125 C-14.23625 51.1428125 -14.56625 50.1528125 -14.90625 49.1328125 C-16.22625 49.1328125 -17.54625 49.1328125 -18.90625 49.1328125 C-18.90625 48.1428125 -18.90625 47.1528125 -18.90625 46.1328125 C-17.58625 46.1328125 -16.26625 46.1328125 -14.90625 46.1328125 C-14.90625 45.1428125 -14.90625 44.1528125 -14.90625 43.1328125 C-13.25625 43.7928125 -11.60625 44.4528125 -9.90625 45.1328125 C-9.90625 42.8228125 -9.90625 40.5128125 -9.90625 38.1328125 C-11.55625 39.4528125 -13.20625 40.7728125 -14.90625 42.1328125 C-17.8781885 41.00829523 -20.24065687 39.90987459 -22.90625 38.1328125 C-23.23625 41.4328125 -23.56625 44.7328125 -23.90625 48.1328125 C-25.55625 48.1328125 -27.20625 48.1328125 -28.90625 48.1328125 C-28.57625 46.4828125 -28.24625 44.8328125 -27.90625 43.1328125 C-31.95247502 42.76301237 -31.95247502 42.76301237 -34.90625 45.1328125 C-35.29019667 47.90543505 -35.50967248 50.47604778 -35.59375 53.2578125 C-35.62791016 54.01191406 -35.66207031 54.76601563 -35.69726562 55.54296875 C-35.77979278 57.40572451 -35.84469711 59.26924576 -35.90625 61.1328125 C-34.58625 61.1328125 -33.26625 61.1328125 -31.90625 61.1328125 C-31.90625 62.1228125 -31.90625 63.1128125 -31.90625 64.1328125 C-33.88625 63.8028125 -35.86625 63.4728125 -37.90625 63.1328125 C-38.02269156 60.04979834 -38.09357432 56.96735127 -38.15625 53.8828125 C-38.18976562 53.01011719 -38.22328125 52.13742188 -38.2578125 51.23828125 C-38.35629879 44.78742893 -38.35629879 44.78742893 -36.1875 41.6328125 C-33.84967858 40.09561486 -31.83605199 39.17098956 -29.15625 38.3828125 C-28.35703125 38.14046875 -27.5578125 37.898125 -26.734375 37.6484375 C-26.13109375 37.47828125 -25.5278125 37.308125 -24.90625 37.1328125 C-25.56625 34.4928125 -26.22625 31.8528125 -26.90625 29.1328125 C-28.22625 28.8028125 -29.54625 28.4728125 -30.90625 28.1328125 C-31.23625 27.8028125 -31.56625 27.4728125 -31.90625 27.1328125 C-31.63085254 24.79193408 -31.2875574 22.45878761 -30.90625 20.1328125 C-30.74125 19.1221875 -30.57625 18.1115625 -30.40625 17.0703125 C-30.24125 16.1009375 -30.07625 15.1315625 -29.90625 14.1328125 C-29.7825 13.0809375 -29.65875 12.0290625 -29.53125 10.9453125 C-28.83299215 7.80315218 -28.47608801 6.98611287 -25.90625 5.1328125 C-22.91015625 4.76953125 -22.91015625 4.76953125 -19.46875 4.8203125 C-18.33566406 4.82417969 -17.20257812 4.82804688 -16.03515625 4.83203125 C-13.09050455 5.11510014 -11.39301927 5.59920295 -8.90625 7.1328125 C-8.90625 5.1528125 -8.90625 3.1728125 -8.90625 1.1328125 C-5.9519943 -0.34431535 -3.29364796 0.00291252 0 0 Z " fill="#100C08" transform="translate(37.90625,-0.1328125)"/>
<path d="M0 0 C10.23 0 20.46 0 31 0 C31 15.18 31 30.36 31 46 C27.7 46 24.4 46 21 46 C20.67 44.68 20.34 43.36 20 42 C19.4225 42.144375 18.845 42.28875 18.25 42.4375 C16.16666667 42.95833333 14.08333333 43.47916667 12 44 C11.01 42.02 10.02 40.04 9 38 C13.95 37.505 13.95 37.505 19 37 C19 36.67 19 36.34 19 36 C15.37 35.67 11.74 35.34 8 35 C8 34.67 8 34.34 8 34 C13.28 34 18.56 34 24 34 C24 33.01 24 32.02 24 31 C18.39 31 12.78 31 7 31 C7 30.67 7 30.34 7 30 C12.94 30 18.88 30 25 30 C24.67 29.34 24.34 28.68 24 28 C18.39 27.67 12.78 27.34 7 27 C7 26.67 7 26.34 7 26 C12.94 26 18.88 26 25 26 C24.67 25.34 24.34 24.68 24 24 C18.06 23.67 12.12 23.34 6 23 C4.22925501 18.57313751 3.34056517 14.8406872 2.5625 10.20703125 C2.15199218 7.81161433 2.15199218 7.81161433 0 6 C0 4.02 0 2.04 0 0 Z " fill="#F5E8A8" transform="translate(31,3)"/>
<path d="M0 0 C1.98 0.66 3.96 1.32 6 2 C7 7 8 12 9 17 C14.94 17 20.88 17 27 17 C27.89840477 21.49202386 27.90338924 23.68380697 27 28 C25.35 28.33 23.7 28.66 22 29 C22 29.99 22 30.98 22 32 C14.69937859 33.11388158 9.72976216 33.17441612 3 30 C2.63282337 22.5340751 2.63282337 22.5340751 4.375 20 C6 19 6 19 8 19 C8 18.34 8 17.68 8 17 C6.35 17.33 4.7 17.66 3 18 C3.0928125 16.39125 3.0928125 16.39125 3.1875 14.75 C3.35466112 11.0844778 3.35466112 11.0844778 1.5 9 C-0.69602107 6.0719719 -0.2047785 3.54949401 0 0 Z " fill="#8C8460" transform="translate(28,9)"/>
<path d="M0 0 C2.47923801 -0.02685095 4.9581884 -0.04676547 7.4375 -0.0625 C8.14455078 -0.07087891 8.85160156 -0.07925781 9.58007812 -0.08789062 C11.38693559 -0.09653588 13.19387603 -0.05220011 15 0 C16.79792975 1.79792975 16.25670277 4.38385204 16.3125 6.8125 C16.34988281 7.87082031 16.38726563 8.92914063 16.42578125 10.01953125 C16 13 16 13 14.265625 15.359375 C11.71718343 17.2047982 10.54357077 17.51633428 7.4375 17.4375 C6.67308594 17.43621094 5.90867187 17.43492188 5.12109375 17.43359375 C3 17 3 17 1.234375 15.921875 C-0.67899239 12.94283463 -0.2834699 10.2994063 -0.1875 6.8125 C-0.16042969 5.54019531 -0.13335937 4.26789062 -0.10546875 2.95703125 C-0.07066406 1.98121094 -0.03585937 1.00539063 0 0 Z " fill="#D8A99C" transform="translate(14,18)"/>
<path d="M0 0 C0.33 0 0.66 0 1 0 C1.03738281 0.90363281 1.07476562 1.80726562 1.11328125 2.73828125 C1.21189453 4.50751953 1.21189453 4.50751953 1.3125 6.3125 C1.37050781 7.48425781 1.42851562 8.65601563 1.48828125 9.86328125 C1.7672166 12.92166857 1.7672166 12.92166857 3.21875 14.84375 C5.51117521 16.33181549 7.49886806 16.73357513 10.1875 17.1875 C11.53908203 17.42533203 11.53908203 17.42533203 12.91796875 17.66796875 C13.60503906 17.77753906 14.29210937 17.88710938 15 18 C13.35 19.65 11.7 21.3 10 23 C7.0280615 21.87548273 4.66559313 20.77706209 2 19 C1.67 22.3 1.34 25.6 1 29 C-0.65 29 -2.3 29 -4 29 C-3.67 27.35 -3.34 25.7 -3 24 C-7.04622502 23.63019987 -7.04622502 23.63019987 -10 26 C-10.38394667 28.77262255 -10.60342248 31.34323528 -10.6875 34.125 C-10.72166016 34.87910156 -10.75582031 35.63320313 -10.79101562 36.41015625 C-10.87354278 38.27291201 -10.93844711 40.13643326 -11 42 C-9.68 42 -8.36 42 -7 42 C-7 42.99 -7 43.98 -7 45 C-8.98 44.67 -10.96 44.34 -13 44 C-13.11644156 40.91698584 -13.18732432 37.83453877 -13.25 34.75 C-13.28351562 33.87730469 -13.31703125 33.00460938 -13.3515625 32.10546875 C-13.45004879 25.65461643 -13.45004879 25.65461643 -11.28125 22.5 C-8.94342858 20.96280236 -6.92980199 20.03817706 -4.25 19.25 C-3.45078125 19.00765625 -2.6515625 18.7653125 -1.828125 18.515625 C-1.22484375 18.34546875 -0.6215625 18.1753125 0 18 C-0.66 15.36 -1.32 12.72 -2 10 C-3.32 9.67 -4.64 9.34 -6 9 C-6.33 7.35 -6.66 5.7 -7 4 C-5.5459375 3.566875 -5.5459375 3.566875 -4.0625 3.125 C-0.89335797 2.35785318 -0.89335797 2.35785318 0 0 Z " fill="#2B2120" transform="translate(13,19)"/>
<path d="M0 0 C4.45850936 0.79616239 5.90783917 1.93313458 8.5 5.625 C9.125 9.125 9.125 9.125 8.5 12.625 C5.90783917 16.31686542 4.45850936 17.45383761 0 18.25 C-4.45850936 17.45383761 -5.90783917 16.31686542 -8.5 12.625 C-9.125 9.125 -9.125 9.125 -8.5 5.625 C-5.90783917 1.93313458 -4.45850936 0.79616239 0 0 Z " fill="#00EAA0" transform="translate(46.5,6.375)"/>
<path d="M0 0 C1.48454806 0.59082014 2.96254351 1.19812655 4.4375 1.8125 C5.26121094 2.14894531 6.08492187 2.48539063 6.93359375 2.83203125 C9 4 9 4 10 7 C9.35546875 7.37769531 8.7109375 7.75539063 8.046875 8.14453125 C5.75970238 9.86059908 5.75970238 9.86059908 5.390625 12.69921875 C5.32101563 14.17841797 5.32101563 14.17841797 5.25 15.6875 C5.19328125 16.68136719 5.1365625 17.67523438 5.078125 18.69921875 C5.05234375 19.45847656 5.0265625 20.21773437 5 21 C3.68 21 2.36 21 1 21 C1.99 17.535 1.99 17.535 3 14 C2.34 14 1.68 14 1 14 C0.7525 14.969375 0.505 15.93875 0.25 16.9375 C-0.1625 17.948125 -0.575 18.95875 -1 20 C-3.125 20.875 -3.125 20.875 -5 21 C-6.32286246 16.03926578 -6.08893197 11.08888488 -6 6 C-5.01 6.33 -4.02 6.66 -3 7 C-2.67 5.35 -2.34 3.7 -2 2 C-1.34 2 -0.68 2 0 2 C0 1.34 0 0.68 0 0 Z " fill="#333A3F" transform="translate(31,40)"/>
<path d="M0 0 C-0.66 0.66 -1.32 1.32 -2 2 C-2.6425235 4.06874034 -2.6425235 4.06874034 -3 6 C-2.01 6.33 -1.02 6.66 0 7 C-0.99 8.485 -0.99 8.485 -2 10 C-1.66674962 13.19920361 -1.01713841 15.94858478 0 19 C-0.99 19 -1.98 19 -3 19 C-3 19.66 -3 20.32 -3 21 C-3.99 21 -4.98 21 -6 21 C-6 20.34 -6 19.68 -6 19 C-7.32 19 -8.64 19 -10 19 C-10.10792837 16.39472895 -10.18724878 13.79391689 -10.25 11.1875 C-10.30027344 10.08051758 -10.30027344 10.08051758 -10.3515625 8.95117188 C-10.45058051 3.48042666 -10.45058051 3.48042666 -8.171875 1.05078125 C-3.55245781 -1.1841526 -3.55245781 -1.1841526 0 0 Z " fill="#546670" transform="translate(12,42)"/>
<path d="M0 0 C0.98871094 -0.01417969 1.97742188 -0.02835937 2.99609375 -0.04296875 C5.5625 0.1875 5.5625 0.1875 7.5625 2.1875 C7.6875 5.8125 7.6875 5.8125 7.5625 9.1875 C6.31533203 9.26097656 6.31533203 9.26097656 5.04296875 9.3359375 C3.95628906 9.41070312 2.86960937 9.48546875 1.75 9.5625 C0.67105469 9.63210937 -0.40789063 9.70171875 -1.51953125 9.7734375 C-4.62376186 9.99945733 -4.62376186 9.99945733 -7.4375 12.1875 C-8.625 10.0625 -8.625 10.0625 -9.4375 7.1875 C-7.02411847 1.21150763 -6.287 0.04087776 0 0 Z " fill="#B75B4A" transform="translate(18.4375,6.8125)"/>
<path d="M0 0 C0.99 0 1.98 0 3 0 C3 15.18 3 30.36 3 46 C2.01 46 1.02 46 0 46 C0 30.82 0 15.64 0 0 Z " fill="#FEE97D" transform="translate(59,3)"/>
<path d="M0 0 C1.98 0.99 1.98 0.99 4 2 C5.99660454 2.89582173 5.99660454 2.89582173 8 3 C9.64594139 1.60411246 9.64594139 1.60411246 11 0 C11.66 0 12.32 0 13 0 C13 2.31 13 4.62 13 7 C11.68 6.67 10.36 6.34 9 6 C8.67 6.99 8.34 7.98 8 9 C6.68 8.67 5.36 8.34 4 8 C3.95101563 8.91523437 3.90203125 9.83046875 3.8515625 10.7734375 C3.77679687 11.96195313 3.70203125 13.15046875 3.625 14.375 C3.52058594 16.15003906 3.52058594 16.15003906 3.4140625 17.9609375 C3 21 3 21 1 23 C0.67 15.41 0.34 7.82 0 0 Z " fill="#617989" transform="translate(15,38)"/>
<path d="M0 0 C1.98 0.66 3.96 1.32 6 2 C7 7 8 12 9 17 C7.02 17.33 5.04 17.66 3 18 C3.0928125 16.39125 3.0928125 16.39125 3.1875 14.75 C3.35466112 11.0844778 3.35466112 11.0844778 1.5 9 C-0.69602107 6.0719719 -0.2047785 3.54949401 0 0 Z " fill="#604033" transform="translate(28,9)"/>
<path d="M0 0 C3.69186542 2.59216083 4.82883761 4.04149064 5.625 8.5 C4.82883761 12.95850936 3.69186542 14.40783917 0 17 C-3.5 17.625 -3.5 17.625 -7 17 C-9.9375 14.625 -9.9375 14.625 -12 12 C-12 11.34 -12 10.68 -12 10 C-11.34 10 -10.68 10 -10 10 C-9.608125 10.66 -9.21625 11.32 -8.8125 12 C-7.04646123 14.39529924 -7.04646123 14.39529924 -3.4375 14.375 C0.06110754 14.35639408 0.06110754 14.35639408 2 12 C2.33333333 8.5 2.33333333 8.5 2 5 C0.06110754 2.64360592 0.06110754 2.64360592 -3.4375 2.625 C-7.04646123 2.60470076 -7.04646123 2.60470076 -8.8125 5 C-9.4003125 5.99 -9.4003125 5.99 -10 7 C-10.66 7 -11.32 7 -12 7 C-9.78039431 0.51192183 -6.79271975 -0.819811 0 0 Z " fill="#0C1911" transform="translate(50,7)"/>
<path d="M0 0 C0.33 0 0.66 0 1 0 C1 3.3 1 6.6 1 10 C2.32 10.66 3.64 11.32 5 12 C3.02 12.33 1.04 12.66 -1 13 C-1 14.98 -1 16.96 -1 19 C-2.32 18.67 -3.64 18.34 -5 18 C-5.33 19.65 -5.66 21.3 -6 23 C-6.33 22.01 -6.66 21.02 -7 20 C-8.32 20 -9.64 20 -11 20 C-11 19.01 -11 18.02 -11 17 C-9.68 17 -8.36 17 -7 17 C-7 16.01 -7 15.02 -7 14 C-4.525 14.99 -4.525 14.99 -2 16 C-2 13.36 -2 10.72 -2 8 C-5.3 7.67 -8.6 7.34 -12 7 C-12 6.67 -12 6.34 -12 6 C-11.30132813 5.90203125 -10.60265625 5.8040625 -9.8828125 5.703125 C-8.51769531 5.47882812 -8.51769531 5.47882812 -7.125 5.25 C-6.22007813 5.11078125 -5.31515625 4.9715625 -4.3828125 4.828125 C-1.83785757 4.22016157 -1.83785757 4.22016157 -0.6796875 1.921875 C-0.34324219 0.97054688 -0.34324219 0.97054688 0 0 Z " fill="#030405" transform="translate(30,29)"/>
<path d="M0 0 C0 0.66 0 1.32 0 2 C-0.56589844 2.103125 -1.13179687 2.20625 -1.71484375 2.3125 C-4.52546537 3.18186627 -5.95661132 3.83996969 -8 6 C-9.05499377 11.3569632 -9.10131582 16.55427489 -9 22 C-7.68 22 -6.36 22 -5 22 C-5 22.99 -5 23.98 -5 25 C-6.98 24.67 -8.96 24.34 -11 24 C-11.11644156 20.91698584 -11.18732432 17.83453877 -11.25 14.75 C-11.28351562 13.87730469 -11.31703125 13.00460938 -11.3515625 12.10546875 C-11.45069748 5.61212743 -11.45069748 5.61212743 -9.11328125 2.4375 C-5.95125285 0.28661932 -3.78927445 0 0 0 Z " fill="#010101" transform="translate(11,39)"/>
<path d="M0 0 C6.64615385 1.47692308 6.64615385 1.47692308 8.4375 4.125 C8.7159375 5.053125 8.7159375 5.053125 9 6 C8.35546875 6.37769531 7.7109375 6.75539063 7.046875 7.14453125 C4.75970238 8.86059908 4.75970238 8.86059908 4.390625 11.69921875 C4.34421875 12.68535156 4.2978125 13.67148437 4.25 14.6875 C4.19328125 15.68136719 4.1365625 16.67523438 4.078125 17.69921875 C4.05234375 18.45847656 4.0265625 19.21773437 4 20 C2.68 20 1.36 20 0 20 C0.16757812 19.38511719 0.33515625 18.77023438 0.5078125 18.13671875 C0.71148437 17.32847656 0.91515625 16.52023438 1.125 15.6875 C1.43824219 14.48673828 1.43824219 14.48673828 1.7578125 13.26171875 C2.27427334 10.71792767 2.27427334 10.71792767 0 8 C0.556875 7.13375 0.556875 7.13375 1.125 6.25 C2.29166667 4 2.29166667 4 1.125 1.75 C0.75375 1.1725 0.3825 0.595 0 0 Z " fill="#51646D" transform="translate(32,41)"/>
<path d="M0 0 C0.66 0 1.32 0 2 0 C2.62068966 8.06896552 2.62068966 8.06896552 0.25 11.625 C-2 13 -2 13 -4.1875 12.9375 C-6 12 -6 12 -7 9 C-6.34 9 -5.68 9 -5 9 C-5 9.66 -5 10.32 -5 11 C-4.01 11 -3.02 11 -2 11 C-2 10.01 -2 9.02 -2 8 C-2.99 7.67 -3.98 7.34 -5 7 C-4.67 5.68 -4.34 4.36 -4 3 C-3.34 3 -2.68 3 -2 3 C-1.34 2.01 -0.68 1.02 0 0 Z " fill="#886E66" transform="translate(25,20)"/>
<path d="M0 0 C2.86724686 0.57344937 3.8614515 0.8614515 6 3 C6.375 6.4375 6.375 6.4375 6 10 C4 11.9375 4 11.9375 2 13 C2 11.35 2 9.7 2 8 C0.02 8.99 0.02 8.99 -2 10 C-3.5 8.625 -3.5 8.625 -5 7 C-5 6.34 -5 5.68 -5 5 C-2.525 5.495 -2.525 5.495 0 6 C0.66 5.01 1.32 4.02 2 3 C1.34 2.01 0.68 1.02 0 0 Z " fill="#0CCC8B" transform="translate(47,9)"/>
<path d="M0 0 C3.63 0 7.26 0 11 0 C11.02703381 1.93742341 11.04641125 3.87495479 11.0625 5.8125 C11.07410156 6.89144531 11.08570313 7.97039063 11.09765625 9.08203125 C11 12 11 12 10 15 C7.69 15 5.38 15 3 15 C3.99 14.34 4.98 13.68 6 13 C8.11860704 11.28397862 8.90309714 10.42829583 9.51171875 7.73828125 C9.56972656 6.93777344 9.62773437 6.13726562 9.6875 5.3125 C9.75324219 4.50425781 9.81898437 3.69601563 9.88671875 2.86328125 C9.92410156 2.24839844 9.96148437 1.63351563 10 1 C7.66924071 1.95865509 7.66924071 1.95865509 6 5 C3.875 5.6875 3.875 5.6875 2 6 C2 4.35 2 2.7 2 1 C1.34 0.67 0.68 0.34 0 0 Z " fill="#FCCBBC" transform="translate(17,19)"/>
<path d="M0 0 C2.64 0 5.28 0 8 0 C8 2.31 8 4.62 8 7 C5.36 7 2.72 7 0 7 C0 4.69 0 2.38 0 0 Z " fill="#70828E" transform="translate(38,54)"/>
<path d="M0 0 C0.99 0.66 1.98 1.32 3 2 C3.33 1.67 3.66 1.34 4 1 C6.18639453 0.92741054 8.37500389 0.91626217 10.5625 0.9375 C12.35880859 0.95103516 12.35880859 0.95103516 14.19140625 0.96484375 C15.11824219 0.97644531 16.04507812 0.98804687 17 1 C17 1.33 17 1.66 17 2 C11.06 2.495 11.06 2.495 5 3 C4.67 5.31 4.34 7.62 4 10 C3.67 10 3.34 10 3 10 C3 8.35 3 6.7 3 5 C1.02 5.99 1.02 5.99 -1 7 C-2 4 -2 4 -1.0625 1.8125 C-0.5365625 0.9153125 -0.5365625 0.9153125 0 0 Z " fill="#020101" transform="translate(9,16)"/>
<path d="M0 0 C0.99 0.33 1.98 0.66 3 1 C3 5.62 3 10.24 3 15 C2.34 15 1.68 15 1 15 C-0.32286246 10.03926578 -0.08893197 5.08888488 0 0 Z " fill="#CAD1D4" transform="translate(25,46)"/>
<path d="M0 0 C0.66 0 1.32 0 2 0 C2.33 3.63 2.66 7.26 3 11 C1.68 11 0.36 11 -1 11 C-1.0270043 9.54176788 -1.04639787 8.08339325 -1.0625 6.625 C-1.07410156 5.81289063 -1.08570312 5.00078125 -1.09765625 4.1640625 C-1 2 -1 2 0 0 Z " fill="#0489EB" transform="translate(21,50)"/>
<path d="M0 0 C0.99 0.33 1.98 0.66 3 1 C1.5625 3.5 1.5625 3.5 -1 6 C-4.04256578 6.4451258 -6.9465865 6.29359745 -10 6 C-7.41804126 2.12706189 -5.39076016 2.11764804 -1 1 C-0.67 0.67 -0.34 0.34 0 0 Z " fill="#DEAB9D" transform="translate(48,46)"/>
<path d="M0 0 C2.51005664 3.76508495 2.0258295 6.39461609 1.625 10.6875 C1.56828125 11.38939453 1.5115625 12.09128906 1.453125 12.81445312 C1.31195359 14.54380285 1.15728041 16.27204088 1 18 C0.67 18 0.34 18 0 18 C0 15.03 0 12.06 0 9 C-1.65 9.66 -3.3 10.32 -5 11 C-4.649375 10.38125 -4.29875 9.7625 -3.9375 9.125 C-3.628125 8.42375 -3.31875 7.7225 -3 7 C-3.33 6.34 -3.66 5.68 -4 5 C-2.02 5.495 -2.02 5.495 0 6 C0 4.02 0 2.04 0 0 Z " fill="#010202" transform="translate(14,42)"/>
<path d="M0 0 C1.98 0.99 1.98 0.99 4 2 C4 4.64 4 7.28 4 10 C2 8.9375 2 8.9375 0 7 C-0.25 3.3125 -0.25 3.3125 0 0 Z " fill="#904536" transform="translate(28,9)"/>
<path d="M0 0 C0.33 0 0.66 0 1 0 C1 4.62 1 9.24 1 14 C2.32 14 3.64 14 5 14 C5 14.99 5 15.98 5 17 C3.02 16.67 1.04 16.34 -1 16 C-0.67 10.72 -0.34 5.44 0 0 Z " fill="#07090A" transform="translate(1,47)"/>
<path d="M0 0 C0.66 0.33 1.32 0.66 2 1 C1.88617347 2.95901454 1.75858875 4.9172338 1.625 6.875 C1.55539063 7.96554688 1.48578125 9.05609375 1.4140625 10.1796875 C1 13 1 13 -1 15 C-1.02685412 12.68756208 -1.04632841 10.3750373 -1.0625 8.0625 C-1.07410156 6.77472656 -1.08570313 5.48695312 -1.09765625 4.16015625 C-1 1 -1 1 0 0 Z " fill="#E8F1F5" transform="translate(17,46)"/>
<path d="M0 0 C2.0625 0.4375 2.0625 0.4375 4 1 C3.34 1 2.68 1 2 1 C1.67 4.63 1.34 8.26 1 12 C2.32 12.33 3.64 12.66 5 13 C3.35 13 1.7 13 0 13 C-0.19397476 11.02145742 -0.38001321 9.0421352 -0.5625 7.0625 C-0.66691406 5.96035156 -0.77132813 4.85820313 -0.87890625 3.72265625 C-0.91886719 2.82417969 -0.95882813 1.92570312 -1 1 C-0.67 0.67 -0.34 0.34 0 0 Z " fill="#142C3F" transform="translate(19,49)"/>
<path d="M0 0 C0.33 0 0.66 0 1 0 C1.02703381 1.93742341 1.04641125 3.87495479 1.0625 5.8125 C1.07410156 6.89144531 1.08570313 7.97039063 1.09765625 9.08203125 C1 12 1 12 0 15 C-2.31 15 -4.62 15 -7 15 C-6.01 14.34 -5.02 13.68 -4 13 C-1.74634036 11.21741411 -1.07743906 10.37537256 -0.48828125 7.51953125 C-0.43027344 6.62621094 -0.37226563 5.73289062 -0.3125 4.8125 C-0.24675781 3.91144531 -0.18101563 3.01039062 -0.11328125 2.08203125 C-0.07589844 1.39496094 -0.03851562 0.70789063 0 0 Z " fill="#FCC2B2" transform="translate(27,19)"/>
<path d="M0 0 C0.66 0 1.32 0 2 0 C0.95125002 2.62187494 0.35068687 3.79371361 -2.125 5.25 C-2.74375 5.4975 -3.3625 5.745 -4 6 C-5.5 4.625 -5.5 4.625 -7 3 C-7 2.34 -7 1.68 -7 1 C-5.824375 1.309375 -5.824375 1.309375 -4.625 1.625 C-3.75875 1.74875 -2.8925 1.8725 -2 2 C-1.34 1.34 -0.68 0.68 0 0 Z " fill="#003524" transform="translate(49,13)"/>
<path d="M0 0 C0.66 0 1.32 0 2 0 C2 2.31 2 4.62 2 7 C0.68 6.34 -0.64 5.68 -2 5 C-2 2 -2 2 0 0 Z " fill="#C6C6C6" transform="translate(26,38)"/>
<path d="M0 0 C0.33 0 0.66 0 1 0 C1 2.97 1 5.94 1 9 C-0.32 9 -1.64 9 -3 9 C-2.01 6.03 -1.02 3.06 0 0 Z " fill="#576A74" transform="translate(35,52)"/>
<path d="M0 0 C0.763125 0.20625 1.52625 0.4125 2.3125 0.625 C2.3125 0.955 2.3125 1.285 2.3125 1.625 C1.36375 1.893125 0.415 2.16125 -0.5625 2.4375 C-3.94017273 3.37486588 -3.94017273 3.37486588 -5.6875 6.625 C-6.3475 6.625 -7.0075 6.625 -7.6875 6.625 C-6.22846393 2.36012534 -5.12714281 -0.71541528 0 0 Z " fill="#19251A" transform="translate(45.6875,7.375)"/>
<path d="M0 0 C0.66 0 1.32 0 2 0 C2 2.97 2 5.94 2 9 C0.4375 7.3125 0.4375 7.3125 -1 5 C-0.6875 2.25 -0.6875 2.25 0 0 Z " fill="#66757F" transform="translate(12,51)"/>
<path d="M0 0 C5.66153846 1.47692308 5.66153846 1.47692308 7.375 4.125 C7.58125 4.74375 7.7875 5.3625 8 6 C7.01 6.495 7.01 6.495 6 7 C5.401875 6.38125 4.80375 5.7625 4.1875 5.125 C1.99188856 2.86323046 1.99188856 2.86323046 -1 1 C-0.67 0.67 -0.34 0.34 0 0 Z " fill="#161713" transform="translate(35,40)"/>
<path d="M0 0 C0.66 0 1.32 0 2 0 C2.433125 0.639375 2.86625 1.27875 3.3125 1.9375 C5.40849852 4.49927596 6.78299472 4.65221564 10 5 C8.3125 6.1875 8.3125 6.1875 6 7 C3.3125 5.875 3.3125 5.875 1 4 C0.1875 1.8125 0.1875 1.8125 0 0 Z " fill="#102B1E" transform="translate(38,17)"/>
<path d="M0 0 C0.99 0.99 1.98 1.98 3 3 C1.68 4.32 0.36 5.64 -1 7 C-2 4 -2 4 -1.0625 1.8125 C-0.5365625 0.9153125 -0.5365625 0.9153125 0 0 Z " fill="#0F0806" transform="translate(9,16)"/>
<path d="M0 0 C0.66 0 1.32 0 2 0 C2 1.98 2 3.96 2 6 C1.01 6 0.02 6 -1 6 C-1.042721 4.33388095 -1.04063832 2.66617115 -1 1 C-0.67 0.67 -0.34 0.34 0 0 Z " fill="#D37F6D" transform="translate(10,21)"/>
</svg>
