<?xml version="1.0" encoding="UTF-8"?>
<svg version="1.1" xmlns="http://www.w3.org/2000/svg" width="64" height="64">
<path d="M0 0 C0.88461914 0.02070557 1.76923828 0.04141113 2.68066406 0.06274414 C4.68099778 0.11395241 6.68103527 0.17769518 8.68066406 0.25146484 C11.86342527 0.36561831 15.04536195 0.45288998 18.22915649 0.52996826 C21.77798666 0.61638549 25.32650232 0.71346217 28.875 0.8125 C29.92563629 0.84129242 29.92563629 0.84129242 30.99749756 0.8706665 C32.99328975 0.92776276 34.98884405 0.99299887 36.984375 1.05859375 C38.72412598 1.11358032 38.72412598 1.11358032 40.49902344 1.16967773 C43.125 1.375 43.125 1.375 44.125 2.375 C44.21283542 4.59355264 44.23194609 6.81488496 44.22265625 9.03515625 C44.2212413 9.69962265 44.21982635 10.36408905 44.21836853 11.0486908 C44.21275518 13.17833899 44.20020054 15.30788339 44.1875 17.4375 C44.18248671 18.87825369 44.17792351 20.31900903 44.17382812 21.75976562 C44.16278145 25.29821102 44.14550792 28.83659539 44.125 32.375 C43.48046875 32.63023438 42.8359375 32.88546875 42.171875 33.1484375 C41.49640625 33.55320313 40.8209375 33.95796875 40.125 34.375 C39.30629815 37.93706661 39.30629815 37.93706661 39.125 41.375 C36.65 41.87 36.65 41.87 34.125 42.375 C34.125 44.025 34.125 45.675 34.125 47.375 C32.145 47.375 30.165 47.375 28.125 47.375 C27.99222656 48.12265625 27.85945313 48.8703125 27.72265625 49.640625 C27.54605469 50.62546875 27.36945312 51.6103125 27.1875 52.625 C27.01347656 53.59953125 26.83945312 54.5740625 26.66015625 55.578125 C26.22364867 57.85943468 25.68833632 60.12165473 25.125 62.375 C21.165 62.375 17.205 62.375 13.125 62.375 C12.40885417 60.64973958 11.69270833 58.92447917 10.9765625 57.19921875 C10.05693308 55.10966068 10.05693308 55.10966068 8.125 52.375 C5.05943402 51.64156572 5.05943402 51.64156572 2.125 51.375 C0.63359979 54.99697194 -0.6624262 58.65066618 -1.875 62.375 C-5.835 62.375 -9.795 62.375 -13.875 62.375 C-14.62369792 59.54296875 -15.37239583 56.7109375 -16.12109375 53.87890625 C-16.63478077 51.45747999 -16.63478077 51.45747999 -17.875 50.375 C-17.96213831 48.66727642 -17.98200007 46.95601351 -17.97265625 45.24609375 C-17.96943359 44.21162109 -17.96621094 43.17714844 -17.96289062 42.11132812 C-17.95032227 40.4784082 -17.95032227 40.4784082 -17.9375 38.8125 C-17.93298828 37.72001953 -17.92847656 36.62753906 -17.92382812 35.50195312 C-17.91199826 32.79291505 -17.89551543 30.08398401 -17.875 27.375 C-16.555 27.045 -15.235 26.715 -13.875 26.375 C-13.90118408 25.76503174 -13.92736816 25.15506348 -13.9543457 24.52661133 C-14.05865719 21.74717242 -14.12342982 18.96814561 -14.1875 16.1875 C-14.22939453 15.22779297 -14.27128906 14.26808594 -14.31445312 13.27929688 C-14.3928474 8.74810764 -14.34800922 6.13388359 -11.91015625 2.22265625 C-7.76698213 -0.29950766 -4.7556834 -0.21620898 0 0 Z M31.125 34.375 C31.785 36.025 32.445 37.675 33.125 39.375 C34.445 39.045 35.765 38.715 37.125 38.375 C37.125 37.055 37.125 35.735 37.125 34.375 C35.145 34.375 33.165 34.375 31.125 34.375 Z M28.125 39.375 C28.125 41.025 28.125 42.675 28.125 44.375 C29.115 44.375 30.105 44.375 31.125 44.375 C31.455 42.725 31.785 41.075 32.125 39.375 C30.805 39.375 29.485 39.375 28.125 39.375 Z " fill="#96A7B3" transform="translate(18.875,0.625)"/>
<path d="M0 0 C0.88461914 0.02070557 1.76923828 0.04141113 2.68066406 0.06274414 C4.68099778 0.11395241 6.68103527 0.17769518 8.68066406 0.25146484 C11.86342527 0.36561831 15.04536195 0.45288998 18.22915649 0.52996826 C21.77798666 0.61638549 25.32650232 0.71346217 28.875 0.8125 C29.92563629 0.84129242 29.92563629 0.84129242 30.99749756 0.8706665 C32.99328975 0.92776276 34.98884405 0.99299887 36.984375 1.05859375 C38.72412598 1.11358032 38.72412598 1.11358032 40.49902344 1.16967773 C43.125 1.375 43.125 1.375 44.125 2.375 C44.21258003 4.37464982 44.23196576 6.3773611 44.22265625 8.37890625 C44.21943359 9.59384766 44.21621094 10.80878906 44.21289062 12.06054688 C44.20032227 13.97963867 44.20032227 13.97963867 44.1875 15.9375 C44.18298828 17.22076172 44.17847656 18.50402344 44.17382812 19.82617188 C44.16199555 23.0091342 44.14405944 26.19207274 44.125 29.375 C38.845 29.375 33.565 29.375 28.125 29.375 C27.63 28.385 27.63 28.385 27.125 27.375 C6.83 26.88 6.83 26.88 -13.875 26.375 C-13.978125 23.013125 -14.08125 19.65125 -14.1875 16.1875 C-14.23302002 15.13667236 -14.27854004 14.08584473 -14.32543945 13.00317383 C-14.39122629 8.576781 -14.29397255 6.04718856 -11.91015625 2.22265625 C-7.76698213 -0.29950766 -4.7556834 -0.21620898 0 0 Z " fill="#E5F7FE" transform="translate(18.875,0.625)"/>
<path d="M0 0 C1.46856445 0.03383789 1.46856445 0.03383789 2.96679688 0.06835938 C5.3743573 0.12708036 7.78112754 0.21675574 10.1875 0.3125 C9.8575 4.2725 9.5275 8.2325 9.1875 12.3125 C11.8275 12.3125 14.4675 12.3125 17.1875 12.3125 C17.1875 11.6525 17.1875 10.9925 17.1875 10.3125 C19.68111571 11.51631448 21.86893083 12.76678722 24.1875 14.3125 C23.05030581 17.72408256 22.14407056 18.43104601 19.1875 20.3125 C18.5275 20.3125 17.8675 20.3125 17.1875 20.3125 C17.1875 19.6525 17.1875 18.9925 17.1875 18.3125 C14.5475 18.3125 11.9075 18.3125 9.1875 18.3125 C9.1875 20.9525 9.1875 23.5925 9.1875 26.3125 C0.9375 26.3125 -7.3125 26.3125 -15.8125 26.3125 C-15.915625 22.950625 -16.01875 19.58875 -16.125 16.125 C-16.17052002 15.07417236 -16.21604004 14.02334473 -16.26293945 12.94067383 C-16.3275632 8.59253771 -16.19592965 5.96887958 -13.96875 2.15625 C-9.3254232 -0.55618843 -5.27026439 -0.23006527 0 0 Z " fill="#D6DEE4" transform="translate(20.8125,0.6875)"/>
<path d="M0 0 C1.32 0 2.64 0 4 0 C4 2.64 4 5.28 4 8 C4.66 8 5.32 8 6 8 C6 7.34 6 6.68 6 6 C7.32 6 8.64 6 10 6 C10 7.32 10 8.64 10 10 C10.99 10 11.98 10 13 10 C14.18609365 15.6932495 13.66251802 19.42567486 12 25 C8.04 25 4.08 25 0 25 C-0.433125 23.96875 -0.86625 22.9375 -1.3125 21.875 C-2.33404302 19.45734819 -3.41490663 17.2470213 -4.6875 14.9375 C-6.13063602 11.70762414 -6.24977941 9.49691176 -6 6 C-5.01 6 -4.02 6 -3 6 C-2.34 7.65 -1.68 9.3 -1 11 C-0.67 7.37 -0.34 3.74 0 0 Z " fill="#FBD4BC" transform="translate(32,38)"/>
<path d="M0 0 C0.99 0 1.98 0 3 0 C3 3.96 3 7.92 3 12 C3.66 12 4.32 12 5 12 C5.33 10.02 5.66 8.04 6 6 C7.32 6 8.64 6 10 6 C9.58488769 12.01912846 8.55576957 14.99969904 5 20 C4.67 21.65 4.34 23.3 4 25 C0.04 25 -3.92 25 -8 25 C-9.97094808 20.07262981 -10.1799928 16.21979128 -10 11 C-9.01 10.67 -8.02 10.34 -7 10 C-6.26676204 7.98491642 -6.26676204 7.98491642 -6 6 C-5.01 6 -4.02 6 -3 6 C-3 6.99 -3 7.98 -3 9 C-2.01 9 -1.02 9 0 9 C0 6.03 0 3.06 0 0 Z " fill="#F7D4BF" transform="translate(13,38)"/>
<path d="M0 0 C2.47923801 -0.02685095 4.9581884 -0.04676547 7.4375 -0.0625 C8.14455078 -0.07087891 8.85160156 -0.07925781 9.58007812 -0.08789062 C11.38693559 -0.09653588 13.19387603 -0.05220011 15 0 C15.33 0.33 15.66 0.66 16 1 C15.8229564 4.02116333 15.38079097 6.99598232 15 10 C9.39 10 3.78 10 -2 10 C-2 9.01 -2 8.02 -2 7 C-1.01 6.67 -0.02 6.34 1 6 C0.67 4.02 0.34 2.04 0 0 Z " fill="#CBD4DA" transform="translate(12,2)"/>
<path d="M0 0 C-0.3125 1.9375 -0.3125 1.9375 -1 4 C-1.99 4.33 -2.98 4.66 -4 5 C-4.33 7.31 -4.66 9.62 -5 12 C-6.65 12.33 -8.3 12.66 -10 13 C-10 14.65 -10 16.3 -10 18 C-11.98 18 -13.96 18 -16 18 C-16 17.01 -16 16.02 -16 15 C-15.01 15 -14.02 15 -13 15 C-12.67 13.35 -12.34 11.7 -12 10 C-13.32 10 -14.64 10 -16 10 C-16 7.03 -16 4.06 -16 1 C-13.89594609 0.83191581 -11.79175242 0.66558052 -9.6875 0.5 C-8.51574219 0.4071875 -7.34398437 0.314375 -6.13671875 0.21875 C-4.094806 0.07635011 -2.0468721 0 0 0 Z M-13 5 C-12.34 6.65 -11.68 8.3 -11 10 C-9.68 9.67 -8.36 9.34 -7 9 C-7 7.68 -7 6.36 -7 5 C-8.98 5 -10.96 5 -13 5 Z " fill="#03485D" transform="translate(63,30)"/>
<path d="M0 0 C2.49361571 1.20381448 4.68143083 2.45428722 7 4 C5.86280581 7.41158256 4.95657056 8.11854601 2 10 C1.34 10 0.68 10 0 10 C0 9.01 0 8.02 0 7 C-3.3 7 -6.6 7 -10 7 C-10 5.68 -10 4.36 -10 3 C-6.7 3 -3.4 3 0 3 C0 2.01 0 1.02 0 0 Z " fill="#5FB3F5" transform="translate(38,11)"/>
<path d="M0 0 C1.32 0.33 2.64 0.66 4 1 C4 9.91 4 18.82 4 28 C3.01 28 2.02 28 1 28 C0.67 18.76 0.34 9.52 0 0 Z " fill="#D2F1FF" transform="translate(59,2)"/>
<path d="M0 0 C1.46856445 0.04060547 1.46856445 0.04060547 2.96679688 0.08203125 C5.37464713 0.15250492 7.78135963 0.26011797 10.1875 0.375 C9.8575 4.335 9.5275 8.295 9.1875 12.375 C11.8275 12.375 14.4675 12.375 17.1875 12.375 C17.1875 12.705 17.1875 13.035 17.1875 13.375 C13.8875 13.375 10.5875 13.375 7.1875 13.375 C6.8575 9.745 6.5275 6.115 6.1875 2.375 C1.2375 2.045 -3.7125 1.715 -8.8125 1.375 C-9.1425 3.025 -9.4725 4.675 -9.8125 6.375 C-11.7925 6.375 -13.7725 6.375 -15.8125 6.375 C-11.57715446 -0.53577795 -7.73272082 -0.40507201 0 0 Z " fill="#DBE8EF" transform="translate(20.8125,0.625)"/>
<path d="M0 0 C0.99 0 1.98 0 3 0 C3.05802698 3.43742918 3.09360486 6.87473253 3.125 10.3125 C3.14175781 11.28896484 3.15851562 12.26542969 3.17578125 13.27148438 C3.18222656 14.20927734 3.18867187 15.14707031 3.1953125 16.11328125 C3.20578613 16.97735596 3.21625977 17.84143066 3.22705078 18.73168945 C3 21 3 21 1 24 C-0 23 -0 23 -0.11352539 20.77514648 C-0.10828857 19.81680908 -0.10305176 18.85847168 -0.09765625 17.87109375 C-0.09443359 16.83662109 -0.09121094 15.80214844 -0.08789062 14.73632812 C-0.07951172 13.64771484 -0.07113281 12.55910156 -0.0625 11.4375 C-0.05798828 10.34501953 -0.05347656 9.25253906 -0.04882812 8.12695312 C-0.03699826 5.41791505 -0.02051543 2.70898401 0 0 Z " fill="#7D8E9A" transform="translate(1,28)"/>
<path d="M0 0 C0.99 0.33 1.98 0.66 3 1 C2.67 3.31 2.34 5.62 2 8 C0.35 8.33 -1.3 8.66 -3 9 C-3 10.65 -3 12.3 -3 14 C-4.98 14 -6.96 14 -9 14 C-9 13.01 -9 12.02 -9 11 C-8.01 11 -7.02 11 -6 11 C-5.9175 10.38125 -5.835 9.7625 -5.75 9.125 C-5.5025 8.42375 -5.255 7.7225 -5 7 C-4.34 6.690625 -3.68 6.38125 -3 6.0625 C-2.34 5.711875 -1.68 5.36125 -1 5 C-0.18828772 2.44480079 -0.18828772 2.44480079 0 0 Z " fill="#354143" transform="translate(56,34)"/>
<path d="M0 0 C3.96 0 7.92 0 12 0 C12 0.99 12 1.98 12 3 C8.04 3 4.08 3 0 3 C0 2.01 0 1.02 0 0 Z " fill="#FFD425" transform="translate(32,60)"/>
<path d="M0 0 C3.96 0 7.92 0 12 0 C12 0.99 12 1.98 12 3 C8.04 3 4.08 3 0 3 C0 2.01 0 1.02 0 0 Z " fill="#FFD426" transform="translate(5,60)"/>
<path d="M0 0 C1.32 0 2.64 0 4 0 C4 2.64 4 5.28 4 8 C4.66 8 5.32 8 6 8 C6 7.34 6 6.68 6 6 C7.32 6 8.64 6 10 6 C9.67 7.32 9.34 8.64 9 10 C6.03 9.505 6.03 9.505 3 9 C3 6.36 3 3.72 3 1 C2.01 1.33 1.02 1.66 0 2 C0 1.34 0 0.68 0 0 Z " fill="#C9D4D9" transform="translate(32,38)"/>
<path d="M0 0 C1.9375 0.6875 1.9375 0.6875 4 2 C4.75 4.625 4.75 4.625 5 7 C3.35 6.67 1.7 6.34 0 6 C0 4.02 0 2.04 0 0 Z " fill="#002C39" transform="translate(47,34)"/>
</svg>
