<?xml version="1.0" encoding="UTF-8"?>
<svg version="1.1" xmlns="http://www.w3.org/2000/svg" width="64" height="64">
<path d="M0 0 C8.58 0 17.16 0 26 0 C26 2.64 26 5.28 26 8 C26.98742188 7.97679687 27.97484375 7.95359375 28.9921875 7.9296875 C30.27351563 7.91164063 31.55484375 7.89359375 32.875 7.875 C34.78925781 7.84019531 34.78925781 7.84019531 36.7421875 7.8046875 C40 8 40 8 42 10 C42.1953125 12.8203125 42.1953125 12.8203125 42.125 16.125 C42.10695312 17.22070312 42.08890625 18.31640625 42.0703125 19.4453125 C42.04710937 20.28835937 42.02390625 21.13140625 42 22 C42.66 22 43.32 22 44 22 C44 28.6 44 35.2 44 42 C43.34 42 42.68 42 42 42 C42.020625 43.299375 42.04125 44.59875 42.0625 45.9375 C42.08399454 47.29165633 42.07148199 48.64756083 42 50 C40.00383446 51.99616554 36.18298037 51.40983427 33.4375 51.5625 C32.72658203 51.60568359 32.01566406 51.64886719 31.28320312 51.69335938 C29.52238088 51.79971777 27.7612168 51.90038846 26 52 C26.66 53.98 27.32 55.96 28 58 C18.1 58 8.2 58 -2 58 C-1.34 56.02 -0.68 54.04 0 52 C-1.07121094 51.93941406 -2.14242188 51.87882812 -3.24609375 51.81640625 C-4.64324391 51.73201463 -6.04037857 51.64736594 -7.4375 51.5625 C-8.14455078 51.52318359 -8.85160156 51.48386719 -9.58007812 51.44335938 C-14.88671875 51.11328125 -14.88671875 51.11328125 -16 50 C-16.14115161 47.32941149 -16.04247107 44.67567762 -16 42 C-16.66 42 -17.32 42 -18 42 C-18 35.4 -18 28.8 -18 22 C-17.34 22 -16.68 22 -16 22 C-16.02320313 21.15695313 -16.04640625 20.31390625 -16.0703125 19.4453125 C-16.08835937 18.34960938 -16.10640625 17.25390625 -16.125 16.125 C-16.14820313 15.03445312 -16.17140625 13.94390625 -16.1953125 12.8203125 C-16 10 -16 10 -14 8 C-10.7421875 7.8046875 -10.7421875 7.8046875 -6.875 7.875 C-4.95300781 7.90207031 -4.95300781 7.90207031 -2.9921875 7.9296875 C-1.51105469 7.96449219 -1.51105469 7.96449219 0 8 C0 5.36 0 2.72 0 0 Z " fill="#DBEFF7" transform="translate(19,3)"/>
<path d="M0 0 C0 6.6 0 13.2 0 20 C-8.58 20 -17.16 20 -26 20 C-26 13.73 -26 7.46 -26 1 C-22.04168727 0.83283144 -18.08335167 0.66624178 -14.125 0.5 C-12.43310547 0.42845703 -12.43310547 0.42845703 -10.70703125 0.35546875 C-9.63066406 0.31035156 -8.55429687 0.26523437 -7.4453125 0.21875 C-5.95281982 0.1559082 -5.95281982 0.1559082 -4.43017578 0.09179688 C-2.95418617 0.0360432 -1.47704224 0 0 0 Z " fill="#03485D" transform="translate(63,25)"/>
<path d="M0 0 C12.87 0.495 12.87 0.495 26 1 C26 7.27 26 13.54 26 20 C17.42 20 8.84 20 0 20 C0 13.4 0 6.8 0 0 Z " fill="#084E64" transform="translate(1,25)"/>
<path d="M0 0 C8.58 0 17.16 0 26 0 C26 6.27 26 12.54 26 19 C17.42 19 8.84 19 0 19 C0 12.73 0 6.46 0 0 Z " fill="#04485C" transform="translate(19,3)"/>
<path d="M0 0 C19.14 0 38.28 0 58 0 C57.67 1.65 57.34 3.3 57 5 C52.05 5.33 47.1 5.66 42 6 C42.66 7.98 43.32 9.96 44 12 C34.1 12 24.2 12 14 12 C14.66 10.02 15.32 8.04 16 6 C11.05 5.67 6.1 5.34 1 5 C0.67 3.35 0.34 1.7 0 0 Z " fill="#00485F" transform="translate(3,49)"/>
<path d="M0 0 C7.59 0 15.18 0 23 0 C23 1.65 23 3.3 23 5 C22.360625 5.268125 21.72125 5.53625 21.0625 5.8125 C18.66868314 6.88667752 18.66868314 6.88667752 18 10 C14 10 14 10 12.375 8.5 C11.92125 8.005 11.4675 7.51 11 7 C10.34 7 9.68 7 9 7 C7.68 9.31 6.36 11.62 5 14 C3.0625 13.6875 3.0625 13.6875 1 13 C0 10 0 10 0 0 Z " fill="#074C60" transform="translate(20,5)"/>
<path d="M0 0 C3 4.17857143 3 4.17857143 3 7 C-6.9 7 -16.8 7 -27 7 C-25 1 -25 1 -24 0 C-20.74404906 -0.38186298 -17.4612489 -0.47029887 -14.1875 -0.625 C-12.81368164 -0.70234375 -12.81368164 -0.70234375 -11.41210938 -0.78125 C-10.52716797 -0.82507812 -9.64222656 -0.86890625 -8.73046875 -0.9140625 C-7.91989014 -0.9548291 -7.10931152 -0.9955957 -6.27416992 -1.03759766 C-3.96957031 -0.99949692 -2.16671845 -0.78572345 0 0 Z " fill="#003747" transform="translate(44,54)"/>
<path d="M0 0 C1.32 0 2.64 0 4 0 C4 5.28 4 10.56 4 16 C-3.92 16 -11.84 16 -20 16 C-19.01 15.67 -18.02 15.34 -17 15 C-17 13.02 -17 11.04 -17 9 C-16.01 9 -15.02 9 -14 9 C-14 10.98 -14 12.96 -14 15 C-13.34 15 -12.68 15 -12 15 C-12 11.04 -12 7.08 -12 3 C-10.68 3 -9.36 3 -8 3 C-8 6.96 -8 10.92 -8 15 C-7.34 15 -6.68 15 -6 15 C-6 11.7 -6 8.4 -6 5 C-4.68 5 -3.36 5 -2 5 C-2 8.3 -2 11.6 -2 15 C-1.34 15 -0.68 15 0 15 C0 10.05 0 5.1 0 0 Z " fill="#1B617C" transform="translate(57,29)"/>
<path d="M0 0 C12.87 0.495 12.87 0.495 26 1 C26 1.33 26 1.66 26 2 C22.7 2 19.4 2 16 2 C15.67 2.66 15.34 3.32 15 4 C14.030625 4.144375 13.06125 4.28875 12.0625 4.4375 C10.5465625 4.7159375 10.5465625 4.7159375 9 5 C6.67642489 7.88443746 6.67642489 7.88443746 7 11.5 C7.6532391 15.2563938 7.6532391 15.2563938 11.0625 16.9375 C12.5165625 17.4634375 12.5165625 17.4634375 14 18 C14 18.33 14 18.66 14 19 C9.38 19.33 4.76 19.66 0 20 C0 13.4 0 6.8 0 0 Z " fill="#00445A" transform="translate(1,25)"/>
<path d="M0 0 C1.9375 1.625 1.9375 1.625 3 4 C2.875 7.625 2.875 7.625 2 11 C-1.70415293 13.46943529 -3.62144505 13.46913089 -8 13 C-10 11.4375 -10 11.4375 -11 9 C-10.93375803 5.22420799 -10.78061285 2.92517078 -8.3125 0 C-5.10029355 -1.38906225 -3.3063364 -1.05521374 0 0 Z " fill="#61ADE7" transform="translate(18,29)"/>
<path d="M0 0 C1.32 0 2.64 0 4 0 C3.67 1.65 3.34 3.3 3 5 C2.01 5.33 1.02 5.66 0 6 C-0.33 6.99 -0.66 7.98 -1 9 C-5 9 -5 9 -6.625 7.5 C-7.07875 7.005 -7.5325 6.51 -8 6 C-8.66 6 -9.32 6 -10 6 C-11.32 8.31 -12.64 10.62 -14 13 C-15.32 12.67 -16.64 12.34 -18 12 C-16.76632058 8.29896173 -14.73190399 6.73190399 -12 4 C-11.67 3.01 -11.34 2.02 -11 1 C-9.0625 1.375 -9.0625 1.375 -7 2 C-6.67 2.66 -6.34 3.32 -6 4 C-4.35 3.67 -2.7 3.34 -1 3 C-0.67 2.01 -0.34 1.02 0 0 Z " fill="#C9AF67" transform="translate(39,6)"/>
<path d="M0 0 C2.375 0.3125 2.375 0.3125 5 1 C7 4 7 4 6.8125 7.5625 C6 11 6 11 3 13 C0.66800612 13.07905064 -1.66832622 13.08798769 -4 13 C-3.25 11.0625 -3.25 11.0625 -2 9 C0.125 8.25 0.125 8.25 2 8 C1.855625 7.4225 1.71125 6.845 1.5625 6.25 C1.04166667 4.16666667 0.52083333 2.08333333 0 0 Z " fill="#F6D332" transform="translate(14,29)"/>
<path d="M0 0 C2.475 0.495 2.475 0.495 5 1 C5 5.29 5 9.58 5 14 C-2.59 14 -10.18 14 -18 14 C-18 13.67 -18 13.34 -18 13 C-11.73 13 -5.46 13 1 13 C0.505 6.565 0.505 6.565 0 0 Z " fill="#C5E5F1" transform="translate(56,12)"/>
<path d="M0 0 C1.32 0 2.64 0 4 0 C4 3.96 4 7.92 4 12 C2.68 12 1.36 12 0 12 C0 8.04 0 4.08 0 0 Z " fill="#D9C029" transform="translate(45,32)"/>
<path d="M0 0 C0.99 0 1.98 0 3 0 C3 4.95 3 9.9 3 15 C2.01 15 1.02 15 0 15 C0 10.05 0 5.1 0 0 Z " fill="#5AAFF3" transform="translate(57,29)"/>
<path d="M0 0 C1.32 0 2.64 0 4 0 C4 3.3 4 6.6 4 10 C2.68 10 1.36 10 0 10 C0 6.7 0 3.4 0 0 Z " fill="#59BB5F" transform="translate(51,34)"/>
<path d="M0 0 C-1 3 -1 3 -3 4 C-5.3329866 4.04022391 -7.66706666 4.04320247 -10 4 C-9.25 2.0625 -9.25 2.0625 -8 0 C-5.05360248 -1.27677226 -3.00864103 -0.96706319 0 0 Z " fill="#EE655B" transform="translate(20,38)"/>
<path d="M0 0 C1.32 0.66 2.64 1.32 4 2 C3.67 3.32 3.34 4.64 3 6 C1.35 5.67 -0.3 5.34 -2 5 C-1.125 1.125 -1.125 1.125 0 0 Z " fill="#E8EAE9" transform="translate(13,32)"/>
<path d="M0 0 C1.32 0 2.64 0 4 0 C3.67 1.65 3.34 3.3 3 5 C1.35 5.33 -0.3 5.66 -2 6 C-1.34 4.02 -0.68 2.04 0 0 Z " fill="#D6C0AE" transform="translate(39,6)"/>
<path d="M0 0 C1.32 0 2.64 0 4 0 C3.67 1.65 3.34 3.3 3 5 C1.35 5 -0.3 5 -2 5 C-1.34 3.35 -0.68 1.7 0 0 Z " fill="#033747" transform="translate(57,49)"/>
<path d="M0 0 C1.875 0.125 1.875 0.125 4 1 C5.25 4.0625 5.25 4.0625 6 7 C5.01 7 4.02 7 3 7 C2.01 4.69 1.02 2.38 0 0 Z " fill="#002834" transform="translate(41,54)"/>
<path d="M0 0 C0.99 0 1.98 0 3 0 C3 1.98 3 3.96 3 6 C2.01 6 1.02 6 0 6 C0 4.02 0 2.04 0 0 Z " fill="#F25F53" transform="translate(40,38)"/>
</svg>
