<?xml version="1.0" encoding="UTF-8"?>
<svg version="1.1" xmlns="http://www.w3.org/2000/svg" width="64" height="64">
<path d="M0 0 C3.30056072 1.65028036 5.24915523 2.94199146 7.375 5.9375 C8 8 8 8 8 13 C12.95 13 17.9 13 23 13 C23 14.98 23 16.96 23 19 C24.32 19.33 25.64 19.66 27 20 C27.02464775 25.53588533 27.04283496 31.071739 27.05493164 36.60766602 C27.05997244 38.4924373 27.06680498 40.37720465 27.07543945 42.26196289 C27.08751617 44.96501636 27.09323068 47.66801831 27.09765625 50.37109375 C27.10281754 51.21900986 27.10797882 52.06692596 27.11329651 52.9405365 C27.11349195 54.96071068 27.06206211 56.98077934 27 59 C25.2990219 60.7009781 23.08397125 60.16929662 20.7578125 60.2109375 C19.69175781 60.23929688 18.62570313 60.26765625 17.52734375 60.296875 C15.26708939 60.34877521 13.00664784 60.3931005 10.74609375 60.4296875 C9.67746094 60.460625 8.60882813 60.4915625 7.5078125 60.5234375 C6.03272217 60.5531665 6.03272217 60.5531665 4.52783203 60.58349609 C1.61787355 61.06296192 0.8695691 61.81085254 -1 64 C-2.9375 64.3984375 -2.9375 64.3984375 -5 64.375 C-6.0209375 64.38660156 -6.0209375 64.38660156 -7.0625 64.3984375 C-9 64 -9 64 -10.27685547 62.50488281 C-12.67704681 60.40871117 -14.35361118 60.58700734 -17.5078125 60.5234375 C-18.57644531 60.4925 -19.64507813 60.4615625 -20.74609375 60.4296875 C-21.86113281 60.41164062 -22.97617187 60.39359375 -24.125 60.375 C-26.33603093 60.32423006 -28.54698089 60.26975043 -30.7578125 60.2109375 C-31.7389502 60.19337402 -32.72008789 60.17581055 -33.73095703 60.15771484 C-36 60 -36 60 -37 59 C-37.08865208 56.1156618 -37.11521296 53.25537842 -37.09765625 50.37109375 C-37.0962413 49.50686295 -37.09482635 48.64263214 -37.09336853 47.75221252 C-37.08775239 44.98060708 -37.07519719 42.2090812 -37.0625 39.4375 C-37.05748708 37.5631522 -37.05292381 35.68880315 -37.04882812 33.81445312 C-37.03777772 29.20960456 -37.0205023 24.60481579 -37 20 C-35.68 19.67 -34.36 19.34 -33 19 C-33 17.02 -33 15.04 -33 13 C-28.05 13 -23.1 13 -18 13 C-17.67 10.69 -17.34 8.38 -17 6 C-11.82557026 -0.10317354 -7.74939468 -0.86764695 0 0 Z " fill="#ECEDED" transform="translate(37,0)"/>
<path d="M0 0 C3.30056072 1.65028036 5.24915523 2.94199146 7.375 5.9375 C8.11362282 8.37495531 8.14071838 10.46706921 8 13 C8.66 13 9.32 13 10 13 C10 13.99 10 14.98 10 16 C12.97 16 15.94 16 19 16 C19 16.66 19 17.32 19 18 C15.7 18.33 12.4 18.66 9 19 C12.3 19.33 15.6 19.66 19 20 C19 20.66 19 21.32 19 22 C15.04 22.33 11.08 22.66 7 23 C10.96 23.33 14.92 23.66 19 24 C19 24.66 19 25.32 19 26 C13.06 26.33 7.12 26.66 1 27 C6.94 27.33 12.88 27.66 19 28 C19 28.66 19 29.32 19 30 C11.74 30 4.48 30 -3 30 C-3 29.34 -3 28.68 -3 28 C-4.32 28 -5.64 28 -7 28 C-7 28.66 -7 29.32 -7 30 C-14.26 30 -21.52 30 -29 30 C-29 29.34 -29 28.68 -29 28 C-23.06 27.67 -17.12 27.34 -11 27 C-16.94 26.67 -22.88 26.34 -29 26 C-29 25.34 -29 24.68 -29 24 C-25.04 23.67 -21.08 23.34 -17 23 C-20.96 22.67 -24.92 22.34 -29 22 C-29 21.34 -29 20.68 -29 20 C-25.7 19.67 -22.4 19.34 -19 19 C-22.3 18.67 -25.6 18.34 -29 18 C-29 17.34 -29 16.68 -29 16 C-26.03 16 -23.06 16 -20 16 C-20 15.01 -20 14.02 -20 13 C-19.34 13 -18.68 13 -18 13 C-17.9071875 11.4221875 -17.9071875 11.4221875 -17.8125 9.8125 C-16.85862552 5.33662744 -15.46953013 3.87717133 -12 1 C-8.28986322 -0.85506839 -4.04907177 -0.45334699 0 0 Z " fill="#D7D7D7" transform="translate(37,0)"/>
<path d="M0 0 C0.99 0 1.98 0 3 0 C3.33 11.22 3.66 22.44 4 34 C10.68549029 34.20952369 10.68549029 34.20952369 17.37182617 34.38793945 C22.47410164 34.58901676 25.72470918 34.97376473 30 38 C32.7004039 37.35336433 32.7004039 37.35336433 35 36 C37.40541929 34.79729036 39.10366591 34.79683337 41.7890625 34.68359375 C43.06064209 34.62643188 43.06064209 34.62643188 44.35791016 34.56811523 C45.4360498 34.52501221 46.51418945 34.48190918 47.625 34.4375 C51.04875 34.293125 54.4725 34.14875 58 34 C58.33 22.78 58.66 11.56 59 0 C60.32 0.33 61.64 0.66 63 1 C63.02464775 6.53588533 63.04283496 12.071739 63.05493164 17.60766602 C63.05997244 19.4924373 63.06680498 21.37720465 63.07543945 23.26196289 C63.08751617 25.96501636 63.09323068 28.66801831 63.09765625 31.37109375 C63.10281754 32.21900986 63.10797882 33.06692596 63.11329651 33.9405365 C63.11349195 35.96071068 63.06206211 37.98077934 63 40 C61.2990219 41.7009781 59.08397125 41.16929662 56.7578125 41.2109375 C55.69175781 41.23929688 54.62570313 41.26765625 53.52734375 41.296875 C51.26708939 41.34877521 49.00664784 41.3931005 46.74609375 41.4296875 C45.67746094 41.460625 44.60882813 41.4915625 43.5078125 41.5234375 C42.03272217 41.5531665 42.03272217 41.5531665 40.52783203 41.58349609 C37.61787355 42.06296192 36.8695691 42.81085254 35 45 C33.0625 45.3984375 33.0625 45.3984375 31 45.375 C29.9790625 45.38660156 29.9790625 45.38660156 28.9375 45.3984375 C27 45 27 45 25.72314453 43.50488281 C23.32295319 41.40871117 21.64638882 41.58700734 18.4921875 41.5234375 C17.42355469 41.4925 16.35492187 41.4615625 15.25390625 41.4296875 C14.13886719 41.41164062 13.02382812 41.39359375 11.875 41.375 C9.66396907 41.32423006 7.45301911 41.26975043 5.2421875 41.2109375 C4.2610498 41.19337402 3.27991211 41.17581055 2.26904297 41.15771484 C0 41 0 41 -1 40 C-1.10106874 37.12735944 -1.13969672 34.27926372 -1.1328125 31.40625 C-1.13376923 30.54439087 -1.13472595 29.68253174 -1.13571167 28.79455566 C-1.1363935 26.96866788 -1.13453904 25.14277769 -1.13037109 23.31689453 C-1.12502286 20.51198922 -1.13031599 17.70724405 -1.13671875 14.90234375 C-1.13605797 13.13281214 -1.13477681 11.36328064 -1.1328125 9.59375 C-1.13483673 8.74897095 -1.13686096 7.90419189 -1.13894653 7.03381348 C-1.11495031 1.11495031 -1.11495031 1.11495031 0 0 Z " fill="#00BEBD" transform="translate(1,19)"/>
<path d="M0 0 C3.95403662 0.26360244 5.65370756 0.86143155 8.75 3.25 C11.23386059 6.97579089 11.1304212 8.83711402 10.75 13.25 C9.39753111 16.45321578 8.46441282 17.84452246 5.4375 19.5625 C2.26245307 20.37472131 0.01194647 20.72570053 -3.25 20.25 C-6.21916217 18.20457717 -7.82388423 16.55188962 -8.95703125 13.08984375 C-9.39024755 10.66464222 -9.56891617 8.69502398 -9.25 6.25 C-6.875 3.25 -6.875 3.25 -4.25 1.25 C-3.25 0.25 -3.25 0.25 0 0 Z " fill="#FFB215" transform="translate(31.25,2.75)"/>
<path d="M0 0 C3.2138627 1.60693135 5.16978419 2.94336169 7.375 5.75 C8.73494071 10.64578657 8.51165247 14.64412095 6.75 19.3125 C4.49669153 22.77293801 3.03744509 24.49841524 -1.046875 25.50390625 C-6.23008184 26.33008855 -9.53739903 26.08131972 -14 23 C-17.56476717 19.06646381 -18.35342091 15.3617938 -18.28515625 10.06640625 C-17.81323556 6.64659744 -16.20577598 4.5734053 -14 2 C-9.57292103 -0.75044055 -5.05759343 -0.65413669 0 0 Z M-14 8 C-14.33 8.33 -14.66 8.66 -15 9 C-15.13523576 13.67529333 -14.53397953 17.16565698 -12 21.125 C-8.29808006 23.43869996 -6.29990015 23.38477889 -2.08984375 22.65625 C0.78129035 21.75466023 2.24436567 20.41399721 4 18 C5.56935594 14.86128812 5.35201103 12.46144178 5 9 C1.79520377 5.12050982 -0.30633597 3.19173555 -5.3125 2.625 C-9.90598187 3.09213375 -11.11447985 4.52040218 -14 8 Z " fill="#FDFBF7" transform="translate(37,0)"/>
<path d="M0 0 C0.721875 0.00257812 1.44375 0.00515625 2.1875 0.0078125 C2.909375 0.00523438 3.63125 0.00265625 4.375 0 C6.1875 0.1328125 6.1875 0.1328125 7.1875 1.1328125 C7.28623816 3.13080822 7.31721799 5.13238408 7.3125 7.1328125 C7.31507812 8.2259375 7.31765625 9.3190625 7.3203125 10.4453125 C7.1875 13.1328125 7.1875 13.1328125 6.1875 14.1328125 C4.375 14.265625 4.375 14.265625 2.1875 14.2578125 C1.465625 14.26039062 0.74375 14.26296875 0 14.265625 C-1.8125 14.1328125 -1.8125 14.1328125 -2.8125 13.1328125 C-2.91123816 11.13481678 -2.94221799 9.13324092 -2.9375 7.1328125 C-2.94007812 6.0396875 -2.94265625 4.9465625 -2.9453125 3.8203125 C-2.76653614 0.20272032 -2.76653614 0.20272032 0 0 Z " fill="#51D9D7" transform="translate(48.8125,31.8671875)"/>
<path d="M0 0 C1.65 0 3.3 0 5 0 C5 2.64 5 5.28 5 8 C3.68 8 2.36 8 1 8 C0.67 5.36 0.34 2.72 0 0 Z " fill="#FFFFFF" transform="translate(29,11)"/>
</svg>
