<?xml version="1.0" encoding="UTF-8"?>
<rect width="100%" height="100%" fill="white"/>
<svg version="1.1" xmlns="http://www.w3.org/2000/svg" width="2866" height="672">
<path d="M0 0 C1.10616541 -0.00085442 2.21233082 -0.00170885 3.35201639 -0.00258917 C7.0415333 -0.00423025 10.73100428 0.00125489 14.42051697 0.00672913 C17.07205813 0.00701132 19.72359651 0.00689662 22.37513733 0.00628662 C28.07499729 0.0057636 33.77484576 0.00888723 39.47470284 0.01452446 C47.71562468 0.02266951 55.95654099 0.02525776 64.19746643 0.02651245 C77.56950855 0.02869825 90.94154456 0.03534554 104.31358337 0.04481506 C117.29926015 0.05400139 130.28493526 0.06107625 143.27061462 0.06532288 C144.47232057 0.06571696 144.47232057 0.06571696 145.69830341 0.06611901 C149.71758286 0.06742409 153.73686232 0.06868779 157.75614178 0.06993091 C191.0725763 0.08028883 224.38899944 0.09871922 257.70542908 0.12025452 C257.70542908 28.50025452 257.70542908 56.88025452 257.70542908 86.12025452 C229.32542908 86.12025452 200.94542908 86.12025452 171.70542908 86.12025452 C171.70542908 141.23025452 171.70542908 196.34025452 171.70542908 253.12025452 C143.65542908 253.12025452 115.60542908 253.12025452 86.70542908 253.12025452 C86.70542908 281.17025452 86.70542908 309.22025452 86.70542908 338.12025452 C62.26133805 338.24058094 62.26133805 338.24058094 51.7308197 338.26673889 C44.58402203 338.28457666 37.43734117 338.30553101 30.29063416 338.34657288 C24.519903 338.37950022 18.74929734 338.39717691 12.97847939 338.40488625 C10.79199565 338.41037051 8.60551771 338.42107706 6.41908836 338.43744469 C-10.67870324 338.56018712 -27.18433284 337.40311347 -43.66957092 332.49525452 C-44.52695862 332.24364563 -45.38434631 331.99203674 -46.26771545 331.73280334 C-89.74224404 318.45309521 -125.81303958 288.34091886 -147.20082092 248.28041077 C-156.52360448 230.12620305 -162.35713638 211.27146631 -165.29457092 191.12025452 C-165.49373108 189.7648053 -165.49373108 189.7648053 -165.69691467 188.38197327 C-170.73978221 145.06857678 -158.09915031 100.51948429 -131.63050842 66.01087952 C-128.64355242 62.31464634 -125.50629512 58.78670715 -122.28285217 55.29603577 C-120.68750272 53.55024078 -119.1952136 51.78737349 -117.73207092 49.93275452 C-89.73373619 17.62698368 -41.93204928 -0.11969373 0 0 Z M-54.29457092 109.12025452 C-54.92878967 109.6603717 -55.56300842 110.20048889 -56.21644592 110.75697327 C-70.53841429 123.79784814 -79.20313574 145.10282326 -80.29457092 164.12025452 C-80.34742249 164.91302795 -80.40027405 165.70580139 -80.45472717 166.52259827 C-81.18182384 187.54517585 -73.68147885 207.6914875 -59.79457092 223.37025452 C-58.30070016 224.95937207 -56.80117191 226.54320096 -55.29457092 228.12025452 C-54.74285217 228.74673889 -54.19113342 229.37322327 -53.62269592 230.01869202 C-40.7464919 244.10602414 -19.89018742 251.53782453 -1.13703918 252.4690094 C4.43872959 252.62680877 10.01135804 252.57273564 15.58824158 252.51087952 C17.39674889 252.50497701 19.20526312 252.50090951 21.01377869 252.49867249 C27.619435 252.47794842 34.22494375 252.42210543 40.83042908 252.37025452 C55.63917908 252.28775452 70.44792908 252.20525452 85.70542908 252.12025452 C85.70542908 197.34025452 85.70542908 142.56025452 85.70542908 86.12025452 C71.63917908 86.07900452 57.57292908 86.03775452 43.08042908 85.99525452 C38.66587341 85.97704651 34.25131775 85.9588385 29.70298767 85.94007874 C25.68890535 85.93338314 25.68890535 85.93338314 21.67481995 85.92936707 C19.90959154 85.92632881 18.14436685 85.91936447 16.37916565 85.90910339 C-10.68402664 85.75987496 -33.49184349 90.49845819 -54.29457092 109.12025452 Z " fill="#5E69AF" transform="translate(332.29457092285156,166.87974548339844)"/>
<path d="M0 0 C19.8 0 39.6 0 60 0 C60.33 28.38 60.66 56.76 61 86 C62.98 83.69 64.96 81.38 67 79 C78.42350703 69.40837067 94.41674163 64.10589725 109.29296875 64.72265625 C126.60116402 66.49593455 141.06906945 71.5248504 153 85 C172.21969882 109.72166289 173.34168995 140.27732899 173.1953125 170.2890625 C173.19157237 172.57262039 173.18873014 174.85617991 173.18673706 177.13973999 C173.17917927 183.08748982 173.15960029 189.03513862 173.1373291 194.98284912 C173.11305854 202.15263787 173.10405222 209.3224608 173.09242249 216.49227905 C173.07316974 227.32825584 173.03479268 238.16401188 173 249 C153.2 249 133.4 249 113 249 C112.96261719 241.34296875 112.92523437 233.6859375 112.88671875 225.796875 C112.8564227 220.92966551 112.82526401 216.06249187 112.79101562 211.1953125 C112.73680424 203.47951112 112.68568963 195.76378063 112.65356445 188.04785156 C112.62744751 181.82316601 112.5869857 175.59872015 112.53681374 169.37418365 C112.5202017 167.00612635 112.50865233 164.63802763 112.50238609 162.26992035 C112.49268334 158.93848374 112.46455016 155.6076526 112.43237305 152.27636719 C112.43380814 151.30963074 112.43524323 150.34289429 112.4367218 149.34686279 C112.28629551 138.24649023 109.88042347 127.90407743 103 119 C97.1386852 113.7899424 90.20567564 112.69545484 82.5625 113.0625 C74.77175531 114.00088101 67.82098505 117.3355581 62.3032341 122.98187637 C59.58208749 127.19570891 60.17489933 132.20801391 60.22705078 137.06396484 C60.21642105 138.27428375 60.20579132 139.48460266 60.19483948 140.7315979 C60.17160572 144.03762464 60.17472808 147.34163123 60.18970728 150.64757109 C60.19910496 154.10700008 60.17462056 157.56618806 60.15377808 161.02554321 C60.11946963 167.57030669 60.11549554 174.1147206 60.12250316 180.65955603 C60.12963834 188.84475656 60.09613459 197.02972659 60.0625 205.21484375 C60.00270383 219.81004407 60.00423674 234.40444307 60 249 C40.2 249 20.4 249 0 249 C0 166.83 0 84.66 0 0 Z " fill="#1C2747" transform="translate(2527,252)"/>
<path d="M0 0 C-0.52505415 9.921193 -2.55953472 19.48597559 -4.5625 29.1875 C-4.89572359 30.82345755 -5.22840999 32.45952461 -5.56054688 34.09570312 C-6.36751497 38.06509086 -7.18172189 42.03292905 -8 46 C-8.68094727 45.8131665 -9.36189453 45.62633301 -10.06347656 45.43383789 C-43.01947055 36.41505163 -75.67606863 30.16458308 -107.75 46.125 C-123.38397243 55.11404982 -133.30042784 68.47962902 -138.03515625 85.88671875 C-143.96659016 109.88025207 -142.41846279 137.31263008 -129.9609375 158.96875 C-120.36103948 173.808433 -105.57915782 182.59982898 -88.61181641 186.84838867 C-79.61507694 188.75483182 -71.04176722 189.51044249 -61.8125 189.4375 C-61.14323486 189.43479095 -60.47396973 189.43208191 -59.78442383 189.42929077 C-43.59794382 189.33053998 -29.03317321 186.46660844 -13.87109375 180.953125 C-11 180 -11 180 -8 180 C-6.8544825 185.6038198 -5.71533787 191.20888346 -4.58203125 196.81518555 C-4.19575266 198.72146389 -3.80774729 200.62739319 -3.41796875 202.53295898 C-2.85741069 205.27497449 -2.30311262 208.01819296 -1.75 210.76171875 C-1.48751465 212.03543587 -1.48751465 212.03543587 -1.21972656 213.33488464 C-0.43028374 217.28023731 0.23028379 220.95204268 0 225 C-32.66228495 243.85905888 -80.78305404 243.42082224 -116.43457031 234.3828125 C-144.35030971 226.87995098 -170.26471934 209.13583404 -185 184 C-203.79229763 150.97033636 -207.92267699 109.7088342 -198.19140625 73.05859375 C-193.4205319 56.31012276 -186.01762886 41.57595963 -175 28 C-174.30132813 27.13503906 -173.60265625 26.27007812 -172.8828125 25.37890625 C-151.4550655 0.22288826 -118.15475775 -11.00373059 -86.125 -13.625 C-57.56429502 -15.35119645 -25.97771257 -12.98885629 0 0 Z " fill="#1C2747" transform="translate(834,266)"/>
<path d="M0 0 C9.12470216 8.16356686 15.45118508 16.79890665 20.9296875 27.62109375 C21.41308594 28.56339844 21.89648438 29.50570312 22.39453125 30.4765625 C33.47687868 54.35918964 32.95456198 84.49948119 24.76171875 109.1328125 C23.60903462 112.04623096 22.33866946 114.82366892 20.9296875 117.62109375 C20.25099609 119.01521484 20.25099609 119.01521484 19.55859375 120.4375 C16.10446919 127.16789447 11.89545017 132.92911283 6.9296875 138.62109375 C6.42179688 139.224375 5.91390625 139.82765625 5.390625 140.44921875 C-10.74851766 158.16089326 -35.78228753 165.27890904 -58.9453125 166.49609375 C-87.28404658 167.54549316 -112.90744877 161.22890898 -134.6484375 142.38671875 C-150.2656001 127.72766429 -160.04490433 105.86628738 -161.24731445 84.47167969 C-161.80427358 53.87665002 -161.80427358 53.87665002 -157.0703125 39.62109375 C-156.85068848 38.9559375 -156.63106445 38.29078125 -156.40478516 37.60546875 C-149.26428957 16.74491264 -134.97615202 -0.58599636 -115.2578125 -10.62890625 C-79.9023342 -27.93758165 -30.86508704 -25.89441507 0 0 Z M-89.23046875 31.4921875 C-100.55716815 43.03060091 -102.42557547 59.29708588 -102.37524414 74.75854492 C-102.04813891 89.62852953 -98.88423502 103.51966034 -88.453125 114.484375 C-79.96321899 122.09745465 -70.04353264 122.24654134 -59.23144531 121.80029297 C-51.64049482 121.17085808 -45.03153683 117.29975002 -40.0703125 111.62109375 C-28.44667663 95.52893748 -27.28407108 75.24755019 -30.3203125 56.14453125 C-32.81432787 44.42785487 -37.53451967 34.07029837 -47.6328125 27.18359375 C-61.18638345 19.78886431 -77.65216545 21.46324124 -89.23046875 31.4921875 Z " fill="#1C2747" transform="translate(1017.0703125,338.37890625)"/>
<path d="M0 0 C16.71045978 15.5983302 23.99335246 40.10311748 24.81723595 62.54397297 C24.84889645 65.35921911 24.85030747 68.17287361 24.84008789 70.98828125 C24.84023392 72.05258865 24.84037994 73.11689606 24.8405304 74.2134552 C24.83983732 77.70873092 24.83207337 81.20395242 24.82421875 84.69921875 C24.82235242 87.1315915 24.82092953 89.56396463 24.81993103 91.99633789 C24.8161228 98.38150073 24.80630702 104.76664063 24.79522705 111.15179443 C24.7831725 118.82195054 24.77860262 126.49211434 24.77277374 134.16227722 C24.76309433 145.79960699 24.74392589 157.43688648 24.7265625 169.07421875 C5.2565625 169.07421875 -14.2134375 169.07421875 -34.2734375 169.07421875 C-34.32242187 161.86191406 -34.37140625 154.64960938 -34.421875 147.21875 C-34.45729108 142.62954389 -34.49326811 138.04035572 -34.53125 133.45117188 C-34.59138591 126.17881947 -34.64952745 118.90649197 -34.6953125 111.6340332 C-34.73238631 105.76599814 -34.77880428 99.89810242 -34.83150101 94.03018761 C-34.8499282 91.79971466 -34.86507844 89.56921198 -34.87678146 87.33869362 C-34.24980368 61.13477195 -34.24980368 61.13477195 -45.65234375 38.4765625 C-50.87282189 33.96053443 -57.57993954 32.94073019 -64.2734375 33.07421875 C-72.81898327 34.12288886 -79.13115002 37.01456294 -85.2734375 43.07421875 C-87.456309 46.348526 -87.52869143 47.30823593 -87.5519104 51.10453796 C-87.56307388 52.14360291 -87.57423737 53.18266785 -87.58573914 54.2532196 C-87.58789932 55.39257462 -87.59005951 56.53192963 -87.59228516 57.70581055 C-87.60735359 59.50600143 -87.60735359 59.50600143 -87.62272644 61.34255981 C-87.64834187 64.63363728 -87.66518263 67.9245419 -87.67815447 71.21567893 C-87.69377475 74.65505123 -87.72056846 78.09433587 -87.7461853 81.53364563 C-87.7929927 88.04650917 -87.82972727 94.55938916 -87.86285818 101.07233506 C-87.90481311 109.21429935 -87.96018625 117.35616515 -88.015625 125.49804688 C-88.11446986 140.02338355 -88.19298741 154.54874268 -88.2734375 169.07421875 C-107.7434375 169.07421875 -127.2134375 169.07421875 -147.2734375 169.07421875 C-147.2734375 109.67421875 -147.2734375 50.27421875 -147.2734375 -10.92578125 C-128.4634375 -10.92578125 -109.6534375 -10.92578125 -90.2734375 -10.92578125 C-89.7784375 -1.52078125 -89.7784375 -1.52078125 -89.2734375 8.07421875 C-87.9740625 6.54796875 -86.6746875 5.02171875 -85.3359375 3.44921875 C-63.43023799 -20.82188493 -24.288461 -20.57424618 0 0 Z " fill="#1C2747" transform="translate(1225.2734375,331.92578125)"/>
<path d="M0 0 C14.70559402 14.12984482 20.36457665 33.03854352 20.81547928 52.94816017 C20.87409233 59.14209525 20.83625368 65.33349192 20.78515625 71.52734375 C20.7776798 74.21448072 20.77179628 76.90157474 20.76800537 79.5887146 C20.75568586 85.88875226 20.72301776 92.18850465 20.68260741 98.48841798 C20.63310138 106.38154637 20.61152586 114.27472332 20.58984375 122.16796875 C20.55114405 136.21246049 20.47097518 150.25633186 20.39453125 164.30078125 C1.58453125 164.30078125 -17.22546875 164.30078125 -36.60546875 164.30078125 C-37.10046875 156.87578125 -37.10046875 156.87578125 -37.60546875 149.30078125 C-39.11109375 150.47640625 -40.61671875 151.65203125 -42.16796875 152.86328125 C-59.10377986 165.12489545 -79.62364718 170.29063606 -100.41796875 167.67578125 C-113.91666426 165.13108335 -124.89644604 158.87761275 -133.0390625 147.75 C-141.57049131 134.4103345 -143.37494972 119.36919443 -141.10546875 103.890625 C-138.30325368 91.55132569 -133.00444734 82.54253785 -122.64453125 75.203125 C-98.0168028 59.84667428 -66.59941181 62.00926993 -38.60546875 61.30078125 C-39.36589129 47.83749201 -39.36589129 47.83749201 -45.60546875 36.30078125 C-55.37317864 28.17277717 -67.03481828 27.63208215 -79.16015625 28.578125 C-90.38853538 29.6530046 -101.05981849 32.3552108 -111.3828125 36.9609375 C-114.60546875 38.30078125 -114.60546875 38.30078125 -117.60546875 38.30078125 C-120.507715 28.33194344 -123.41008597 18.36130751 -125.98046875 8.30078125 C-126.29757812 7.06328125 -126.6146875 5.82578125 -126.94140625 4.55078125 C-127.52835188 1.67820029 -127.74906567 -0.78309662 -127.60546875 -3.69921875 C-89.9922256 -23.22806082 -34.22144071 -29.81223605 0 0 Z M-58.54296875 96.55078125 C-59.57615234 96.66035156 -60.60933594 96.76992188 -61.67382812 96.8828125 C-69.33169067 97.80427791 -76.56144107 99.18065288 -82.10546875 104.86328125 C-84.77210413 109.19656374 -85.14320469 113.31450252 -84.60546875 118.30078125 C-82.81738542 122.4416058 -80.27419285 124.73267438 -76.60546875 127.30078125 C-65.40676918 131.03368111 -53.11500276 127.63398052 -42.60546875 123.30078125 C-40.3496545 122.15930504 -40.3496545 122.15930504 -38.60546875 120.30078125 C-38.05382862 117.59733714 -38.05382862 117.59733714 -38.21484375 114.5390625 C-38.22773437 113.42080078 -38.240625 112.30253906 -38.25390625 111.15039062 C-38.28742188 109.98314453 -38.3209375 108.81589844 -38.35546875 107.61328125 C-38.37351562 106.43443359 -38.3915625 105.25558594 -38.41015625 104.04101562 C-38.45735016 101.12679199 -38.52317798 98.21419094 -38.60546875 95.30078125 C-45.3400766 95.13908598 -51.8596906 95.74496648 -58.54296875 96.55078125 Z " fill="#1C2747" transform="translate(1934.60546875,336.69921875)"/>
<path d="M0 0 C15.15470857 14.43305578 21.8345441 34.4099082 22.515625 54.98828125 C22.53652612 56.57546012 22.55211712 58.16271747 22.5625 59.75 C22.5934375 60.86858398 22.5934375 60.86858398 22.625 62.00976562 C22.68821597 71.78453476 20.80575198 80.48248677 19.3125 90.4375 C-15.0075 90.4375 -49.3275 90.4375 -84.6875 90.4375 C-80.30539591 108.02039612 -80.30539591 108.02039612 -67.9140625 119.48828125 C-59.28469798 124.17815327 -50.56441155 124.80184718 -40.875 124.75 C-39.23446655 124.74262817 -39.23446655 124.74262817 -37.56079102 124.73510742 C-22.69101986 124.52427303 -8.82401592 122.28658835 5.22265625 117.42578125 C8.3125 116.4375 8.3125 116.4375 11.3125 116.4375 C12.33746852 121.50761682 13.35243719 126.57959372 14.3581543 131.65356445 C14.70175836 133.3797001 15.04809801 135.10529354 15.3972168 136.83032227 C15.89830668 139.30868572 16.38955474 141.78882697 16.87890625 144.26953125 C17.03718399 145.04150345 17.19546173 145.81347565 17.35853577 146.60884094 C18.42637171 152.09588488 18.42637171 152.09588488 17.3125 155.4375 C-10.82381988 171.57839824 -51.88408746 173.31023274 -82.6875 165.625 C-104.54607717 159.17376587 -123.70087546 146.31571017 -134.8371582 125.99438477 C-148.29510761 100.13270782 -149.28873802 68.17641595 -141.04443359 40.51855469 C-137.16439943 28.41334753 -131.11115336 17.91830507 -122.6875 8.4375 C-122.12289062 7.80199219 -121.55828125 7.16648437 -120.9765625 6.51171875 C-91.15686742 -25.05795844 -32.82172316 -27.76872556 0 0 Z M-80.6875 29.4375 C-85.45040078 36.737647 -86.6875 43.73229684 -86.6875 52.4375 C-69.8575 52.4375 -53.0275 52.4375 -35.6875 52.4375 C-35.27128394 38.61632798 -35.27128394 38.61632798 -41.59375 27.3359375 C-48.41590988 21.15017313 -52.98148246 20.02888363 -62.20703125 20.19140625 C-69.8791114 20.73387656 -75.56945726 23.65528378 -80.6875 29.4375 Z " fill="#1C2747" transform="translate(2305.6875,335.5625)"/>
<path d="M0 0 C15.5622878 14.58431688 22.73798183 34.05688852 23.734375 55.16796875 C23.775625 55.98007812 23.816875 56.7921875 23.859375 57.62890625 C24.01094046 63.786253 23.46916423 69.86040226 22.859375 75.98046875 C22.78098389 76.79322266 22.70259277 77.60597656 22.62182617 78.44335938 C22.53779541 79.22517578 22.45376465 80.00699219 22.3671875 80.8125 C22.29387207 81.50706299 22.22055664 82.20162598 22.14501953 82.91723633 C21.63075005 85.7359345 20.64043971 88.44977463 19.734375 91.16796875 C-14.255625 91.16796875 -48.245625 91.16796875 -83.265625 91.16796875 C-80.68303814 102.35917849 -78.46599771 111.73468575 -69.32421875 118.921875 C-51.71051475 129.58368065 -25.45924386 126.73134107 -6.265625 122.16796875 C-2.17757872 120.98636512 1.7947916 119.58718891 5.765625 118.05859375 C8.734375 117.16796875 8.734375 117.16796875 12.734375 118.16796875 C15.044375 130.37796875 17.354375 142.58796875 19.734375 155.16796875 C-11.40045227 170.73538239 -51.05296665 175.30750417 -84.75 165.3515625 C-107.04676183 157.84498602 -123.7387178 144.95613122 -134.8828125 124.1484375 C-147.83619577 98.01611454 -147.39131214 65.94768841 -139.078125 38.48046875 C-134.33089584 25.18259241 -127.25030583 15.03466221 -117.265625 5.16796875 C-116.60949219 4.50152344 -115.95335937 3.83507812 -115.27734375 3.1484375 C-86.50558619 -24.14468584 -29.66009983 -26.46198273 0 0 Z M-74.015625 27.41796875 C-80.76517085 35.66741368 -83.265625 42.46248389 -83.265625 53.16796875 C-66.435625 53.16796875 -49.605625 53.16796875 -32.265625 53.16796875 C-31.1004007 43.84617432 -31.50673307 37.83564966 -36.76953125 30.02734375 C-39.95795569 26.06470659 -43.41026588 22.78642179 -48.265625 21.16796875 C-58.33498919 20.37846847 -66.07559067 20.92157702 -74.015625 27.41796875 Z " fill="#1C2747" transform="translate(1423.265625,334.83203125)"/>
<path d="M0 0 C63.36 0 126.72 0 192 0 C192 16.17 192 32.34 192 49 C170.55 49 149.1 49 127 49 C127 115 127 181 127 249 C106.87 249 86.74 249 66 249 C66 183 66 117 66 49 C44.22 49 22.44 49 0 49 C0 32.83 0 16.66 0 0 Z " fill="#1C2747" transform="translate(1969,252)"/>
<path d="M0 0 C19.8 0 39.6 0 60 0 C60 15.51 60 31.02 60 47 C76.83 47 93.66 47 111 47 C111 62.18 111 77.36 111 93 C94.17 93 77.34 93 60 93 C60.06178209 106.66817213 60.06178209 106.66817213 60.16015625 120.3359375 C60.20841988 125.91439077 60.25249131 131.49264735 60.27099609 137.07128906 C60.28619315 141.57137009 60.32069245 146.07093489 60.36830902 150.57078552 C60.38309147 152.2834371 60.39103921 153.9961624 60.39188385 155.70887756 C60.14495348 168.00549603 60.14495348 168.00549603 65 179 C70.57634698 183.20302636 76.07329851 183.58205332 82.875 183.375 C83.75542969 183.36210937 84.63585938 183.34921875 85.54296875 183.3359375 C90.86399389 183.2098095 95.95937089 182.80487241 101.125 181.4375 C103 181 103 181 107 181 C108.73589405 194.65199833 110.40548823 208.24422775 111 222 C105.05561399 224.87884413 99.35828763 226.93134648 92.875 228.1875 C92.02389648 228.35330566 91.17279297 228.51911133 90.29589844 228.68994141 C66.64831506 232.95404896 42.47970891 232.78581112 22 219 C9.69444511 210.31372596 3.74383097 195.330955 1 181 C0.21264612 175.53360078 -0.14110346 170.26551544 -0.11352539 164.74804688 C-0.11367142 163.96659302 -0.11381744 163.18513916 -0.1139679 162.38000488 C-0.11327755 159.82622389 -0.10552675 157.27251808 -0.09765625 154.71875 C-0.09578895 152.93656453 -0.09436652 151.15437855 -0.09336853 149.37219238 C-0.08956796 144.70335448 -0.07975891 140.03454816 -0.06866455 135.36572266 C-0.05839731 130.59277778 -0.05385957 125.81982776 -0.04882812 121.046875 C-0.03813423 111.69790063 -0.02055759 102.34895789 0 93 C-8.91 93 -17.82 93 -27 93 C-27 77.82 -27 62.64 -27 47 C-18.09 47 -9.18 47 0 47 C0 31.49 0 15.98 0 0 Z " fill="#1C2747" transform="translate(1660,274)"/>
<path d="M0 0 C0.7729541 0.19682373 1.5459082 0.39364746 2.34228516 0.59643555 C7.58807772 2.02571243 12.1402896 4.06576176 16.9375 6.625 C17.04795657 12.23619376 16.68080799 17.51911042 15.84375 23.0625 C15.73276978 23.82804199 15.62178955 24.59358398 15.50744629 25.38232422 C15.1561075 27.79736163 14.79694687 30.2111575 14.4375 32.625 C14.19609374 34.27466345 13.9552035 35.9244025 13.71484375 37.57421875 C13.12835262 41.59204373 12.53484982 45.60877569 11.9375 49.625 C10.8551709 49.32952271 10.8551709 49.32952271 9.75097656 49.02807617 C7.75811275 48.48425007 5.76493507 47.94157321 3.77148438 47.39990234 C1.71408747 46.83734396 -0.33949762 46.26078589 -2.390625 45.67578125 C-18.49144874 41.60752498 -36.88647887 41.26928968 -51.81640625 49.0625 C-61.15806262 54.85404851 -66.47983292 64.09566498 -69.0625 74.625 C-69.24554687 75.33785156 -69.42859375 76.05070312 -69.6171875 76.78515625 C-72.07969784 92.48905989 -70.53906075 108.55554471 -61.0625 121.625 C-53.6914218 130.13009023 -44.29656759 134.90390145 -33.03662109 135.78320312 C-19.79007033 136.44176347 -7.96167437 134.81081099 4.77539062 131.19750977 C7.14690764 130.56955048 9.52830234 130.08503851 11.9375 129.625 C12.656927 134.46199859 13.36872465 139.30003857 14.07373047 144.13916016 C14.31419165 145.78236537 14.55666975 147.42527683 14.80126953 149.06787109 C15.15418398 151.44032049 15.49963028 153.81376092 15.84375 156.1875 C16.00780334 157.27393799 16.00780334 157.27393799 16.1751709 158.38232422 C16.86067123 163.17668871 17.03284715 167.78136466 16.9375 172.625 C-8.24525407 186.02918394 -41.98984901 186.95298217 -69.05224609 179.04345703 C-91.70040256 171.94984222 -109.69856736 157.96718306 -120.875 136.875 C-132.89359189 111.3071465 -134.78272298 80.75517823 -125.70385742 53.93994141 C-121.07029611 41.25634466 -114.5298574 31.28076252 -105.0625 21.625 C-104.33675781 20.86316406 -103.61101562 20.10132813 -102.86328125 19.31640625 C-76.73658394 -6.27799842 -33.55446551 -8.64022553 0 0 Z " fill="#1C2747" transform="translate(1598.0625,321.375)"/>
<path d="M0 0 C0.7645752 0.19682373 1.52915039 0.39364746 2.31689453 0.59643555 C7.79797162 2.09631281 12.86843115 4.19417705 18 6.625 C16.27708066 21.00851422 14.37619331 35.33413528 12 49.625 C11.36835938 49.44324219 10.73671875 49.26148438 10.0859375 49.07421875 C7.06537033 48.22550031 4.03384915 47.42489847 1 46.625 C-0.00289062 46.33882813 -1.00578125 46.05265625 -2.0390625 45.7578125 C-17.60024125 41.78232888 -37.0424752 40.70956482 -51.34375 48.98046875 C-61.70819942 56.19304269 -66.8985269 65.83558925 -69.4609375 78 C-71.62223422 92.53393733 -70.23645545 108.098724 -62 120.625 C-54.98727587 129.51613238 -46.0127632 133.83521959 -35 135.625 C-31.6816477 135.9306244 -28.39389093 136.00564696 -25.0625 136 C-23.70475464 135.9997583 -23.70475464 135.9997583 -22.31958008 135.99951172 C-13.91951894 135.86015857 -6.09686784 134.34069506 1.99072266 132.16503906 C5.31536429 131.27146588 8.65913558 130.45553964 12 129.625 C14.26695276 143.93122077 16.47507823 158.21850226 18 172.625 C-12.6050048 186.3492174 -47.57211922 187.32724769 -79 175.5 C-100.78152816 165.88446671 -115.93178857 148.87091795 -124.78515625 127.01953125 C-132.00135546 106.85593926 -133.35297029 80.25944751 -127 59.625 C-126.63648437 58.43390625 -126.27296875 57.2428125 -125.8984375 56.015625 C-121.91498416 44.03956528 -116.31061349 34.10924975 -108 24.625 C-107.40703125 23.93664062 -106.8140625 23.24828125 -106.203125 22.5390625 C-80.1542409 -5.62490193 -35.05273082 -9.07584505 0 0 Z " fill="#1C2747" transform="translate(2479,321.375)"/>
<path d="M0 0 C56.76 0 113.52 0 172 0 C172 28.38 172 56.76 172 86 C115.24 86 58.48 86 0 86 C0 57.62 0 29.24 0 0 Z " fill="#E6273F" transform="translate(418,167)"/>
<path d="M0 0 C28.38 0 56.76 0 86 0 C86 55.11 86 110.22 86 167 C57.62 167 29.24 167 0 167 C0 111.89 0 56.78 0 0 Z " fill="#3599D5" transform="translate(418,253)"/>
<path d="M0 0 C0 28.38 0 56.76 0 86 C-28.38 86 -56.76 86 -86 86 C-86 61.75987943 -77.87064094 41.88938597 -60.9375 24.4375 C-44.32494933 7.96168802 -23.29850434 0 0 0 Z " fill="#F1BD15" transform="translate(590,167)"/>
</svg>
