<?xml version="1.0" encoding="UTF-8"?>
<svg version="1.1" xmlns="http://www.w3.org/2000/svg" width="1536" height="1024">
<path d="M0 0 C506.88 0 1013.76 0 1536 0 C1536 337.92 1536 675.84 1536 1024 C1029.12 1024 522.24 1024 0 1024 C0 686.08 0 348.16 0 0 Z " fill="#FEFEFE" transform="translate(0,0)"/>
<path d="M0 0 C3.09128001 1.25516566 5.92298302 2.66489028 8.83129883 4.29760742 C9.9117749 4.9010498 10.99225098 5.50449219 12.10546875 6.1262207 C13.82793823 7.09857666 13.82793823 7.09857666 15.58520508 8.09057617 C16.79630663 8.76923239 18.00765464 9.44744895 19.21923828 10.12524414 C27.71028094 14.88122343 36.17258204 19.68823448 44.63598633 24.49316406 C52.57119969 28.98431272 60.5804129 33.33181969 68.60742188 37.65625 C76.84559037 42.09828576 85.00704459 46.65981686 93.14770508 51.27807617 C93.14770508 61.83807617 93.14770508 72.39807617 93.14770508 83.27807617 C84.13539265 78.90066728 75.34128594 74.31971054 66.64770508 69.34057617 C57.14047646 63.89955591 47.52018498 58.70534115 37.83520508 53.59057617 C7.36577967 37.49317626 7.36577967 37.49317626 1.50317383 33.45776367 C-1.53389054 31.93671319 -2.61515733 32.36130015 -5.85229492 33.27807617 C-7.79953648 34.24423958 -9.70884636 35.28855629 -11.58666992 36.38354492 C-12.7062207 37.03073486 -13.82577148 37.6779248 -14.97924805 38.34472656 C-16.18693793 39.05166346 -17.39462004 39.75861365 -18.60229492 40.46557617 C-20.48633332 41.55795636 -22.37188039 42.64769867 -24.25756836 43.73722839 C-25.54511922 44.48126678 -26.83222518 45.22607555 -28.11889648 45.97163391 C-35.47510661 50.230129 -42.89973546 54.36405003 -50.32788086 58.49560547 C-57.22022786 62.33778971 -64.04902742 66.28033378 -70.85229492 70.27807617 C-68.16523651 71.86215979 -65.47756663 73.44520317 -62.78979492 75.02807617 C-61.66154297 75.69323242 -61.66154297 75.69323242 -60.51049805 76.37182617 C-59.01104546 77.25462077 -57.50893156 78.13291109 -56.00415039 79.0065918 C-54.62276109 79.82282455 -53.25538214 80.66352927 -51.9074707 81.53393555 C-48.4698599 83.74528413 -48.4698599 83.74528413 -44.50854492 84.07446289 C-41.39084076 83.13972475 -38.9069424 81.79228195 -36.09838867 80.14526367 C-34.44419922 79.18233398 -34.44419922 79.18233398 -32.7565918 78.19995117 C-31.60088541 77.51784149 -30.44528677 76.83554921 -29.28979492 76.15307617 C-27.61433594 75.17467773 -27.61433594 75.17467773 -25.9050293 74.17651367 C-24.23730469 73.20198242 -24.23730469 73.20198242 -22.53588867 72.20776367 C-21.42713379 71.56162109 -20.31837891 70.91547852 -19.17602539 70.24975586 C-16.94765403 68.92785729 -14.73812049 67.57371113 -12.5480957 66.18920898 C-11.50508301 65.54048828 -10.46207031 64.89176758 -9.38745117 64.22338867 C-8.0031189 63.33804443 -8.0031189 63.33804443 -6.59082031 62.43481445 C-3.1460824 60.97977583 -1.41881693 61.26412573 2.14770508 62.27807617 C4.55932617 63.37866211 4.55932617 63.37866211 6.92114258 64.76245117 C8.26305664 65.53685547 8.26305664 65.53685547 9.63208008 66.3269043 C10.58598633 66.88829102 11.53989258 67.44967773 12.52270508 68.02807617 C14.59188437 69.22274938 16.66223393 70.41539756 18.73364258 71.60620117 C19.79550781 72.21786133 20.85737305 72.82952148 21.95141602 73.4597168 C26.97211623 76.31597827 32.0579477 79.04738359 37.14770508 81.77807617 C48.91040666 88.11139801 60.54452904 94.65785917 72.14770508 101.27807617 C73.1525293 101.85106445 74.15735352 102.42405273 75.19262695 103.0144043 C81.18077909 106.4302081 87.1646638 109.85330082 93.14770508 113.27807617 C93.14770508 124.49807617 93.14770508 135.71807617 93.14770508 147.27807617 C88.80012811 145.53904538 85.32840914 143.60514708 81.42895508 141.10620117 C78.26765727 139.95860676 77.18584961 140.88806325 74.14770508 142.27807617 C71.82308689 143.45408824 69.5191008 144.64865293 67.22192383 145.87573242 C66.5612944 146.22644302 65.90066498 146.57715363 65.22001648 146.93849182 C63.81454 147.68540277 62.40973515 148.43357869 61.0055542 149.18292236 C58.82578571 150.34560042 56.64341036 151.5032688 54.46069336 152.66040039 C48.48692036 155.83500528 42.52288746 159.0079895 36.69067383 162.43823242 C35.96082275 162.86676514 35.23097168 163.29529785 34.47900391 163.73681641 C33.22347311 164.48530893 31.9762596 165.24803813 30.74023438 166.02832031 C28.2088979 167.54303145 26.34303098 168.27007553 23.38208008 168.39135742 C19.39628258 167.01943437 16.27214701 164.92576135 12.76416016 162.61450195 C4.84284795 157.15663518 4.84284795 157.15663518 -4.26245117 155.46948242 C-7.43728861 157.10825224 -10.02934914 159.086016 -12.85229492 161.27807617 C-15.8659418 163.05638037 -18.95602322 164.68771232 -22.03979492 166.34057617 C-23.51446737 167.16118214 -24.98717164 167.98533627 -26.45776367 168.81323242 C-27.17625488 169.21171387 -27.89474609 169.61019531 -28.63500977 170.02075195 C-30.18233126 170.89816945 -31.7129745 171.80537278 -33.22973633 172.73461914 C-34.00881348 173.2014209 -34.78789062 173.66822266 -35.59057617 174.14916992 C-36.28836182 174.58028076 -36.98614746 175.0113916 -37.70507812 175.45556641 C-40.59665172 176.56320841 -41.90340763 176.22463259 -44.85229492 175.27807617 C-47.33474322 174.10568524 -49.73353383 172.89684631 -52.14526367 171.59448242 C-52.84517929 171.22289505 -53.54509491 170.85130768 -54.26622009 170.46846008 C-56.52756152 169.2655703 -58.7837454 168.0533575 -61.03979492 166.84057617 C-62.58304332 166.01678027 -64.12650067 165.19337568 -65.67016602 164.37036133 C-76.1276066 158.78492031 -86.52406818 153.09944033 -96.85229492 147.27807617 C-96.85229492 137.70807617 -96.85229492 128.13807617 -96.85229492 118.27807617 C-92.54383648 119.71422899 -89.24682945 120.99376234 -85.35229492 123.11401367 C-83.78934692 123.96092773 -83.78934692 123.96092773 -82.19482422 124.82495117 C-81.09178955 125.42823242 -79.98875488 126.03151367 -78.85229492 126.65307617 C-77.71123291 127.26924805 -76.5701709 127.88541992 -75.39453125 128.52026367 C-69.70152077 131.59718156 -64.04219532 134.7254483 -58.42651367 137.94213867 C-57.43200195 138.50497559 -56.43749023 139.0678125 -55.4128418 139.64770508 C-53.53159244 140.71525973 -51.65873619 141.79777541 -49.7956543 142.89672852 C-48.95196289 143.37319824 -48.10827148 143.84966797 -47.23901367 144.34057617 C-46.50900146 144.76467773 -45.77898926 145.1887793 -45.02685547 145.62573242 C-41.0622366 146.81507357 -38.22506158 144.47318482 -34.73364258 142.64575195 C-33.58943848 142.01137207 -32.44523437 141.37699219 -31.26635742 140.72338867 C-30.64634857 140.38056854 -30.02633972 140.03774841 -29.38754272 139.68453979 C-27.41593545 138.59344472 -25.44662511 137.49827475 -23.47729492 136.40307617 C-22.16233324 135.67495421 -20.84723033 134.94708724 -19.53198242 134.21948242 C-13.20327743 130.76023946 -13.20327743 130.76023946 -6.97015381 127.13560486 C-2.14788031 124.23430062 -2.14788031 124.23430062 1.02270508 124.70385742 C5.99168326 127.20698018 10.76560995 130.01312708 15.51489258 132.90893555 C16.2805957 133.35430664 17.04629883 133.79967773 17.83520508 134.25854492 C18.51969727 134.66999756 19.20418945 135.0814502 19.90942383 135.50537109 C23.883648 136.87736275 27.0999495 135.7460743 30.83251953 134.07885742 C31.71641357 133.58772461 32.60030762 133.0965918 33.51098633 132.59057617 C34.4797168 132.0569043 35.44844727 131.52323242 36.4465332 130.97338867 C37.44104492 130.41393555 38.43555664 129.85448242 39.46020508 129.27807617 C40.47405273 128.71862305 41.48790039 128.15916992 42.5324707 127.58276367 C47.10562761 125.30448768 47.10562761 125.30448768 51.14770508 122.27807617 C50.51493652 121.93663574 49.88216797 121.59519531 49.23022461 121.2434082 C37.15744681 114.72554933 25.10052358 108.18363217 13.12036133 101.49682617 C12.47599121 101.14362305 11.83162109 100.79041992 11.16772461 100.42651367 C9.70784034 99.59652871 8.27382981 98.72046585 6.8581543 97.81713867 C6.08616699 97.34018555 5.31417969 96.86323242 4.51879883 96.37182617 C3.82584717 95.92516602 3.13289551 95.47850586 2.41894531 95.01831055 C-1.71463776 93.67110815 -4.9694532 95.83405422 -8.66967773 97.69506836 C-9.62197266 98.23292969 -10.57426758 98.77079102 -11.55541992 99.32495117 C-12.61889648 99.92307617 -13.68237305 100.52120117 -14.77807617 101.13745117 C-15.87506836 101.76135742 -16.97206055 102.38526367 -18.10229492 103.02807617 C-19.18381836 103.63651367 -20.2653418 104.24495117 -21.37963867 104.87182617 C-27.59861016 108.36218285 -27.59861016 108.36218285 -33.66674805 112.10424805 C-34.52719727 112.66176758 -35.38764648 113.21928711 -36.27416992 113.79370117 C-37.01763672 114.29675781 -37.76110352 114.79981445 -38.52709961 115.31811523 C-41.70369313 116.62957741 -43.56305182 116.15853147 -46.85229492 115.27807617 C-49.37158203 114.17749023 -49.37158203 114.17749023 -51.87963867 112.79370117 C-52.82621338 112.27654541 -53.77278809 111.75938965 -54.74804688 111.2265625 C-55.75182373 110.66606201 -56.75560059 110.10556152 -57.78979492 109.52807617 C-58.83288818 108.95404053 -59.87598145 108.38000488 -60.95068359 107.78857422 C-64.25772868 105.9631846 -67.55614157 104.12305337 -70.85229492 102.27807617 C-71.94767578 101.66593262 -73.04305664 101.05378906 -74.17163086 100.4230957 C-92.65496101 90.07629878 -92.65496101 90.07629878 -96.85229492 87.27807617 C-97.1192738 84.65345373 -97.20062476 82.26741685 -97.14526367 79.64526367 C-97.14101883 78.89342804 -97.13677399 78.14159241 -97.13240051 77.36697388 C-97.11558663 74.96197932 -97.07793116 72.55781808 -97.03979492 70.15307617 C-97.02475151 68.52418201 -97.01106251 66.89527474 -96.9987793 65.26635742 C-96.96567446 61.26994183 -96.91387501 57.27415035 -96.85229492 53.27807617 C-69.20776367 37.48120117 -69.20776367 37.48120117 -65.78027344 35.52270508 C-63.43300018 34.18141785 -61.08584477 32.8399247 -58.73876953 31.49829102 C-53.25688797 28.36494795 -47.77441056 25.23267381 -42.28858948 22.10623169 C-40.44974557 21.05807626 -38.61132808 20.00917589 -36.77294922 18.96020508 C-34.39335552 17.60260121 -32.01182167 16.24849235 -29.62890625 14.89672852 C-24.54313364 12.00270505 -19.48848449 9.08608805 -14.52807617 5.98120117 C-13.74585693 5.49699707 -12.9636377 5.01279297 -12.15771484 4.51391602 C-10.75984863 3.64148222 -9.37209785 2.75249797 -7.99804688 1.84301758 C-4.98647834 -0.02989853 -3.51552963 -0.88979039 0 0 Z " fill="#122649" transform="translate(312.852294921875,395.721923828125)"/>
<path d="M0 0 C8.75721369 6.41124452 13.62890251 15.3307117 15.875 25.8125 C16.83502527 39.25285377 15.83740508 51.84433504 7.18359375 62.76171875 C-0.16878172 70.71911975 -8.9110744 74.87814472 -19.6953125 75.55078125 C-32.26576339 75.87433373 -42.2860368 74.07955207 -51.875 65.3125 C-58.8168662 58.61223007 -62.87936753 50.14366068 -63.11328125 40.4609375 C-63.14380615 38.5365414 -63.16833125 36.61204272 -63.1875 34.6875 C-63.21650391 33.74003906 -63.24550781 32.79257812 -63.27539062 31.81640625 C-63.3741421 20.71066292 -59.21727204 11.89929454 -51.75 3.75 C-37.72071161 -9.85780762 -16.1224546 -9.81010373 0 0 Z " fill="#132547" transform="translate(625.875,483.6875)"/>
<path d="M0 0 C9.13330817 6.25751435 15.85536792 14.25162014 19.25 24.875 C19.745 28.34 19.745 28.34 20.25 31.875 C12.99 31.875 5.73 31.875 -1.75 31.875 C-3.07 28.905 -4.39 25.935 -5.75 22.875 C-9.97434973 17.59456283 -15.4438265 14.97705783 -21.75 12.875 C-29.37870981 12.10070499 -36.14097559 12.80875115 -42.75 16.875 C-50.00838732 23.03021274 -53.730929 30.69520919 -55.75 39.875 C-56.49538718 49.73443954 -57.08842421 60.78886628 -52.75 69.875 C-52.33621094 70.74511719 -51.92242187 71.61523438 -51.49609375 72.51171875 C-47.72347639 79.55325251 -43.31152279 83.3544924 -35.75 85.875 C-22.4657586 87.05519924 -22.4657586 87.05519924 -10.75 81.875 C-6.07582232 77.52392216 -4.36312137 73.97228319 -1.75 67.875 C5.51 67.875 12.77 67.875 20.25 67.875 C18.86509705 78.95422359 15.11094594 87.17498685 6.87890625 94.8359375 C-7.70659348 106.14891055 -22.94282242 107.30710847 -40.75 105.875 C-45.53379349 105.08772783 -49.57645903 103.3286091 -53.75 100.875 C-54.70648438 100.3284375 -55.66296875 99.781875 -56.6484375 99.21875 C-69.18407752 91.11351426 -75.24578265 78.92315704 -78.75 64.875 C-82.09850359 46.1577235 -79.42867337 28.50987654 -69.15625 12.37109375 C-53.49940203 -9.45248444 -22.2740167 -13.01368655 0 0 Z " fill="#122547" transform="translate(534.75,453.125)"/>
<path d="M0 0 C6.1894965 4.20384878 10.7804871 8.86767302 12.54966736 16.3132782 C13.03019056 19.1801194 13.16021444 21.89381597 13.20532227 24.80004883 C13.2352401 26.51125664 13.2352401 26.51125664 13.26576233 28.2570343 C13.28247482 29.47803329 13.29918732 30.69903229 13.31640625 31.95703125 C13.33718735 33.21513107 13.35796844 34.4732309 13.37937927 35.76945496 C13.43360465 39.10172286 13.48387945 42.43400239 13.53222656 45.76635742 C13.58261084 49.17176555 13.63820823 52.5770882 13.69335938 55.98242188 C13.80036703 62.65488173 13.90168302 69.32740666 14 76 C7.73 76 1.46 76 -5 76 C-5.495 71.545 -5.495 71.545 -6 67 C-6.70125 67.7425 -7.4025 68.485 -8.125 69.25 C-16.30075772 77.07028999 -24.22709918 78.50090051 -35.26953125 78.3046875 C-42.65522247 77.70145827 -47.87848275 75.59237989 -53 70.1875 C-57.21550891 64.81148629 -58.56715686 59.1568482 -58.37109375 52.3984375 C-57.39571992 46.09444246 -54.30218722 40.66549298 -49.4375 36.5625 C-40.81126235 31.01645832 -29.71357441 30.38884836 -19.75 29.3125 C-18.61175781 29.18294922 -17.47351563 29.05339844 -16.30078125 28.91992188 C-13.53457474 28.60610853 -10.76777823 28.29957507 -8 28 C-7.98474803 26.56123103 -7.97387311 25.12241522 -7.96484375 23.68359375 C-7.95831787 22.88236084 -7.95179199 22.08112793 -7.94506836 21.25561523 C-8.01733735 18.2880899 -8.28613847 16.45901872 -10 14 C-16.04826566 11.45972842 -22.13535908 10.91900343 -28.3125 13.25 C-32.0772859 15.70148849 -33.5889566 17.76686981 -35 22 C-41.27 22 -47.54 22 -54 22 C-54 14.09593513 -52.70893559 9.9538653 -47.34375 4.234375 C-34.58028726 -6.47395391 -14.60183308 -6.91462466 0 0 Z " fill="#132547" transform="translate(1010,481)"/>
<path d="M0 0 C1.21757896 1.02789298 2.40705627 2.09022506 3.5625 3.1875 C4.39201172 3.97447266 4.39201172 3.97447266 5.23828125 4.77734375 C14.07725557 14.09884272 15.5625 26.88854036 15.5625 39.1875 C-3.2475 39.1875 -22.0575 39.1875 -41.4375 39.1875 C-39.07404776 50.1911543 -39.07404776 50.1911543 -31.73828125 56.79296875 C-28.03718667 58.35662646 -25.43785267 58.55702257 -21.4375 58.5 C-19.6740625 58.49419922 -19.6740625 58.49419922 -17.875 58.48828125 C-14.40297467 58.18447903 -11.64797089 57.52954322 -8.4375 56.1875 C-7.0612206 54.26985826 -7.0612206 54.26985826 -6.4375 52.1875 C-5.9425 51.1975 -5.9425 51.1975 -5.4375 50.1875 C0.8325 50.1875 7.1025 50.1875 13.5625 50.1875 C10.16976123 60.36571631 5.93439731 66.88482605 -3.4375 72.1875 C-9.54225024 74.80467612 -15.20501379 75.7101881 -21.8125 75.625 C-22.64177002 75.61742676 -23.47104004 75.60985352 -24.32543945 75.60205078 C-36.30541619 75.28133621 -44.88695991 70.86418873 -53.1875 62.375 C-61.6359337 50.4063856 -61.38592438 37.34150639 -60.4375 23.1875 C-59.66629058 19.07585208 -58.49144558 15.81549733 -56.4375 12.1875 C-56.01339844 11.38441406 -55.58929687 10.58132813 -55.15234375 9.75390625 C-50.39339557 1.68092731 -43.07497266 -2.65650037 -34.4375 -5.8125 C-22.73199447 -8.5644566 -9.95158633 -7.07036515 0 0 Z " fill="#122446" transform="translate(793.4375,483.8125)"/>
<path d="M0 0 C8.40283091 6.46806144 12.29438107 15.63987411 14.32421875 25.7890625 C14.32421875 30.0790625 14.32421875 34.3690625 14.32421875 38.7890625 C-4.15578125 38.7890625 -22.63578125 38.7890625 -41.67578125 38.7890625 C-39.08839952 49.30611396 -39.08839952 49.30611396 -31.9765625 56.421875 C-26.11388308 58.85020375 -18.58450037 59.18248156 -12.5390625 57.02734375 C-10.23631321 55.55984861 -8.83517732 54.11504545 -7.63671875 51.6640625 C-4.80972649 48.96096233 -2.45450046 49.37976164 1.34179688 49.4375 C2.22287109 49.47101562 3.10394531 49.50453125 4.01171875 49.5390625 C5.35073242 49.56613281 5.35073242 49.56613281 6.71679688 49.59375 C8.92035379 49.64088491 11.12174476 49.70665593 13.32421875 49.7890625 C10.70739663 58.60607053 7.36453843 64.71065983 -0.7265625 69.65234375 C-11.61194109 75.22129812 -22.97571343 76.56562244 -35.0234375 74.10546875 C-44.15604167 71.00988843 -52.01255871 65.29862173 -56.796875 56.796875 C-63.04054765 43.94360018 -63.14113877 29.86991279 -58.9921875 16.37890625 C-55.52657804 6.92817896 -49.55728784 0.4772478 -40.67578125 -4.2109375 C-26.76924666 -9.92036519 -12.50406556 -7.96962421 0 0 Z " fill="#122547" transform="translate(1147.67578125,484.2109375)"/>
<path d="M0 0 C6.6 0 13.2 0 20 0 C20.33 12.54 20.66 25.08 21 38 C23.97 35.36 26.94 32.72 30 30 C37.52305359 26.99077857 47.63373135 26.51891612 55.5 29.0625 C62.68215032 32.47878832 67.40087779 37.54571388 70.30859375 44.88671875 C71.6245843 48.90904014 72.12310687 52.3405497 72.11352539 56.59472656 C72.11341209 58.27601654 72.11341209 58.27601654 72.11329651 59.99127197 C72.10813522 61.19555847 72.10297394 62.39984497 72.09765625 63.640625 C72.0962413 64.87794373 72.09482635 66.11526245 72.09336853 67.39007568 C72.0887211 70.67144941 72.07974347 73.95277373 72.06866455 77.23413086 C72.0584152 80.58577011 72.05394859 83.93741148 72.04882812 87.2890625 C72.03780024 93.8593968 72.02053617 100.42968881 72 107 C65.07 107 58.14 107 51 107 C50.98541748 105.46142334 50.97083496 103.92284668 50.95581055 102.33764648 C50.89771632 96.6141061 50.82048321 90.89095452 50.73754883 85.16772461 C50.70435196 82.69350508 50.67630382 80.21921078 50.65356445 77.74487305 C50.61992299 74.18245666 50.56760013 70.62072228 50.51171875 67.05859375 C50.50532883 65.95728622 50.4989389 64.8559787 50.49235535 63.72129822 C50.37890601 57.75743 50.0216378 53.20903213 47 48 C41.92758632 44.85510352 36.90918711 44.06186263 31 45 C26.1290039 47.20573408 24.0641696 49.93141462 21.83605957 54.58227539 C20.24161453 59.19310593 20.39626823 63.88499593 20.390625 68.71875 C20.37408875 69.81723267 20.35755249 70.91571533 20.34051514 72.04748535 C20.29220403 75.53171475 20.2707009 79.01550817 20.25 82.5 C20.22182633 84.87241757 20.19189696 87.24481498 20.16015625 89.6171875 C20.08644903 95.41142243 20.03677087 101.20541772 20 107 C13.4 107 6.8 107 0 107 C0 71.69 0 36.38 0 0 Z " fill="#122447" transform="translate(1253,450)"/>
<path d="M0 0 C6.78706342 5.22743712 9.17634767 11.59411537 10.46484375 19.8984375 C10.72142387 24.20468994 10.69864571 28.49599009 10.66015625 32.80859375 C10.65732635 34.01664169 10.65449646 35.22468964 10.65158081 36.46934509 C10.64045142 40.29997978 10.61535998 44.13037435 10.58984375 47.9609375 C10.5798046 50.56965806 10.57068039 53.17838232 10.5625 55.78710938 C10.54053576 62.15764357 10.50605584 68.52799992 10.46484375 74.8984375 C3.53484375 74.8984375 -3.39515625 74.8984375 -10.53515625 74.8984375 C-10.54450195 73.29403809 -10.55384766 71.68963867 -10.56347656 70.03662109 C-10.60338902 64.07637913 -10.66915274 58.11665262 -10.74267578 52.15673828 C-10.77087784 49.57868071 -10.79209612 47.00053679 -10.80615234 44.42236328 C-10.82759134 40.71341775 -10.87425021 37.00550957 -10.92578125 33.296875 C-10.92700989 32.14665863 -10.92823853 30.99644226 -10.92950439 29.81137085 C-11.04318907 23.58095129 -11.26392579 19.59322007 -15.53515625 14.8984375 C-19.54826251 12.44598367 -23.94219242 12.32093321 -28.53515625 12.8984375 C-33.23509654 14.61572338 -35.74475124 16.76450416 -38.53515625 20.8984375 C-39.51618913 23.84153613 -39.68737312 25.8481278 -39.74047852 28.9206543 C-39.76042374 29.94148605 -39.78036896 30.96231781 -39.80091858 32.01408386 C-39.82598732 33.66420219 -39.82598732 33.66420219 -39.8515625 35.34765625 C-39.8723436 36.4754097 -39.89312469 37.60316315 -39.91453552 38.76509094 C-39.97998472 42.3719771 -40.03889469 45.97893679 -40.09765625 49.5859375 C-40.14084586 52.02930452 -40.18446029 54.47266406 -40.22851562 56.91601562 C-40.33566145 62.91008066 -40.43694216 68.90421974 -40.53515625 74.8984375 C-47.46515625 74.8984375 -54.39515625 74.8984375 -61.53515625 74.8984375 C-61.53515625 49.4884375 -61.53515625 24.0784375 -61.53515625 -2.1015625 C-55.26515625 -2.1015625 -48.99515625 -2.1015625 -42.53515625 -2.1015625 C-42.20515625 1.1984375 -41.87515625 4.4984375 -41.53515625 7.8984375 C-40.54515625 6.6609375 -39.55515625 5.4234375 -38.53515625 4.1484375 C-28.58942531 -6.93731794 -12.62038225 -7.37487358 0 0 Z " fill="#142649" transform="translate(712.53515625,482.1015625)"/>
<path d="M0 0 C27.72 0 55.44 0 84 0 C84 6.27 84 12.54 84 19 C73.77 19 63.54 19 53 19 C53 48.04 53 77.08 53 107 C46.07 107 39.14 107 32 107 C32 77.96 32 48.92 32 19 C21.44 19 10.88 19 0 19 C0 12.73 0 6.46 0 0 Z " fill="#13274C" transform="translate(1018,450)"/>
<path d="M0 0 C0 9.57 0 19.14 0 29 C-3.75375 31.165625 -7.5075 33.33125 -11.375 35.5625 C-12.64142334 36.29315674 -13.90784668 37.02381348 -15.21264648 37.77661133 C-21.09072596 41.1679265 -26.96897393 44.55894867 -32.84765625 47.94921875 C-33.94327881 48.58142334 -35.03890137 49.21362793 -36.16772461 49.86499023 C-38.34064258 51.11766698 -40.51462821 52.36849363 -42.68969727 53.61743164 C-47.71529639 56.50660358 -52.72036743 59.4201354 -57.6796875 62.421875 C-58.55181885 62.94426758 -59.4239502 63.46666016 -60.32250977 64.00488281 C-61.9319162 64.97125255 -63.53454467 65.94904222 -65.12866211 66.94042969 C-65.83514893 67.36227539 -66.54163574 67.78412109 -67.26953125 68.21875 C-67.87385986 68.58935547 -68.47818848 68.95996094 -69.10083008 69.34179688 C-72.37812385 70.47762205 -75.00271304 69.46736326 -78.05102539 68.03881836 C-78.72641357 67.64315674 -79.40180176 67.24749512 -80.09765625 66.83984375 C-81.28065308 66.15486816 -81.28065308 66.15486816 -82.48754883 65.45605469 C-83.33728271 64.95493164 -84.1870166 64.45380859 -85.0625 63.9375 C-86.9216379 62.8576646 -88.78102729 61.77826212 -90.640625 60.69921875 C-91.64802734 60.11188965 -92.65542969 59.52456055 -93.69335938 58.91943359 C-99.24550545 55.6965325 -104.82443815 52.52060513 -110.40109253 49.34036255 C-113.47284837 47.58807917 -116.54301651 45.83301925 -119.61328125 44.078125 C-120.65266846 43.48418945 -121.69205566 42.89025391 -122.76293945 42.27832031 C-123.87028442 41.64555176 -123.87028442 41.64555176 -125 41 C-118.10021862 33.43881431 -105.73725755 26.9279659 -96 24 C-90.2099393 24.11977961 -85.92082661 27.19617962 -81.55126953 30.74365234 C-79.45474752 32.44159101 -77.21409394 33.78782438 -74.875 35.125 C-74.25367188 35.54007813 -73.63234375 35.95515625 -72.9921875 36.3828125 C-69.07974778 37.59490167 -65.2584745 35.12562012 -61.74633789 33.41870117 C-60.58352295 32.79970947 -59.42070801 32.18071777 -58.22265625 31.54296875 C-57.58271729 31.20346695 -56.94277832 30.86396515 -56.28344727 30.51417542 C-54.20706337 29.41032922 -52.1346369 28.29929542 -50.0625 27.1875 C-48.624949 26.42019048 -47.18736736 25.65293835 -45.74975586 24.88574219 C-34.5271449 18.88164651 -23.42584313 12.67992746 -12.37939453 6.35742188 C-9.90178218 4.94396767 -7.42074587 3.53723021 -4.93359375 2.140625 C-3.83422485 1.5223584 -3.83422485 1.5223584 -2.71264648 0.89160156 C-1 0 -1 0 0 0 Z " fill="#122548" transform="translate(406,557)"/>
<path d="M0 0 C7.22897051 5.21219251 11.06794219 12.77751452 13.125 21.3125 C13.125 21.9725 13.125 22.6325 13.125 23.3125 C6.525 23.3125 -0.075 23.3125 -6.875 23.3125 C-8.01432292 21.06640625 -9.15364583 18.8203125 -10.29296875 16.57421875 C-12.23031244 13.80453481 -13.79828053 12.70539879 -16.875 11.3125 C-22.65526134 10.50948497 -28.06542035 10.51882471 -33.4375 12.875 C-40.29379713 19.73129713 -41.1752733 27.08851033 -41.19189453 36.39916992 C-41.08013698 43.27363918 -40.20613488 48.73783568 -35.37890625 53.91796875 C-30.84672911 57.95284965 -26.97698798 58.61784016 -21.15234375 58.5234375 C-16.27958531 58.07210138 -13.18914976 55.8934493 -10.0625 52.3125 C-7.76016268 49.47369366 -7.76016268 49.47369366 -6.875 46.3125 C-0.605 46.3125 5.665 46.3125 12.125 46.3125 C10.91117276 56.02311794 8.34135286 62.04841666 0.6875 68.25 C-9.91201163 75.82107974 -22.15947853 76.73015976 -34.79296875 74.88671875 C-43.69878979 72.57885098 -51.43040632 67.06167465 -56.62890625 59.4921875 C-63.21928967 47.9641814 -64.65350617 34.81572273 -62.2265625 21.84765625 C-59.34825357 12.29019455 -53.29518104 3.81413223 -44.875 -1.6875 C-29.87687256 -8.93117765 -14.4570509 -8.66457642 0 0 Z " fill="#122547" transform="translate(1232.875,483.6875)"/>
<path d="M0 0 C6.41386805 5.05092109 9.85678494 12.00387638 12.1875 19.72265625 C12.1875 20.71265625 12.1875 21.70265625 12.1875 22.72265625 C5.5875 22.72265625 -1.0125 22.72265625 -7.8125 22.72265625 C-8.51375 21.29953125 -9.215 19.87640625 -9.9375 18.41015625 C-12.34473325 14.15737751 -13.93543829 12.07739561 -18.8125 10.72265625 C-23.99893747 10.11064094 -28.98455888 9.90243569 -33.75 12.28515625 C-38.66392973 16.19624318 -40.85667471 20.4874595 -41.8125 26.72265625 C-42.42599071 35.52272785 -42.6737623 44.0070748 -37.8125 51.72265625 C-34.73691164 55.18369694 -31.47972159 57.4584743 -26.76171875 57.92578125 C-21.66358367 58.03144208 -18.15566617 57.68390591 -13.8125 54.72265625 C-11.06258786 51.99510112 -9.05404775 49.44729951 -7.8125 45.72265625 C-1.5425 45.72265625 4.7275 45.72265625 11.1875 45.72265625 C9.93586058 54.48413218 7.11257145 61.86508594 0.1875 67.72265625 C-11.37217217 74.60267561 -23.62282173 76.97700985 -36.90234375 74.0390625 C-39.35713556 73.10445772 -41.54167953 72.04014128 -43.8125 70.72265625 C-44.99392578 70.06910156 -44.99392578 70.06910156 -46.19921875 69.40234375 C-55.13880032 63.9942663 -59.70194326 56.55918123 -62.8125 46.72265625 C-65.6182029 34.33080177 -64.27675007 21.5860358 -58.125 10.47265625 C-52.57918216 1.8458285 -44.78066076 -3.63896125 -35 -6.52734375 C-22.8767683 -9.15049915 -10.35879078 -6.75645488 0 0 Z " fill="#132547" transform="translate(879.8125,484.27734375)"/>
<path d="M0 0 C6.6 0 13.2 0 20 0 C20 7.26 20 14.52 20 22 C25.61 22 31.22 22 37 22 C37 26.62 37 31.24 37 36 C31.39 36 25.78 36 20 36 C20.09357049 42.05089175 20.19967313 48.10138507 20.31738281 54.15185547 C20.35565995 56.21006249 20.39051504 58.26833612 20.421875 60.32666016 C20.46755278 63.28572388 20.52554302 66.24432957 20.5859375 69.203125 C20.59748871 70.12305237 20.60903992 71.04297974 20.62094116 71.99078369 C20.64081085 72.8513739 20.66068054 73.71196411 20.68115234 74.59863281 C20.69447601 75.35364075 20.70779968 76.10864868 20.7215271 76.88653564 C21.04054391 79.30770714 21.71889519 80.92785869 23 83 C27.26159382 85.13079691 33.40763702 84.04502317 38 84 C38 89.28 38 94.56 38 100 C34.16589729 100.10851234 30.33490317 100.18757134 26.5 100.25 C25.42234375 100.28351563 24.3446875 100.31703125 23.234375 100.3515625 C16.29847775 100.43614661 11.88971279 99.73743955 6 96 C1.63451917 91.51963809 -0.25862735 87.07890197 -0.22705078 80.8425293 C-0.22689972 79.84186935 -0.22674866 78.84120941 -0.22659302 77.81022644 C-0.21627045 76.7423439 -0.20594788 75.67446136 -0.1953125 74.57421875 C-0.1924826 73.47149124 -0.18965271 72.36876373 -0.18673706 71.23262024 C-0.17555981 67.71746886 -0.15045937 64.20257411 -0.125 60.6875 C-0.11496704 58.30143598 -0.10584174 55.91536795 -0.09765625 53.52929688 C-0.07562845 47.68609934 -0.04111513 41.84309315 0 36 C-3.96 36 -7.92 36 -12 36 C-12 31.38 -12 26.76 -12 22 C-8.04 22 -4.08 22 0 22 C0 14.74 0 7.48 0 0 Z " fill="#122548" transform="translate(908,458)"/>
<path d="M0 0 C4.91540048 2.44687337 7.47358593 6.62882402 9.8359375 11.3828125 C12.32567791 18.85203374 12.23479876 30.3652045 9.1484375 37.6953125 C6.63723497 42.18904335 3.78798059 45.45115557 -0.9140625 47.6953125 C-6.98873285 48.98033892 -11.94293013 49.4625791 -17.4765625 46.2578125 C-22.33006959 42.82272597 -25.40634906 38.45905877 -26.84765625 32.62890625 C-28.14754149 23.40132582 -28.29664461 14.20547021 -22.76953125 6.41796875 C-16.75465943 -1.02829029 -9.36758213 -2.6716209 0 0 Z " fill="#FCFCFD" transform="translate(610.1640625,494.6171875)"/>
<path d="M0 0 C27.72 0 55.44 0 84 0 C84 6.27 84 12.54 84 19 C73.77 19 63.54 19 53 19 C53 48.04 53 77.08 53 107 C46.07 107 39.14 107 32 107 C32 77.96 32 48.92 32 19 C21.44 19 10.88 19 0 19 C0 12.73 0 6.46 0 0 Z M2 1 C2 6.28 2 11.56 2 17 C11.9 17.33 21.8 17.66 32 18 C32.33 47.04 32.66 76.08 33 106 C38.94 106 44.88 106 51 106 C51.03758423 102.0546228 51.03758423 102.0546228 51.07592773 98.02954102 C51.15923023 89.36019223 51.24793784 80.69090491 51.33933926 72.02163792 C51.39461375 66.76306363 51.44804084 61.50448382 51.49731445 56.24584961 C51.54489142 51.17541936 51.59723154 46.10505903 51.65294075 41.03471184 C51.67339462 39.09575061 51.69210257 37.15677018 51.70907402 35.21777534 C51.73305117 32.51173046 51.76311445 29.80581901 51.79467773 27.09985352 C51.8004332 26.28993454 51.80618866 25.48001556 51.81211853 24.64555359 C51.88594784 19.11405216 51.88594784 19.11405216 53 18 C55.21687994 17.84126045 57.43855298 17.74866163 59.66015625 17.68359375 C60.32462265 17.66281265 60.98908905 17.64203156 61.6736908 17.62062073 C63.80318543 17.55506342 65.93280668 17.49621215 68.0625 17.4375 C69.50326847 17.39432061 70.94402399 17.35070651 72.38476562 17.30664062 C75.92304903 17.19855473 79.46142397 17.09952907 83 17 C83 11.72 83 6.44 83 1 C56.27 1 29.54 1 2 1 Z " fill="#0C132D" transform="translate(1018,450)"/>
<path d="M0 0 C0.34514786 6.3532772 0.3228125 11.35121875 -3 17 C-8.01672848 22.01672848 -12.55830601 24.01551322 -19.5625 24.375 C-22.98123584 24.30581816 -23.96991261 24.01880462 -27 22.125 C-29.5948069 19.36801767 -29.96110169 18.51540257 -30.25 14.6875 C-29.97973382 10.70107385 -29.53712014 9.04454416 -27 6 C-21.94137545 2.90336534 -17.01487436 2.11537063 -11.25 1.3125 C-10.38761719 1.18294922 -9.52523437 1.05339844 -8.63671875 0.91992188 C-2.41629464 0 -2.41629464 0 0 0 Z " fill="#FAFBFB" transform="translate(1003,521)"/>
<path d="M0 0 C3.19450739 3.11659258 5.82116671 6.36240719 7.5625 10.5 C7.5625 12.15 7.5625 13.8 7.5625 15.5 C-3.9875 15.5 -15.5375 15.5 -27.4375 15.5 C-26.3530112 7.9085784 -25.36223027 4.81541147 -19.4375 0.125 C-13.40795785 -2.97441907 -6.08345574 -2.65459887 0 0 Z " fill="#F7F8F9" transform="translate(780.4375,494.5)"/>
<path d="M0 0 C6.50222815 4.59913698 6.71915661 7.51745475 8.5625 15.8125 C-2.9875 15.8125 -14.5375 15.8125 -26.4375 15.8125 C-25.47431526 9.07020681 -24.86318569 6.47936747 -20.4375 1.8125 C-14.49702356 -2.57213737 -6.77009414 -2.33875979 0 0 Z " fill="#F7F8F9" transform="translate(1133.4375,494.1875)"/>
<path d="M0 0 C0.99 0.33 1.98 0.66 3 1 C3 12.22 3 23.44 3 35 C2.01 34.67 1.02 34.34 0 34 C0 22.78 0 11.56 0 0 Z " fill="#222F4A" transform="translate(216,449)"/>
<path d="M0 0 C18.48 0 36.96 0 56 0 C56 0.33 56 0.66 56 1 C55.36550934 1.01030746 54.73101868 1.02061493 54.07730103 1.03123474 C47.49153038 1.13916135 40.90590041 1.25377035 34.3203125 1.37231445 C31.86038141 1.41570779 29.40041935 1.45737956 26.94042969 1.49731445 C23.41071216 1.55491057 19.88115124 1.61863557 16.3515625 1.68359375 C15.24632233 1.70030624 14.14108215 1.71701874 13.00234985 1.73423767 C11.98144257 1.75418289 10.96053528 1.77412811 9.90869141 1.79467773 C8.55633896 1.81799416 8.55633896 1.81799416 7.17666626 1.84178162 C4.95363699 1.86435092 4.95363699 1.86435092 3 3 C2.67 3.66 2.34 4.32 2 5 C1.34 3.35 0.68 1.7 0 0 Z " fill="#F3F6F7" transform="translate(1106,523)"/>
<path d="M0 0 C0.99 0.33 1.98 0.66 3 1 C2.99214478 2.21115479 2.99214478 2.21115479 2.98413086 3.44677734 C2.96340071 7.08951038 2.95035251 10.73223102 2.9375 14.375 C2.92912109 15.64601563 2.92074219 16.91703125 2.91210938 18.2265625 C2.90888672 19.43828125 2.90566406 20.65 2.90234375 21.8984375 C2.89448853 23.57945557 2.89448853 23.57945557 2.88647461 25.29443359 C2.81378534 27.96867343 2.81378534 27.96867343 4 30 C2.68 29.67 1.36 29.34 0 29 C0 19.43 0 9.86 0 0 Z " fill="#262E46" transform="translate(216,514)"/>
<path d="M0 0 C6.27 0 12.54 0 19 0 C17.875 7.875 17.875 7.875 16 11 C15 9 15 9 17 2 C11.72 2 6.44 2 1 2 C0.67 2.99 0.34 3.98 0 5 C-0.33 4.34 -0.66 3.68 -1 3 C-0.67 2.01 -0.34 1.02 0 0 Z " fill="#051030" transform="translate(872,530)"/>
<path d="M0 0 C0.68449219 0.49113281 1.36898437 0.98226562 2.07421875 1.48828125 C5.58973109 3.30470752 7.88278142 3.30658238 11.8125 3.1875 C13.854375 3.125625 15.89625 3.06375 18 3 C18 7.95 18 12.9 18 18 C16.68 17.67 15.36 17.34 14 17 C14.66 17 15.32 17 16 17 C16 13.04 16 9.08 16 5 C13.00520833 5.09765625 10.01041667 5.1953125 7.015625 5.29296875 C3.68511459 4.9694088 2.34242876 4.34811426 0 2 C0 1.34 0 0.68 0 0 Z " fill="#0A1230" transform="translate(928,539)"/>
<path d="M0 0 C1.12329712 0.07069702 1.12329712 0.07069702 2.26928711 0.14282227 C3.07817383 0.19116211 3.88706055 0.23950195 4.72045898 0.28930664 C5.99566406 0.37341797 5.99566406 0.37341797 7.29663086 0.45922852 C8.57763672 0.53753906 8.57763672 0.53753906 9.88452148 0.61743164 C12.00135081 0.74751612 14.1177833 0.88402822 16.23413086 1.02172852 C16.23413086 1.35172852 16.23413086 1.68172852 16.23413086 2.02172852 C10.62413086 2.02172852 5.01413086 2.02172852 -0.76586914 2.02172852 C-0.76586914 9.61172852 -0.76586914 17.20172852 -0.76586914 25.02172852 C-1.09586914 25.02172852 -1.42586914 25.02172852 -1.76586914 25.02172852 C-3.214145 7.07345265 -3.214145 7.07345265 -2.76586914 1.02172852 C-1.76586914 0.02172852 -1.76586914 0.02172852 0 0 Z " fill="#2D3B59" transform="translate(928.765869140625,491.978271484375)"/>
<path d="M0 0 C6.27 0 12.54 0 19 0 C18.67 1.65 18.34 3.3 18 5 C17.67 4.01 17.34 3.02 17 2 C11.72 2 6.44 2 1 2 C0.67 3.32 0.34 4.64 0 6 C-0.66 5.67 -1.32 5.34 -2 5 C-1.34 3.35 -0.68 1.7 0 0 Z " fill="#041134" transform="translate(1226,530)"/>
<path d="M0 0 C2.49210439 2.49210439 2.26015661 4.00360788 2.2734375 7.41015625 C2.26570312 8.09980469 2.25796875 8.78945313 2.25 9.5 C2.25773438 10.18964844 2.26546875 10.87929688 2.2734375 11.58984375 C2.25333293 16.74666707 2.25333293 16.74666707 0 19 C-1.10683101 15.43354453 -1.13339621 12.0945207 -1.125 8.375 C-1.12757813 7.22773437 -1.13015625 6.08046875 -1.1328125 4.8984375 C-1 2 -1 2 0 0 Z " fill="#222E49" transform="translate(817,509)"/>
<path d="M0 0 C1.97119141 -0.34057617 1.97119141 -0.34057617 4.3515625 -0.29296875 C5.20234375 -0.28330078 6.053125 -0.27363281 6.9296875 -0.26367188 C7.81914063 -0.23853516 8.70859375 -0.21339844 9.625 -0.1875 C10.97078125 -0.16719727 10.97078125 -0.16719727 12.34375 -0.14648438 C14.56309789 -0.11106925 16.78125188 -0.06168461 19 0 C18.67 0.99 18.34 1.98 18 3 C12.06 2.67 6.12 2.34 0 2 C-0.66 3.32 -1.32 4.64 -2 6 C-2 3 -2 3 0 0 Z " fill="#091335" transform="translate(1142,534)"/>
<path d="M0 0 C6.27 0 12.54 0 19 0 C18.34 2.31 17.68 4.62 17 7 C16.67 6.01 16.34 5.02 16 4 C16.33 3.34 16.66 2.68 17 2 C8.585 2.495 8.585 2.495 0 3 C0 2.01 0 1.02 0 0 Z " fill="#050F32" transform="translate(788,534)"/>
<path d="M0 0 C0.66 0.33 1.32 0.66 2 1 C1.175 1.61875 0.35 2.2375 -0.5 2.875 C-1.7375 3.926875 -1.7375 3.926875 -3 5 C-3 5.66 -3 6.32 -3 7 C-0.53673288 8.6446674 -0.53673288 8.6446674 2 10 C1.01 10.495 1.01 10.495 0 11 C-2.1640625 10.00390625 -2.1640625 10.00390625 -4.625 8.5625 C-5.44226563 8.08941406 -6.25953125 7.61632812 -7.1015625 7.12890625 C-7.72804688 6.75636719 -8.35453125 6.38382813 -9 6 C-6.30165 3.1324997 -3.64316175 1.5502816 0 0 Z " fill="#0C142F" transform="translate(290,592)"/>
<path d="M0 0 C0.33 0.99 0.66 1.98 1 3 C-1.64 4.65 -4.28 6.3 -7 8 C-4.9957983 3.9915966 -3.50944037 2.58590343 0 0 Z " fill="#091332" transform="translate(1282,481)"/>
<path d="M0 0 C0.99 0 1.98 0 3 0 C3 2.97 3 5.94 3 9 C2.01 8.34 1.02 7.68 0 7 C-0.1875 3.375 -0.1875 3.375 0 0 Z " fill="#192B4E" transform="translate(455,504)"/>
<path d="M0 0 C2.25 -0.25 2.25 -0.25 5 0 C7.3125 2 7.3125 2 9 4 C3.46153846 3.38461538 3.46153846 3.38461538 1.125 1.4375 C0.75375 0.963125 0.3825 0.48875 0 0 Z " fill="#131B37" transform="translate(1188,553)"/>
</svg>
