<?xml version="1.0" encoding="UTF-8"?>
<svg version="1.1" xmlns="http://www.w3.org/2000/svg" width="64" height="64">
<path d="M0 0 C0.99773438 -0.00315216 1.99546875 -0.00630432 3.0234375 -0.009552 C4.65152344 -0.00651566 4.65152344 -0.00651566 6.3125 -0.00341797 C7.97152344 -0.00485306 7.97152344 -0.00485306 9.6640625 -0.00631714 C12.00781308 -0.00699913 14.35156553 -0.00514351 16.6953125 -0.00097656 C20.29691788 0.00437139 23.89839853 -0.00092093 27.5 -0.00732422 C29.77083361 -0.00666344 32.04166714 -0.00538229 34.3125 -0.00341797 C35.94058594 -0.00645432 35.94058594 -0.00645432 37.6015625 -0.009552 C38.59929688 -0.00639984 39.59703125 -0.00324768 40.625 0 C41.50800781 0.00079559 42.39101563 0.00159119 43.30078125 0.00241089 C45.3125 0.12939453 45.3125 0.12939453 46.3125 1.12939453 C46.41170863 3.0570127 46.44049365 4.98828807 46.44189453 6.91845703 C46.44504669 8.15644043 46.44819885 9.39442383 46.45144653 10.66992188 C46.44965675 12.03141312 46.4476058 13.39290404 46.4453125 14.75439453 C46.44598559 16.14062517 46.44695566 17.5268557 46.44821167 18.91308594 C46.4496884 21.82178875 46.4475349 24.7304609 46.44287109 27.63916016 C46.43717381 31.37536052 46.44045294 35.11148905 46.44644356 38.84768677 C46.45004985 41.71118719 46.44891027 44.57467046 46.44631577 47.43817139 C46.44564668 48.81614185 46.44647426 50.19411385 46.44879532 51.57208252 C46.45132292 53.49483207 46.44679024 55.41758705 46.44189453 57.34033203 C46.44109894 58.43651855 46.44030334 59.53270508 46.43948364 60.66210938 C46.3125 63.12939453 46.3125 63.12939453 45.3125 64.12939453 C43.75250952 64.2278642 42.18809456 64.25738071 40.625 64.25878906 C39.62726562 64.26194122 38.62953125 64.26509338 37.6015625 64.26834106 C36.51617187 64.26631683 35.43078125 64.2642926 34.3125 64.26220703 C33.20648438 64.26316376 32.10046875 64.26412048 30.9609375 64.2651062 C28.61718692 64.2657882 26.27343447 64.26393257 23.9296875 64.25976562 C20.32808212 64.25441767 16.72660147 64.25971 13.125 64.26611328 C10.85416639 64.2654525 8.58333286 64.26417135 6.3125 64.26220703 C5.22710938 64.26423126 4.14171875 64.26625549 3.0234375 64.26834106 C2.02570312 64.2651889 1.02796875 64.26203674 0 64.25878906 C-0.88300781 64.25799347 -1.76601562 64.25719788 -2.67578125 64.25637817 C-4.6875 64.12939453 -4.6875 64.12939453 -5.6875 63.12939453 C-5.72813832 61.46322338 -5.730221 59.79551358 -5.6875 58.12939453 C-7.3375 57.79939453 -8.9875 57.46939453 -10.6875 57.12939453 C-10.3575 55.80939453 -10.0275 54.48939453 -9.6875 53.12939453 C-8.3675 53.12939453 -7.0475 53.12939453 -5.6875 53.12939453 C-5.6875 51.47939453 -5.6875 49.82939453 -5.6875 48.12939453 C-7.3375 48.12939453 -8.9875 48.12939453 -10.6875 48.12939453 C-10.6875 46.80939453 -10.6875 45.48939453 -10.6875 44.12939453 C-9.0375 44.12939453 -7.3875 44.12939453 -5.6875 44.12939453 C-5.6875 42.47939453 -5.6875 40.82939453 -5.6875 39.12939453 C-7.3375 39.12939453 -8.9875 39.12939453 -10.6875 39.12939453 C-10.3575 37.47939453 -10.0275 35.82939453 -9.6875 34.12939453 C-8.3675 34.12939453 -7.0475 34.12939453 -5.6875 34.12939453 C-5.6875 32.80939453 -5.6875 31.48939453 -5.6875 30.12939453 C-7.3375 30.12939453 -8.9875 30.12939453 -10.6875 30.12939453 C-11.25 28.19189453 -11.25 28.19189453 -11.6875 26.12939453 C-10.6875 25.12939453 -10.6875 25.12939453 -8.125 25.06689453 C-6.9184375 25.09783203 -6.9184375 25.09783203 -5.6875 25.12939453 C-5.6875 23.47939453 -5.6875 21.82939453 -5.6875 20.12939453 C-7.3375 20.12939453 -8.9875 20.12939453 -10.6875 20.12939453 C-10.6875 18.80939453 -10.6875 17.48939453 -10.6875 16.12939453 C-9.0375 16.12939453 -7.3875 16.12939453 -5.6875 16.12939453 C-5.6875 14.47939453 -5.6875 12.82939453 -5.6875 11.12939453 C-7.3375 11.12939453 -8.9875 11.12939453 -10.6875 11.12939453 C-11.25 9.19189453 -11.25 9.19189453 -11.6875 7.12939453 C-10.6875 6.12939453 -10.6875 6.12939453 -8.125 6.06689453 C-6.9184375 6.09783203 -6.9184375 6.09783203 -5.6875 6.12939453 C-5.708125 5.32501953 -5.72875 4.52064453 -5.75 3.69189453 C-5.64321486 -0.68629624 -3.89190254 0.00350662 0 0 Z " fill="#64B8FD" transform="translate(14.6875,-0.12939453125)"/>
<path d="M0 0 C3.75787374 2.42174086 6.13588429 4.49018027 7.41796875 8.890625 C8.11743653 12.96277406 8.11974294 15.98010704 6.1875 19.6875 C3.2245346 23.58613869 1.40580417 25.38028264 -3.484375 26.1953125 C-8.35456494 26.53474998 -11.42964586 26.16656158 -15.25 23 C-18.69494634 19.71716878 -19.37587274 16.67285948 -19.5625 12 C-19.53063885 8.36251885 -19.23834179 6.17090774 -16.9375 3.3125 C-11.58684507 -1.55173175 -7.0445965 -2.62445752 0 0 Z " fill="#F9F5F7" transform="translate(43.1875,7.1875)"/>
<path d="M0 0 C1.32 0.33 2.64 0.66 4 1 C4.02312737 9.06652174 4.04091709 17.13302972 4.05181217 25.19957638 C4.05704014 28.94483037 4.06413622 32.69006176 4.07543945 36.43530273 C4.08627141 40.04681687 4.09227749 43.65830921 4.09487724 47.26983833 C4.09673094 48.65060329 4.10035049 50.031367 4.10573006 51.41212273 C4.11294447 53.33975952 4.11340809 55.26741807 4.11352539 57.19506836 C4.115746 58.29427109 4.11796661 59.39347382 4.12025452 60.52598572 C4 63 4 63 3 64 C1.43452952 64.09326716 -0.13512772 64.11745582 -1.70336914 64.11352539 C-2.70433121 64.11344986 -3.70529327 64.11337433 -4.73658752 64.11329651 C-5.8251152 64.10813522 -6.91364288 64.10297394 -8.03515625 64.09765625 C-9.14354355 64.0962413 -10.25193085 64.09482635 -11.39390564 64.09336853 C-14.95013069 64.08775033 -18.50629383 64.07519475 -22.0625 64.0625 C-24.46679597 64.05748734 -26.87109292 64.05292403 -29.27539062 64.04882812 C-35.18361504 64.03777499 -41.0918031 64.02101917 -47 64 C-47.33 62.68 -47.66 61.36 -48 60 C-46.8447583 59.98541748 -45.6895166 59.97083496 -44.49926758 59.95581055 C-40.20322088 59.89773178 -35.90769306 59.8204995 -31.61206055 59.73754883 C-29.7547245 59.70434451 -27.89728863 59.67629859 -26.03979492 59.65356445 C-23.36594202 59.61993558 -20.69300007 59.56761626 -18.01953125 59.51171875 C-17.19226028 59.50532883 -16.36498932 59.4989389 -15.51264954 59.49235535 C-10.89740083 59.37529838 -7.67634697 59.0821472 -4 56 C0.24304902 51.32991163 -0.5231776 45.3067949 -0.48828125 39.35546875 C-0.47033005 38.2305452 -0.45237885 37.10562164 -0.43388367 35.9466095 C-0.37978284 32.36027757 -0.34588475 28.77407875 -0.3125 25.1875 C-0.27932683 22.75323669 -0.24483718 20.31899094 -0.20898438 17.88476562 C-0.12405637 11.92329643 -0.05570534 5.96181001 0 0 Z " fill="#29A7FE" transform="translate(57,0)"/>
<path d="M0 0 C10.56 0 21.12 0 32 0 C32 1.32 32 2.64 32 4 C21.44 4 10.88 4 0 4 C0 2.68 0 1.36 0 0 Z " fill="#FBD05E" transform="translate(21,40)"/>
<path d="M0 0 C3.73066922 2.65073865 5.82689955 4.5208892 7 9 C7.69666335 14.34108565 6.18889857 17.83233058 3 22 C-0.83954934 25.50076557 -4.73233312 25.35318237 -9.6953125 25.3984375 C-12.41235079 24.92871224 -13.29284768 24.10883522 -15 22 C-13.96875 22.061875 -12.9375 22.12375 -11.875 22.1875 C-6.94063286 21.9487403 -3.86163191 20.6690493 -0.1875 17.375 C2.24069635 12.51860729 2.42956148 7.63233362 1.0625 2.4375 C0.711875 1.633125 0.36125 0.82875 0 0 Z " fill="#EDE5E9" transform="translate(44,8)"/>
<path d="M0 0 C7.59 0 15.18 0 23 0 C23.33 0.99 23.66 1.98 24 3 C16.08 3 8.16 3 0 3 C0 2.01 0 1.02 0 0 Z " fill="#C3DFFA" transform="translate(25,53)"/>
<path d="M0 0 C1.37478516 0.01740234 1.37478516 0.01740234 2.77734375 0.03515625 C3.69644531 0.04417969 4.61554687 0.05320312 5.5625 0.0625 C6.27277344 0.07410156 6.98304687 0.08570312 7.71484375 0.09765625 C8.04484375 1.41765625 8.37484375 2.73765625 8.71484375 4.09765625 C5.08484375 4.42765625 1.45484375 4.75765625 -2.28515625 5.09765625 C-2.61515625 3.77765625 -2.94515625 2.45765625 -3.28515625 1.09765625 C-2.28515625 0.09765625 -2.28515625 0.09765625 0 0 Z " fill="#4E68D2" transform="translate(6.28515625,24.90234375)"/>
<path d="M0 0 C1.69141656 0.08963062 3.37959602 0.24577676 5.0625 0.4375 C6.44115234 0.59025391 6.44115234 0.59025391 7.84765625 0.74609375 C8.55792969 0.82988281 9.26820312 0.91367188 10 1 C10 2.32 10 3.64 10 5 C6.7 5 3.4 5 0 5 C-0.33 3.68 -0.66 2.36 -1 1 C-0.67 0.67 -0.34 0.34 0 0 Z " fill="#506BD2" transform="translate(4,6)"/>
<path d="M0 0 C1.37478516 0.01740234 1.37478516 0.01740234 2.77734375 0.03515625 C3.69644531 0.04417969 4.61554687 0.05320313 5.5625 0.0625 C6.27277344 0.07410156 6.98304687 0.08570313 7.71484375 0.09765625 C7.71484375 1.41765625 7.71484375 2.73765625 7.71484375 4.09765625 C4.41484375 4.42765625 1.11484375 4.75765625 -2.28515625 5.09765625 C-2.61515625 3.77765625 -2.94515625 2.45765625 -3.28515625 1.09765625 C-2.28515625 0.09765625 -2.28515625 0.09765625 0 0 Z " fill="#4F6BD2" transform="translate(7.28515625,52.90234375)"/>
<path d="M0 0 C3.3 0.33 6.6 0.66 10 1 C9.67 2.32 9.34 3.64 9 5 C5.7 5 2.4 5 -1 5 C-0.67 3.35 -0.34 1.7 0 0 Z " fill="#506AD2" transform="translate(5,34)"/>
<path d="M0 0 C0 2.64 0 5.28 0 8 C-1.98 8 -3.96 8 -6 8 C-6 5.69 -6 3.38 -6 1 C-4 0 -4 0 0 0 Z " fill="#677AD5" transform="translate(40,20)"/>
<path d="M0 0 C3.63 0 7.26 0 11 0 C11 1.32 11 2.64 11 4 C7.37 4 3.74 4 0 4 C0 2.68 0 1.36 0 0 Z " fill="#4F69D1" transform="translate(4,44)"/>
<path d="M0 0 C3.3 0 6.6 0 10 0 C10 1.32 10 2.64 10 4 C6.7 4 3.4 4 0 4 C0 2.68 0 1.36 0 0 Z " fill="#4F68D1" transform="translate(4,16)"/>
<path d="M0 0 C1.65 0.33 3.3 0.66 5 1 C4.67 2.32 4.34 3.64 4 5 C2.35 4.67 0.7 4.34 -1 4 C-0.67 2.68 -0.34 1.36 0 0 Z " fill="#6A7CD6" transform="translate(35,12)"/>
</svg>
