<?xml version="1.0" encoding="UTF-8"?>
<svg version="1.1" xmlns="http://www.w3.org/2000/svg" width="64" height="64">
<path d="M0 0 C15.18 0 30.36 0 46 0 C46.495 9.405 46.495 9.405 47 19 C49.475 20.98 49.475 20.98 52 23 C52.58007812 25.01123047 52.58007812 25.01123047 52.53125 27.1171875 C52.54091797 28.27541016 52.54091797 28.27541016 52.55078125 29.45703125 C52.51709109 31.06120137 52.48323852 32.66536809 52.44921875 34.26953125 C52.50028209 40.40734435 53.89250986 42.50863228 58 47 C59.05516971 51.07171372 58.98509604 55.20002672 56.9375 58.94140625 C55.18932476 61.10061079 53.49542479 62.7522876 51 64 C48.7578125 64.203125 48.7578125 64.203125 46.125 64.25 C45.26132812 64.27578125 44.39765625 64.3015625 43.5078125 64.328125 C41 64 41 64 39.45556641 62.51147461 C35.58422081 60.12854554 31.66465017 60.51927153 27.203125 60.48828125 C25.77996979 60.46135445 25.77996979 60.46135445 24.32806396 60.43388367 C21.30208765 60.37976494 18.27626922 60.34587974 15.25 60.3125 C13.19659261 60.27932833 11.14320605 60.24483881 9.08984375 60.20898438 C4.06000972 60.12403743 -0.96977736 60.05723349 -6 60 C-6.12369707 54.80396196 -6.21438309 49.60878256 -6.2746582 44.41162109 C-6.29978641 42.64421662 -6.33389516 40.8769159 -6.37719727 39.10986328 C-6.43792735 36.56777351 -6.46622515 34.02705835 -6.48828125 31.484375 C-6.51408768 30.69569031 -6.5398941 29.90700562 -6.56648254 29.09442139 C-6.56762695 26.85058594 -6.56762695 26.85058594 -6 23 C-4.35 21.68 -2.7 20.36 -1 19 C-0.67 12.73 -0.34 6.46 0 0 Z " fill="#01BEBD" transform="translate(6,0)"/>
<path d="M0 0 C15.18 0 30.36 0 46 0 C47.98443656 25.56421213 47.98443656 25.56421213 44.46044922 31.66552734 C40.31109205 36.29139533 35.00479899 40.21585161 29 42 C26.17089755 42.02128086 23.80478827 41.55263837 21 41 C20.34870117 41.185625 19.69740234 41.37125 19.02636719 41.5625 C15.62050473 42.29783801 13.49881272 40.62867309 10.60131836 38.9362793 C5.09259419 35.27847729 0.74245748 32.26764145 -0.78759766 25.53369141 C-1.52090866 16.84719934 -0.68232556 8.78995873 0 0 Z " fill="#EEEFEE" transform="translate(6,0)"/>
<path d="M0 0 C-0.1134375 0.58265625 -0.226875 1.1653125 -0.34375 1.765625 C-0.55191864 5.07550641 -0.31846739 6.91021777 1 10 C4.12294288 13.09466389 7.71573274 15.53564693 11.359375 17.97558594 C12.07738281 18.45672852 12.79539062 18.93787109 13.53515625 19.43359375 C14.199104 19.85697021 14.86305176 20.28034668 15.54711914 20.71655273 C16.02656982 21.14009033 16.50602051 21.56362793 17 22 C17 22.99 17 23.98 17 25 C15.42700195 26.48632813 15.42700195 26.48632813 13.23828125 28.03125 C12.44873047 28.59457031 11.65917969 29.15789063 10.84570312 29.73828125 C9.59176758 30.61033203 9.59176758 30.61033203 8.3125 31.5 C7.49587891 32.08136719 6.67925781 32.66273437 5.83789062 33.26171875 C1.96991209 35.9990574 -1.9159864 38.59273251 -6 41 C-6.12369707 35.80396196 -6.21438309 30.60878256 -6.2746582 25.41162109 C-6.29978641 23.64421662 -6.33389516 21.8769159 -6.37719727 20.10986328 C-6.43792735 17.56777351 -6.46622515 15.02705835 -6.48828125 12.484375 C-6.51408768 11.69569031 -6.5398941 10.90700562 -6.56648254 10.09442139 C-6.5685335 6.07312397 -6.39284803 4.40275764 -3.53198242 1.46972656 C-1 0 -1 0 0 0 Z " fill="#4FD8D6" transform="translate(6,19)"/>
<path d="M0 0 C3.14818495 1.78680767 4.52056927 3.12684537 6.3125 6.3125 C7.06356712 10.47814077 7.32185919 14.45766281 5.25390625 18.2578125 C2.86272881 21.19534205 0.9011785 23.11567257 -2.89453125 23.5859375 C-9.95590855 23.86119359 -9.95590855 23.86119359 -13.6875 21.0625 C-17.16360445 16.28285639 -18.51403391 13.40818759 -17.6875 7.3125 C-13.08799901 0.18750613 -8.56917847 -2.19211542 0 0 Z " fill="#FEAB00" transform="translate(57.6875,40.6875)"/>
<path d="M0 0 C1.12535156 0.00580078 1.12535156 0.00580078 2.2734375 0.01171875 C3.02367187 0.00785156 3.77390625 0.00398437 4.546875 0 C10.14682697 0.01010822 10.14682697 0.01010822 11.2734375 1.13671875 C11.3726032 2.75929419 11.40423527 4.38611706 11.40625 6.01171875 C11.40818359 7.48898437 11.40818359 7.48898437 11.41015625 8.99609375 C11.40628906 10.0325 11.40242188 11.06890625 11.3984375 12.13671875 C11.40423828 13.69132812 11.40423828 13.69132812 11.41015625 15.27734375 C11.40886719 16.2621875 11.40757813 17.24703125 11.40625 18.26171875 C11.40512207 19.17179687 11.40399414 20.081875 11.40283203 21.01953125 C11.2734375 23.13671875 11.2734375 23.13671875 10.2734375 24.13671875 C7.5961237 24.23653089 4.95039575 24.2755175 2.2734375 24.26171875 C1.14808594 24.26751953 1.14808594 24.26751953 0 24.2734375 C-5.59995197 24.26332928 -5.59995197 24.26332928 -6.7265625 23.13671875 C-6.8257282 21.51414331 -6.85736027 19.88732044 -6.859375 18.26171875 C-6.86066406 17.276875 -6.86195312 16.29203125 -6.86328125 15.27734375 C-6.85941406 14.2409375 -6.85554687 13.20453125 -6.8515625 12.13671875 C-6.85736328 10.58210937 -6.85736328 10.58210937 -6.86328125 8.99609375 C-6.86199219 8.01125 -6.86070313 7.02640625 -6.859375 6.01171875 C-6.85824707 5.10164062 -6.85711914 4.1915625 -6.85595703 3.25390625 C-6.58958591 -1.10452836 -3.70457058 0.00668695 0 0 Z " fill="#FEAE08" transform="translate(16.7265625,3.86328125)"/>
<path d="M0 0 C2.9765625 1.484375 2.9765625 1.484375 6 4 C6.45895455 7.04745819 6.5817278 9.2497965 6.375 12.25 C6.34792969 12.99507812 6.32085937 13.74015625 6.29296875 14.5078125 C6.22250808 16.33978993 6.11488993 18.17027151 6 20 C5.34773438 19.95359375 4.69546875 19.9071875 4.0234375 19.859375 C-1.89538162 19.61493999 -5.34881773 19.93021552 -10 24 C-10.66 24.99 -11.32 25.98 -12 27 C-14.475 26.01 -14.475 26.01 -17 25 C-17 24.01 -17 23.02 -17 22 C-15.54711914 20.71655273 -15.54711914 20.71655273 -13.53515625 19.43359375 C-12.81714844 18.95245117 -12.09914063 18.47130859 -11.359375 17.97558594 C-10.60140625 17.46801758 -9.8434375 16.96044922 -9.0625 16.4375 C-3.37123191 12.59264577 -3.37123191 12.59264577 0.28515625 6.98828125 C0.47843044 4.52491379 0.47138169 2.42118779 0 0 Z " fill="#50D8D6" transform="translate(52,19)"/>
<path d="M0 0 C3.14818495 1.78680767 4.52056927 3.12684537 6.3125 6.3125 C7.06356712 10.47814077 7.32185919 14.45766281 5.25390625 18.2578125 C2.86272881 21.19534205 0.9011785 23.11567257 -2.89453125 23.5859375 C-9.95590855 23.86119359 -9.95590855 23.86119359 -13.6875 21.0625 C-17.16360445 16.28285639 -18.51403391 13.40818759 -17.6875 7.3125 C-13.08799901 0.18750613 -8.56917847 -2.19211542 0 0 Z M-14.6875 7.3125 C-15.45902986 11.63306721 -15.21497866 13.50369939 -12.8125 17.1875 C-10.11343031 19.88656969 -9.19648995 20.24527491 -5.375 20.75 C-1.49697425 20.64753126 -1.49697425 20.64753126 1.25 17.6875 C3.49841175 14.00828077 4.11728766 12.51527998 3.3125 8.3125 C1.51256226 5.61259338 0.228727 3.7706135 -2.6875 2.3125 C-8.31231584 1.54547966 -10.94324179 3.12249677 -14.6875 7.3125 Z " fill="#E59809" transform="translate(57.6875,40.6875)"/>
<path d="M0 0 C1.98 0 3.96 0 6 0 C6 3.96 6 7.92 6 12 C4.68 12 3.36 12 2 12 C2 8.7 2 5.4 2 2 C1.34 2 0.68 2 0 2 C0 1.34 0 0.68 0 0 Z " fill="#FFFFFF" transform="translate(15,13)"/>
<path d="M0 0 C0.66 0.33 1.32 0.66 2 1 C2 1.66 2 2.32 2 3 C1.34773438 2.95359375 0.69546875 2.9071875 0.0234375 2.859375 C-6.07954686 2.60733435 -9.2968115 3.03942021 -14 7 C-14 6.01 -14 5.02 -14 4 C-9.24761004 -0.15834121 -6.02503417 -0.50208618 0 0 Z " fill="#11BDB5" transform="translate(56,38)"/>
<path d="M0 0 C2.97 1.98 2.97 1.98 6 4 C4.3545622 5.68762851 2.68711423 7.3540349 1 9 C0.67 9 0.34 9 0 9 C0 6.03 0 3.06 0 0 Z " fill="#01AAA8" transform="translate(52,19)"/>
<path d="M0 0 C0 2.97 0 5.94 0 9 C-2.5 7.6875 -2.5 7.6875 -5 6 C-5 5.01 -5 4.02 -5 3 C-1.55555556 0 -1.55555556 0 0 0 Z " fill="#01AAA8" transform="translate(6,19)"/>
<path d="M0 0 C0.66 0.33 1.32 0.66 2 1 C1.95875 2.051875 1.9175 3.10375 1.875 4.1875 C1.99147875 7.74010173 2.47208068 9.84866641 4 13 C3.01 13 2.02 13 1 13 C-1.32845886 9.36178302 -1.23553948 6.23971058 -1 2 C-0.67 1.34 -0.34 0.68 0 0 Z " fill="#09AAA3" transform="translate(39,47)"/>
<path d="M0 0 C0.66 0 1.32 0 2 0 C2 3.3 2 6.6 2 10 C1.34 10 0.68 10 0 10 C0 8.02 0 6.04 0 4 C-0.66 4 -1.32 4 -2 4 C-1.34 2.68 -0.68 1.36 0 0 Z " fill="#FFF9ED" transform="translate(51,47)"/>
</svg>
