<?xml version="1.0" encoding="UTF-8"?>
<svg version="1.1" xmlns="http://www.w3.org/2000/svg" width="64" height="64">
<path d="M0 0 C1.11785889 -0.00315216 2.23571777 -0.00630432 3.38745117 -0.009552 C5.21240112 -0.00651566 5.21240112 -0.00651566 7.07421875 -0.00341797 C8.31341064 -0.00437469 9.55260254 -0.00533142 10.8293457 -0.00631714 C13.45560156 -0.00699921 16.08176508 -0.00564085 18.70800781 -0.00097656 C22.08100589 0.00472073 25.4539244 0.00144151 28.82691956 -0.00454903 C32.03435552 -0.00902317 35.24178175 -0.00589429 38.44921875 -0.00341797 C39.66585205 -0.0054422 40.88248535 -0.00746643 42.13598633 -0.009552 C43.81277466 -0.00482376 43.81277466 -0.00482376 45.5234375 0 C46.51303467 0.00079559 47.50263184 0.00159119 48.5222168 0.00241089 C50.76171875 0.12939453 50.76171875 0.12939453 51.76171875 1.12939453 C51.84857478 2.69112198 51.86874094 4.25668797 51.859375 5.82080078 C51.85615234 6.76503906 51.85292969 7.70927734 51.84960938 8.68212891 C51.83704102 10.17196289 51.83704102 10.17196289 51.82421875 11.69189453 C51.81970703 12.68898438 51.81519531 13.68607422 51.81054688 14.71337891 C51.79871882 17.18544302 51.78223724 19.65738971 51.76171875 22.12939453 C53.74171875 22.45939453 55.72171875 22.78939453 57.76171875 23.12939453 C57.76171875 33.02939453 57.76171875 42.92939453 57.76171875 53.12939453 C55.40971815 54.30539483 54.02437474 54.25023994 51.40380859 54.24291992 C50.05263443 54.24280663 50.05263443 54.24280663 48.67416382 54.24269104 C47.70016632 54.23752975 46.72616882 54.23236847 45.72265625 54.22705078 C44.72666412 54.22563583 43.730672 54.22422089 42.70449829 54.22276306 C39.51520822 54.21715389 36.32598769 54.20459983 33.13671875 54.19189453 C30.9778656 54.18688071 28.81901134 54.1823176 26.66015625 54.17822266 C21.36065325 54.16718148 16.06119097 54.15043441 10.76171875 54.12939453 C10.19921875 52.19189453 10.19921875 52.19189453 9.76171875 50.12939453 C10.76171875 49.12939453 10.76171875 49.12939453 13.32421875 49.06689453 C14.12859375 49.08751953 14.93296875 49.10814453 15.76171875 49.12939453 C15.76171875 47.80939453 15.76171875 46.48939453 15.76171875 45.12939453 C14.86864014 45.14510498 14.86864014 45.14510498 13.95751953 45.16113281 C11.26729532 45.20263403 8.57713838 45.22870157 5.88671875 45.25439453 C4.94957031 45.27115234 4.01242187 45.28791016 3.046875 45.30517578 C2.15097656 45.31162109 1.25507812 45.31806641 0.33203125 45.32470703 C-0.49538574 45.33518066 -1.32280273 45.3456543 -2.17529297 45.35644531 C-4.23828125 45.12939453 -4.23828125 45.12939453 -6.23828125 43.12939453 C-6.48551941 41.3011322 -6.48551941 41.3011322 -6.48120117 39.06274414 C-6.4842778 38.22525131 -6.48735443 37.38775848 -6.49052429 36.52488708 C-6.48333878 35.61964798 -6.47615326 34.71440887 -6.46875 33.78173828 C-6.46829178 32.85470596 -6.46783356 31.92767365 -6.46736145 30.97254944 C-6.46433779 29.01139039 -6.4564481 27.05023378 -6.4440918 25.08911133 C-6.42583497 22.07576051 -6.42358207 19.06271675 -6.42382812 16.04931641 C-6.4189131 14.14762102 -6.41308484 12.24592773 -6.40625 10.34423828 C-6.40513718 9.43697495 -6.40402435 8.52971161 -6.40287781 7.59495544 C-6.34484138 0.00510098 -6.34484138 0.00510098 0 0 Z " fill="#192B41" transform="translate(6.23828125,7.87060546875)"/>
<path d="M0 0 C7.92 0 15.84 0 24 0 C24 2.64 24 5.28 24 8 C25.299375 8.144375 26.59875 8.28875 27.9375 8.4375 C31.875 8.875 31.875 8.875 33 10 C33.09971786 11.91458282 33.13080589 13.83282317 33.1328125 15.75 C33.13474609 17.49796875 33.13474609 17.49796875 33.13671875 19.28125 C33.13285156 20.5084375 33.12898438 21.735625 33.125 23 C33.13080078 24.84078125 33.13080078 24.84078125 33.13671875 26.71875 C33.13542969 27.8840625 33.13414063 29.049375 33.1328125 30.25 C33.13168457 31.32765625 33.13055664 32.4053125 33.12939453 33.515625 C33 36 33 36 32 37 C29.46950598 37.07313567 26.96695163 37.09247527 24.4375 37.0625 C23.72658203 37.05798828 23.01566406 37.05347656 22.28320312 37.04882812 C20.52209987 37.03700864 18.76103964 37.01907263 17 37 C16.34 35.02 15.68 33.04 15 31 C11.04 31 7.08 31 3 31 C3 31.33 3 31.66 3 32 C6.96 32.33 10.92 32.66 15 33 C15 33.66 15 34.32 15 35 C10.05 35 5.1 35 0 35 C0 23.45 0 11.9 0 0 Z " fill="#252724" transform="translate(30,23)"/>
<path d="M0 0 C16.5 0 33 0 50 0 C50 1.32 50 2.64 50 4 C36.635 4.495 36.635 4.495 23 5 C23 7.64 23 10.28 23 13 C20.36 13.33 17.72 13.66 15 14 C15 17.96 15 21.92 15 26 C17.31 26.33 19.62 26.66 22 27 C22 27.33 22 27.66 22 28 C14.74 28 7.48 28 0 28 C0 18.76 0 9.52 0 0 Z " fill="#E5ECF4" transform="translate(4,15)"/>
<path d="M0 0 C0.33 0 0.66 0 1 0 C1 2.97 1 5.94 1 9 C2.98 9.33 4.96 9.66 7 10 C7 19.9 7 29.8 7 40 C4.6479994 41.1760003 3.26265599 41.12084541 0.64208984 41.11352539 C-0.70908432 41.11341209 -0.70908432 41.11341209 -2.08755493 41.11329651 C-3.06155243 41.10813522 -4.03554993 41.10297394 -5.0390625 41.09765625 C-6.03505463 41.0962413 -7.03104675 41.09482635 -8.05722046 41.09336853 C-11.24651053 41.08775936 -14.43573106 41.0752053 -17.625 41.0625 C-19.78385315 41.05748618 -21.94270741 41.05292307 -24.1015625 41.04882812 C-29.4010655 41.03778695 -34.70052778 41.02103988 -40 41 C-40.5625 39.0625 -40.5625 39.0625 -41 37 C-40 36 -40 36 -37.4375 35.9375 C-36.633125 35.958125 -35.82875 35.97875 -35 36 C-35 34.68 -35 33.36 -35 32 C-41.6 32 -48.2 32 -55 32 C-55.33 31.34 -55.66 30.68 -56 30 C-47.42 30 -38.84 30 -30 30 C-30 27.69 -30 25.38 -30 23 C-37.59 23 -45.18 23 -53 23 C-53 22.67 -53 22.34 -53 22 C-45.08 21.67 -37.16 21.34 -29 21 C-29 25.95 -29 30.9 -29 36 C-29.33 36 -29.66 36 -30 36 C-30 34.35 -30 32.7 -30 31 C-30.99 31 -31.98 31 -33 31 C-33 32.98 -33 34.96 -33 37 C-34.98 37 -36.96 37 -39 37 C-39 37.66 -39 38.32 -39 39 C-36.03 39 -33.06 39 -30 39 C-29.67 38.34 -29.34 37.68 -29 37 C-28.505 37.495 -28.505 37.495 -28 38 C-28 25.79 -28 13.58 -28 1 C-19.42 1 -10.84 1 -2 1 C-2 3.97 -2 6.94 -2 10 C-1.34 10 -0.68 10 0 10 C0 6.7 0 3.4 0 0 Z M-27 2 C-27 13.55 -27 25.1 -27 37 C-22.05 37 -17.1 37 -12 37 C-12 36.34 -12 35.68 -12 35 C-15.96 34.67 -19.92 34.34 -24 34 C-24 33.67 -24 33.34 -24 33 C-20.04 33 -16.08 33 -12 33 C-11.34 34.98 -10.68 36.96 -10 39 C-7.52076199 39.02685095 -5.0418116 39.04676547 -2.5625 39.0625 C-1.85544922 39.07087891 -1.14839844 39.07925781 -0.41992188 39.08789062 C1.38693559 39.09653588 3.19387603 39.05220011 5 39 C6.77449594 37.22550406 6.13030072 34.64982739 6.1328125 32.25 C6.13410156 31.0846875 6.13539062 29.919375 6.13671875 28.71875 C6.13091797 26.87796875 6.13091797 26.87796875 6.125 25 C6.12886719 23.7728125 6.13273437 22.545625 6.13671875 21.28125 C6.13542969 20.1159375 6.13414063 18.950625 6.1328125 17.75 C6.13112061 16.13351563 6.13112061 16.13351563 6.12939453 14.484375 C6.28092371 12.05780003 6.28092371 12.05780003 5 11 C3.65252916 10.76924918 2.29622435 10.58846937 0.9375 10.4375 C-0.361875 10.293125 -1.66125 10.14875 -3 10 C-3 7.36 -3 4.72 -3 2 C-10.92 2 -18.84 2 -27 2 Z " fill="#0E0C10" transform="translate(57,21)"/>
<path d="M0 0 C7.92 0 15.84 0 24 0 C24 2.64 24 5.28 24 8 C18.96145894 8.83211276 14.1874338 9.1078534 9.0625 9.0625 C8.37865234 9.05798828 7.69480469 9.05347656 6.99023438 9.04882812 C5.32678396 9.0371956 3.6633795 9.01926694 2 9 C2.33 10.98 2.66 12.96 3 15 C6.96 15.33 10.92 15.66 15 16 C15 16.33 15 16.66 15 17 C11.04 17.33 7.08 17.66 3 18 C2.67 19.98 2.34 21.96 2 24 C6.29 24 10.58 24 15 24 C15 24.66 15 25.32 15 26 C10.71 26 6.42 26 2 26 C2.33 27.98 2.66 29.96 3 32 C6.96 32.33 10.92 32.66 15 33 C15 33.66 15 34.32 15 35 C10.05 35 5.1 35 0 35 C0 23.45 0 11.9 0 0 Z " fill="#DBE2E9" transform="translate(30,23)"/>
<path d="M0 0 C1.12148438 0.00322266 2.24296875 0.00644531 3.3984375 0.00976562 C4.5740625 0.01814453 5.7496875 0.02652344 6.9609375 0.03515625 C8.14429687 0.03966797 9.32765625 0.04417969 10.546875 0.04882812 C13.47661257 0.06064158 16.40625022 0.07711367 19.3359375 0.09765625 C19.3359375 0.75765625 19.3359375 1.41765625 19.3359375 2.09765625 C19.9959375 2.09765625 20.6559375 2.09765625 21.3359375 2.09765625 C21.3359375 5.39765625 21.3359375 8.69765625 21.3359375 12.09765625 C21.0059375 12.09765625 20.6759375 12.09765625 20.3359375 12.09765625 C20.3359375 9.12765625 20.3359375 6.15765625 20.3359375 3.09765625 C11.7559375 3.09765625 3.1759375 3.09765625 -5.6640625 3.09765625 C-5.6640625 15.30765625 -5.6640625 27.51765625 -5.6640625 40.09765625 C-0.3840625 40.09765625 4.8959375 40.09765625 10.3359375 40.09765625 C10.3359375 40.42765625 10.3359375 40.75765625 10.3359375 41.09765625 C1.4259375 41.09765625 -7.4840625 41.09765625 -16.6640625 41.09765625 C-16.6640625 40.43765625 -16.6640625 39.77765625 -16.6640625 39.09765625 C-14.6840625 39.09765625 -12.7040625 39.09765625 -10.6640625 39.09765625 C-10.6640625 37.11765625 -10.6640625 35.13765625 -10.6640625 33.09765625 C-9.6740625 33.09765625 -8.6840625 33.09765625 -7.6640625 33.09765625 C-7.6640625 30.12765625 -7.6640625 27.15765625 -7.6640625 24.09765625 C-8.9634375 23.95328125 -10.2628125 23.80890625 -11.6015625 23.66015625 C-15.5390625 23.22265625 -15.5390625 23.22265625 -16.6640625 22.09765625 C-16.76280066 20.09966053 -16.79378049 18.09808467 -16.7890625 16.09765625 C-16.79164062 15.00453125 -16.79421875 13.91140625 -16.796875 12.78515625 C-16.6640625 10.09765625 -16.6640625 10.09765625 -15.6640625 9.09765625 C-12.99347399 8.95650464 -10.33974012 9.05518518 -7.6640625 9.09765625 C-7.6640625 6.45765625 -7.6640625 3.81765625 -7.6640625 1.09765625 C-5.00228029 -0.23323485 -2.97666854 -0.01503368 0 0 Z " fill="#41413B" transform="translate(34.6640625,18.90234375)"/>
<path d="M0 0 C4.29 0 8.58 0 13 0 C13.02682987 3.64588169 13.04675569 7.29156846 13.0625 10.9375 C13.07087891 11.97841797 13.07925781 13.01933594 13.08789062 14.09179688 C13.09111328 15.08115234 13.09433594 16.07050781 13.09765625 17.08984375 C13.10289307 18.00628662 13.10812988 18.92272949 13.11352539 19.86694336 C13 22 13 22 12 23 C10.16884117 23.09851171 8.33380067 23.12972629 6.5 23.125 C5.4996875 23.12757812 4.499375 23.13015625 3.46875 23.1328125 C1 23 1 23 0 22 C-0.08700342 20.36527118 -0.10701063 18.72685945 -0.09765625 17.08984375 C-0.09443359 16.10048828 -0.09121094 15.11113281 -0.08789062 14.09179688 C-0.07951172 13.05087891 -0.07113281 12.00996094 -0.0625 10.9375 C-0.05798828 9.89271484 -0.05347656 8.84792969 -0.04882812 7.77148438 C-0.03699927 5.18096546 -0.01906319 2.59047578 0 0 Z " fill="#767A7C" transform="translate(48,35)"/>
<path d="M0 0 C1.05456894 -0.00637985 2.10913788 -0.0127597 3.19566345 -0.01933289 C4.34353836 -0.02044571 5.49141327 -0.02155853 6.67407227 -0.02270508 C7.84430435 -0.02603348 9.01453644 -0.02936188 10.2202301 -0.03279114 C12.70101527 -0.03786542 15.1818073 -0.04019931 17.66259766 -0.04003906 C21.47057271 -0.0422249 25.27825794 -0.06037384 29.08618164 -0.0793457 C31.49047752 -0.08227957 33.89477478 -0.08426441 36.29907227 -0.08520508 C37.44492294 -0.09239059 38.59077362 -0.09957611 39.77134705 -0.10697937 C41.3579287 -0.10236443 41.3579287 -0.10236443 42.9765625 -0.09765625 C43.91064438 -0.09908127 44.84472626 -0.10050629 45.80711365 -0.10197449 C48.05297852 0.14526367 48.05297852 0.14526367 50.05297852 2.14526367 C50.24829102 4.30932617 50.24829102 4.30932617 50.17797852 6.77026367 C50.15993164 7.5875293 50.14188477 8.40479492 50.12329102 9.24682617 C50.10008789 9.87331055 50.07688477 10.49979492 50.05297852 11.14526367 C49.39297852 11.14526367 48.73297852 11.14526367 48.05297852 11.14526367 C48.05297852 8.17526367 48.05297852 5.20526367 48.05297852 2.14526367 C30.89297852 2.14526367 13.73297852 2.14526367 -3.94702148 2.14526367 C-3.61702148 3.46526367 -3.28702148 4.78526367 -2.94702148 6.14526367 C-2.8655455 8.31585399 -2.83949207 10.48879218 -2.84936523 12.66088867 C-2.85258789 13.9112793 -2.85581055 15.16166992 -2.85913086 16.44995117 C-2.86750977 17.7519043 -2.87588867 19.05385742 -2.88452148 20.39526367 C-2.8890332 21.71268555 -2.89354492 23.03010742 -2.89819336 24.38745117 C-2.90997832 27.64010108 -2.92643137 30.89265952 -2.94702148 34.14526367 C-3.93702148 34.14526367 -4.92702148 34.14526367 -5.94702148 34.14526367 C-5.97167437 29.46387113 -5.98985888 24.78251608 -6.00195312 20.10107422 C-6.00699306 18.50731753 -6.01382498 16.91356548 -6.02246094 15.31982422 C-6.03454147 13.03376115 -6.04025304 10.747759 -6.04467773 8.46166992 C-6.04983902 7.74499649 -6.05500031 7.02832306 -6.06031799 6.28993225 C-6.06051411 4.57462695 -6.00894156 2.85945101 -5.94702148 1.14526367 C-4.2826869 -0.51907091 -2.28731615 0.00934203 0 0 Z " fill="#315684" transform="translate(6.947021484375,8.854736328125)"/>
<path d="M0 0 C8.58 0 17.16 0 26 0 C26 2.31 26 4.62 26 7 C21.85418113 7.02886751 17.70838784 7.04675327 13.5625 7.0625 C11.78649414 7.07506836 11.78649414 7.07506836 9.97460938 7.08789062 C8.84990234 7.09111328 7.72519531 7.09433594 6.56640625 7.09765625 C5.00321655 7.10551147 5.00321655 7.10551147 3.40844727 7.11352539 C1 7 1 7 0 6 C0 4.02 0 2.04 0 0 Z " fill="#D8DFE6" transform="translate(1,44)"/>
<path d="M0 0 C0.70253906 0.00386719 1.40507813 0.00773437 2.12890625 0.01171875 C2.83144531 0.00785156 3.53398438 0.00398438 4.2578125 0 C9.50229247 0.01010497 9.50229247 0.01010497 10.62890625 1.13671875 C10.72862411 3.05130157 10.75971214 4.96954192 10.76171875 6.88671875 C10.76365234 8.6346875 10.76365234 8.6346875 10.765625 10.41796875 C10.76175781 11.64515625 10.75789063 12.87234375 10.75390625 14.13671875 C10.75970703 15.9775 10.75970703 15.9775 10.765625 17.85546875 C10.76433594 19.02078125 10.76304688 20.18609375 10.76171875 21.38671875 C10.76059082 22.464375 10.75946289 23.54203125 10.75830078 24.65234375 C10.62890625 27.13671875 10.62890625 27.13671875 9.62890625 28.13671875 C7.11754521 28.23646907 4.6398721 28.27554058 2.12890625 28.26171875 C1.42636719 28.26558594 0.72382812 28.26945312 0 28.2734375 C-5.24447997 28.26333253 -5.24447997 28.26333253 -6.37109375 27.13671875 C-6.47081161 25.22213593 -6.50189964 23.30389558 -6.50390625 21.38671875 C-6.50519531 20.22140625 -6.50648437 19.05609375 -6.5078125 17.85546875 C-6.50394531 16.62828125 -6.50007813 15.40109375 -6.49609375 14.13671875 C-6.49996094 12.90953125 -6.50382812 11.68234375 -6.5078125 10.41796875 C-6.50652344 9.25265625 -6.50523438 8.08734375 -6.50390625 6.88671875 C-6.50277832 5.8090625 -6.50165039 4.73140625 -6.50048828 3.62109375 C-6.26305001 -0.93772115 -4.03309525 0.0077709 0 0 Z M-4.37109375 3.13671875 C-4.39792362 6.78260044 -4.41784944 10.42828721 -4.43359375 14.07421875 C-4.44197266 15.11513672 -4.45035156 16.15605469 -4.45898438 17.22851562 C-4.46220703 18.21787109 -4.46542969 19.20722656 -4.46875 20.2265625 C-4.47398682 21.14300537 -4.47922363 22.05944824 -4.48461914 23.00366211 C-4.61030586 25.12034898 -4.61030586 25.12034898 -3.37109375 26.13671875 C-1.53993492 26.23523046 0.29510558 26.26644504 2.12890625 26.26171875 C3.629375 26.26558594 3.629375 26.26558594 5.16015625 26.26953125 C7.57290247 26.41542257 7.57290247 26.41542257 8.62890625 25.13671875 C8.71590967 23.50198993 8.73591688 21.8635782 8.7265625 20.2265625 C8.72333984 19.23720703 8.72011719 18.24785156 8.71679688 17.22851562 C8.70841797 16.18759766 8.70003906 15.14667969 8.69140625 14.07421875 C8.68689453 13.02943359 8.68238281 11.98464844 8.67773438 10.90820312 C8.66590552 8.31768421 8.64796944 5.72719453 8.62890625 3.13671875 C4.33890625 3.13671875 0.04890625 3.13671875 -4.37109375 3.13671875 Z " fill="#2F4D71" transform="translate(52.37109375,31.86328125)"/>
<path d="M0 0 C0.9075 0.00257812 1.815 0.00515625 2.75 0.0078125 C4.11125 0.00394531 4.11125 0.00394531 5.5 0 C7.75 0.1328125 7.75 0.1328125 8.75 1.1328125 C8.84873816 3.13080822 8.87971799 5.13238408 8.875 7.1328125 C8.87757812 8.2259375 8.88015625 9.3190625 8.8828125 10.4453125 C8.75 13.1328125 8.75 13.1328125 7.75 14.1328125 C6.08570949 14.23105187 4.41718069 14.26254881 2.75 14.2578125 C1.38875 14.26167969 1.38875 14.26167969 0 14.265625 C-2.25 14.1328125 -2.25 14.1328125 -3.25 13.1328125 C-3.34873816 11.13481678 -3.37971799 9.13324092 -3.375 7.1328125 C-3.37757813 6.0396875 -3.38015625 4.9465625 -3.3828125 3.8203125 C-3.20336242 0.18908737 -3.20336242 0.18908737 0 0 Z " fill="#49585E" transform="translate(8.25,27.8671875)"/>
<path d="M0 0 C9.24 0 18.48 0 28 0 C28 3.3 28 6.6 28 10 C27.67 10 27.34 10 27 10 C27 7.03 27 4.06 27 1 C18.42 1 9.84 1 1 1 C1 13.21 1 25.42 1 38 C6.28 38 11.56 38 17 38 C17 38.33 17 38.66 17 39 C8.09 39 -0.82 39 -10 39 C-10 38.34 -10 37.68 -10 37 C-8.02 37 -6.04 37 -4 37 C-4 35.02 -4 33.04 -4 31 C-3.01 31 -2.02 31 -1 31 C-0.67 20.77 -0.34 10.54 0 0 Z " fill="#508DD7" transform="translate(28,21)"/>
<path d="M0 0 C0 4.95 0 9.9 0 15 C-0.33 15 -0.66 15 -1 15 C-1 13.35 -1 11.7 -1 10 C-1.99 10 -2.98 10 -4 10 C-4 11.98 -4 13.96 -4 16 C-5.98 16 -7.96 16 -10 16 C-10 16.66 -10 17.32 -10 18 C-7.03 18 -4.06 18 -1 18 C-1 18.33 -1 18.66 -1 19 C-5.95 19.495 -5.95 19.495 -11 20 C-11.33 18.68 -11.66 17.36 -12 16 C-11 15 -11 15 -8.4375 14.9375 C-7.633125 14.958125 -6.82875 14.97875 -6 15 C-6 13.68 -6 12.36 -6 11 C-12.6 11 -19.2 11 -26 11 C-26.33 10.34 -26.66 9.68 -27 9 C-18.42 9 -9.84 9 -1 9 C-1 6.69 -1 4.38 -1 2 C-8.59 2 -16.18 2 -24 2 C-24 1.67 -24 1.34 -24 1 C-20.1875152 0.83298447 -16.37500971 0.66644585 -12.5625 0.5 C-11.47388672 0.45230469 -10.38527344 0.40460937 -9.26367188 0.35546875 C-8.22919922 0.31035156 -7.19472656 0.26523437 -6.12890625 0.21875 C-5.17056885 0.17685547 -4.21223145 0.13496094 -3.22485352 0.09179688 C-1 0 -1 0 0 0 Z " fill="#06080A" transform="translate(28,42)"/>
<path d="M0 0 C2 1 2 1 2.61889648 2.65527344 C3.10368442 5.6379149 3.11139446 8.49321813 3.09765625 11.515625 C3.09443359 12.76601563 3.09121094 14.01640625 3.08789062 15.3046875 C3.07951172 16.60664063 3.07113281 17.90859375 3.0625 19.25 C3.05798828 20.56742188 3.05347656 21.88484375 3.04882812 23.2421875 C3.03704316 26.49483741 3.02059011 29.74739584 3 33 C2.01 33 1.02 33 0 33 C0 22.11 0 11.22 0 0 Z " fill="#355071" transform="translate(1,10)"/>
<path d="M0 0 C7.92 0 15.84 0 24 0 C24 0.33 24 0.66 24 1 C17.73 1 11.46 1 5 1 C5 1.99 5 2.98 5 4 C3.68 4 2.36 4 1 4 C1 13.9 1 23.8 1 34 C5.62 34 10.24 34 15 34 C15 34.33 15 34.66 15 35 C10.05 35 5.1 35 0 35 C0 23.45 0 11.9 0 0 Z " fill="#909499" transform="translate(30,23)"/>
<path d="M0 0 C0.33 0 0.66 0 1 0 C1.33 2.31 1.66 4.62 2 7 C5.96 7.33 9.92 7.66 14 8 C14 8.33 14 8.66 14 9 C8.06 9.495 8.06 9.495 2 10 C1.67 11.98 1.34 13.96 1 16 C5.29 16 9.58 16 14 16 C14 16.66 14 17.32 14 18 C9.71 18 5.42 18 1 18 C1.33 19.98 1.66 21.96 2 24 C5.96 24.33 9.92 24.66 14 25 C14 25.33 14 25.66 14 26 C9.38 26 4.76 26 0 26 C0 17.42 0 8.84 0 0 Z " fill="#DEE4EC" transform="translate(31,31)"/>
<path d="M0 0 C2.64 0 5.28 0 8 0 C8 3.3 8 6.6 8 10 C5.36 10 2.72 10 0 10 C0 6.7 0 3.4 0 0 Z " fill="#70D6F9" transform="translate(7,30)"/>
<path d="M0 0 C3.63 0 7.26 0 11 0 C11 1.98 11 3.96 11 6 C7.7 6 4.4 6 1 6 C1 7.32 1 8.64 1 10 C4.3 10 7.6 10 11 10 C10.67 10.66 10.34 11.32 10 12 C6.7 12 3.4 12 0 12 C0 8.04 0 4.08 0 0 Z " fill="#CFD5DC" transform="translate(49,35)"/>
<path d="M0 0 C2.31 0 4.62 0 7 0 C7 3.3 7 6.6 7 10 C4.69 10 2.38 10 0 10 C0 6.7 0 3.4 0 0 Z " fill="#ECC049" transform="translate(19,30)"/>
<path d="M0 0 C0.99 0 1.98 0 3 0 C3 0.66 3 1.32 3 2 C18.51 2 34.02 2 50 2 C50 2.33 50 2.66 50 3 C33.5 3 17 3 0 3 C0 2.01 0 1.02 0 0 Z " fill="#443C42" transform="translate(4,12)"/>
<path d="M0 0 C0.33 0 0.66 0 1 0 C1.33 4.29 1.66 8.58 2 13 C5.3 13 8.6 13 12 13 C12.33 9.04 12.66 5.08 13 1 C13.33 1 13.66 1 14 1 C14.33 4.96 14.66 8.92 15 13 C17.31 13.33 19.62 13.66 22 14 C22 14.33 22 14.66 22 15 C14.74 15 7.48 15 0 15 C0 10.05 0 5.1 0 0 Z " fill="#ECF3FB" transform="translate(4,28)"/>
<path d="M0 0 C4.29 0.33 8.58 0.66 13 1 C13 2.32 13 3.64 13 5 C9.04 5 5.08 5 1 5 C0.67 3.35 0.34 1.7 0 0 Z " fill="#E35C72" transform="translate(32,49)"/>
<path d="M0 0 C3.96 0 7.92 0 12 0 C12 1.32 12 2.64 12 4 C8.04 4 4.08 4 0 4 C0 2.68 0 1.36 0 0 Z " fill="#EBC049" transform="translate(33,42)"/>
<path d="M0 0 C3.96 0 7.92 0 12 0 C12 1.32 12 2.64 12 4 C8.04 4 4.08 4 0 4 C0 2.68 0 1.36 0 0 Z " fill="#6DD1F3" transform="translate(33,33)"/>
<path d="M0 0 C0.99 0 1.98 0 3 0 C4.125 5.75 4.125 5.75 3 8 C0.03 8 -2.94 8 -6 8 C-6 7.34 -6 6.68 -6 6 C-4.02 6 -2.04 6 0 6 C0 4.02 0 2.04 0 0 Z " fill="#959DA5" transform="translate(24,52)"/>
<path d="M0 0 C2.97 0 5.94 0 9 0 C9 1.32 9 2.64 9 4 C6.03 4 3.06 4 0 4 C0 2.68 0 1.36 0 0 Z " fill="#692C36" transform="translate(50,52)"/>
<path d="M0 0 C2.97 0 5.94 0 9 0 C9 1.32 9 2.64 9 4 C6.03 4 3.06 4 0 4 C0 2.68 0 1.36 0 0 Z " fill="#305968" transform="translate(50,41)"/>
<path d="M0 0 C7.59 0 15.18 0 23 0 C23 0.33 23 0.66 23 1 C16.73 1 10.46 1 4 1 C4 1.99 4 2.98 4 4 C2.68 4 1.36 4 0 4 C0 2.68 0 1.36 0 0 Z " fill="#A4A9AE" transform="translate(31,23)"/>
<path d="M0 0 C0.33 0 0.66 0 1 0 C1 1.98 1 3.96 1 6 C-0.98 6 -2.96 6 -5 6 C-5 6.66 -5 7.32 -5 8 C-2.03 8 0.94 8 4 8 C4 8.33 4 8.66 4 9 C0.7 9.33 -2.6 9.66 -6 10 C-6.33 8.68 -6.66 7.36 -7 6 C-5.5459375 5.62875 -5.5459375 5.62875 -4.0625 5.25 C-2.5465625 4.63125 -2.5465625 4.63125 -1 4 C-0.03122943 1.96756452 -0.03122943 1.96756452 0 0 Z " fill="#080808" transform="translate(23,52)"/>
<path d="M0 0 C2.97 0 5.94 0 9 0 C8.67 1.32 8.34 2.64 8 4 C5.69 4 3.38 4 1 4 C0.67 2.68 0.34 1.36 0 0 Z " fill="#877238" transform="translate(50,46)"/>
<path d="M0 0 C0.33 0 0.66 0 1 0 C1.33 2.31 1.66 4.62 2 7 C5.96 7.33 9.92 7.66 14 8 C14 8.33 14 8.66 14 9 C9.38 9.33 4.76 9.66 0 10 C0 6.7 0 3.4 0 0 Z " fill="#E9F0F8" transform="translate(31,31)"/>
<path d="M0 0 C4.62 0 9.24 0 14 0 C8.50445198 2.74777401 6.00459614 3.0196484 0 2 C0 1.34 0 0.68 0 0 Z " fill="#497FC2" transform="translate(47,32)"/>
<path d="M0 0 C0.99 0.33 1.98 0.66 3 1 C2.67 2.32 2.34 3.64 2 5 C0.68 4.67 -0.64 4.34 -2 4 C-2 3.01 -2 2.02 -2 1 C-1.34 0.67 -0.68 0.34 0 0 Z " fill="#64D9FA" transform="translate(12,54)"/>
<path d="M0 0 C0.66 1.32 1.32 2.64 2 4 C1.01 4.33 0.02 4.66 -1 5 C-1.33 4.01 -1.66 3.02 -2 2 C-1.34 1.34 -0.68 0.68 0 0 Z " fill="#F7CA4F" transform="translate(62,17)"/>
<path d="M0 0 C0.99 0.99 1.98 1.98 3 3 C1.68 3.33 0.36 3.66 -1 4 C-1 1 -1 1 0 0 Z " fill="#FD5C6E" transform="translate(33,2)"/>
<path d="M0 0 C0.99 0 1.98 0 3 0 C2.67 0.99 2.34 1.98 2 3 C1.34 2.67 0.68 2.34 0 2 C0 1.34 0 0.68 0 0 Z " fill="#88CF43" transform="translate(59,23)"/>
<path d="M0 0 C0.66 0 1.32 0 2 0 C2 0.99 2 1.98 2 3 C1.34 3 0.68 3 0 3 C0 2.01 0 1.02 0 0 Z " fill="#72D2FA" transform="translate(26,4)"/>
<path d="M0 0 C0.66 0 1.32 0 2 0 C2 0.66 2 1.32 2 2 C1.34 2 0.68 2 0 2 C0 1.34 0 0.68 0 0 Z " fill="#F4C84C" transform="translate(5,54)"/>
</svg>
