<?xml version="1.0" encoding="UTF-8"?>
<svg version="1.1" xmlns="http://www.w3.org/2000/svg" width="64" height="64">
<path d="M0 0 C1.04800781 -0.03577148 1.04800781 -0.03577148 2.1171875 -0.07226562 C6.15235602 -0.06084534 7.8177395 0.40908125 10.9375 3.03515625 C11.9584375 4.28619141 11.9584375 4.28619141 13 5.5625 C13.495 6.0575 13.495 6.0575 14 6.5625 C15.87389364 12.5671665 17.04976525 19.30905971 16 25.5625 C14.27674933 27.71780488 12.79811486 28.67786294 10.375 30.0625 C7.70243687 31.39979307 7.70243687 31.39979307 7 34.5625 C7.74765625 34.51609375 8.4953125 34.4696875 9.265625 34.421875 C17.32195927 34.12661668 17.32195927 34.12661668 20.625 36.25 C22.13741474 38.79360661 22.58312598 40.64438189 23 43.5625 C23.33 44.449375 23.66 45.33625 24 46.25 C25.37173006 50.79385582 27.21206415 57.13837169 25 61.5625 C8.5 61.5625 -8 61.5625 -25 61.5625 C-25 48.44711538 -25 48.44711538 -22 42.5625 C-21.62012454 41.27815914 -21.26542356 39.98607728 -20.9375 38.6875 C-20.628125 37.65625 -20.31875 36.625 -20 35.5625 C-17.35541621 34.24020811 -15.32238699 34.46572806 -12.375 34.5 C-10.87066406 34.51353516 -10.87066406 34.51353516 -9.3359375 34.52734375 C-8.56507812 34.53894531 -7.79421875 34.55054688 -7 34.5625 C-7.66 33.49 -8.32 32.4175 -9 31.3125 C-10.88295807 28.25269314 -11 27.4289136 -11 23.5625 C-12.32 23.5625 -13.64 23.5625 -15 23.5625 C-16.36623674 20.83002652 -16.128426 18.58051098 -16 15.5625 C-15.67 15.2325 -15.34 14.9025 -15 14.5625 C-14.58433668 12.08207432 -14.22928303 9.59755013 -13.890625 7.10546875 C-11.58553405 0.5238275 -6.25301899 -0.09806395 0 0 Z " fill="#070606" transform="translate(25,2.4375)"/>
<path d="M0 0 C1.04800781 -0.03577148 1.04800781 -0.03577148 2.1171875 -0.07226562 C6.15235602 -0.06084534 7.8177395 0.40908125 10.9375 3.03515625 C11.9584375 4.28619141 11.9584375 4.28619141 13 5.5625 C13.33 5.8925 13.66 6.2225 14 6.5625 C15.87389364 12.5671665 17.04976525 19.30905971 16 25.5625 C14.27674933 27.71780488 12.79811486 28.67786294 10.375 30.0625 C7.70243687 31.39979307 7.70243687 31.39979307 7 34.5625 C7.74765625 34.51609375 8.4953125 34.4696875 9.265625 34.421875 C17.31541726 34.12685644 17.31541726 34.12685644 20.75 36.3125 C22 38.5625 22 38.5625 21.875 40.75 C21 42.5625 21 42.5625 19 43.5625 C19 41.5825 19 39.6025 19 37.5625 C6.79 37.5625 -5.42 37.5625 -18 37.5625 C-18 37.2325 -18 36.9025 -18 36.5625 C-13.38 36.2325 -8.76 35.9025 -4 35.5625 C-3.67 34.2425 -3.34 32.9225 -3 31.5625 C-1.02 31.2325 0.96 30.9025 3 30.5625 C2.814375 29.758125 2.62875 28.95375 2.4375 28.125 C2.293125 27.279375 2.14875 26.43375 2 25.5625 C2.33 25.2325 2.66 24.9025 3 24.5625 C4.98 24.5625 6.96 24.5625 9 24.5625 C8.01 20.2725 7.02 15.9825 6 11.5625 C-0.04055103 11.10910759 -0.04055103 11.10910759 -6 11.5625 C-7.81580578 13.94959925 -7.81580578 13.94959925 -9 16.5625 C-9.66 16.8925 -10.32 17.2225 -11 17.5625 C-11 19.2125 -11 20.8625 -11 22.5625 C-12.32 22.8925 -13.64 23.2225 -15 23.5625 C-16.36623674 20.83002652 -16.128426 18.58051098 -16 15.5625 C-15.67 15.2325 -15.34 14.9025 -15 14.5625 C-14.58433668 12.08207432 -14.22928303 9.59755013 -13.890625 7.10546875 C-11.58553405 0.5238275 -6.25301899 -0.09806395 0 0 Z " fill="#0F0F11" transform="translate(25,2.4375)"/>
<path d="M0 0 C12.54 0 25.08 0 38 0 C38 5.94 38 11.88 38 18 C33.05 18 28.1 18 23 18 C23.66 16.35 24.32 14.7 25 13 C25.58402133 10.41417872 25.58402133 10.41417872 25 8 C22.59141286 6.1375562 22.59141286 6.1375562 20 5 C20 6.98 20 8.96 20 11 C19.34 11 18.68 11 18 11 C18 9.02 18 7.04 18 5 C16.02 5.99 16.02 5.99 14 7 C13.92377142 10.96388638 14.0318352 14.1273408 15 18 C10.38 18 5.76 18 1 18 C1 17.01 1 16.02 1 15 C0.34 15 -0.32 15 -1 15 C-1 15.99 -1 16.98 -1 18 C-1.66 18 -2.32 18 -3 18 C-3 15.36 -3 12.72 -3 10 C-2.34 9.67 -1.68 9.34 -1 9 C-0.67 6.03 -0.34 3.06 0 0 Z " fill="#E5EDFA" transform="translate(6,40)"/>
<path d="M0 0 C2.13891602 -0.35644531 2.13891602 -0.35644531 4.75390625 -0.328125 C6.15866211 -0.32039063 6.15866211 -0.32039063 7.59179688 -0.3125 C8.57212891 -0.291875 9.55246094 -0.27125 10.5625 -0.25 C12.03879883 -0.24226562 12.03879883 -0.24226562 13.54492188 -0.234375 C20.84613458 -0.15386542 20.84613458 -0.15386542 22 1 C22.12537741 3.14307896 22.17574364 5.29078886 22.1875 7.4375 C22.20167969 8.61183594 22.21585938 9.78617188 22.23046875 10.99609375 C22 14 22 14 20 16 C17.7578125 16.203125 17.7578125 16.203125 15.125 16.25 C12.44150157 16.37830025 12.44150157 16.37830025 10 17 C7.52351923 19.92043703 7.52351923 19.92043703 6 23 C5.01 23 4.02 23 3 23 C3 20.69 3 18.38 3 16 C2.0409375 15.8453125 2.0409375 15.8453125 1.0625 15.6875 C0.381875 15.460625 -0.29875 15.23375 -1 15 C-1.92867074 12.21398777 -2.16342217 10.38933911 -2.1875 7.5 C-2.20167969 6.7265625 -2.21585938 5.953125 -2.23046875 5.15625 C-2 3 -2 3 0 0 Z " fill="#5B8162" transform="translate(42,0)"/>
<path d="M0 0 C3.96 0 7.92 0 12 0 C14.03993514 4.92984325 15.40652968 8.57960425 15 14 C13.02 14.33 11.04 14.66 9 15 C9.185625 15.804375 9.37125 16.60875 9.5625 17.4375 C9.706875 18.283125 9.85125 19.12875 10 20 C9 21 9 21 6.25 21.3125 C2.28712279 20.93145411 0.8176055 19.73710248 -2 17 C-3.80319789 13.39360421 -3.47193943 9.57221682 -2.328125 5.76171875 C-1.59815505 3.82316649 -0.80383467 1.90910734 0 0 Z " fill="#F8D6C7" transform="translate(19,13)"/>
<path d="M0 0 C0.99 0 1.98 0 3 0 C3 1.98 3 3.96 3 6 C3.66 6 4.32 6 5 6 C5 4.02 5 2.04 5 0 C7.86724686 0.57344937 8.8614515 0.8614515 11 3 C10.69903201 7.13830989 10.32101984 9.51847024 8 13 C9.48113281 12.98259766 9.48113281 12.98259766 10.9921875 12.96484375 C12.27351563 12.95582031 13.55484375 12.94679688 14.875 12.9375 C16.15117188 12.92589844 17.42734375 12.91429687 18.7421875 12.90234375 C22 13 22 13 24 14 C24 10.7 24 7.4 24 4 C24.66 4 25.32 4 26 4 C27 7 27 7 27 17 C11.82 17 -3.36 17 -19 17 C-19 16.34 -19 15.68 -19 15 C-6.625 14.505 -6.625 14.505 6 14 C4.68 13.67 3.36 13.34 2 13 C-0.67027189 9.53853644 -1.70986666 6.35200017 -2 2 C-1.34 1.34 -0.68 0.68 0 0 Z " fill="#7494BE" transform="translate(21,45)"/>
<path d="M0 0 C2.13891602 -0.35644531 2.13891602 -0.35644531 4.75390625 -0.328125 C6.15866211 -0.32039063 6.15866211 -0.32039063 7.59179688 -0.3125 C8.57212891 -0.291875 9.55246094 -0.27125 10.5625 -0.25 C12.03879883 -0.24226562 12.03879883 -0.24226562 13.54492188 -0.234375 C20.84613458 -0.15386542 20.84613458 -0.15386542 22 1 C22.04080783 2.99958364 22.04254356 5.00045254 22 7 C21.34 6.67 20.68 6.34 20 6 C20 4.68 20 3.36 20 2 C13.73 2 7.46 2 1 2 C1 5.63 1 9.26 1 13 C2.32 13.33 3.64 13.66 5 14 C5.33 14.99 5.66 15.98 6 17 C6.66 16.01 7.32 15.02 8 14 C10.6015625 13.48828125 10.6015625 13.48828125 13.625 13.3125 C15.12933594 13.21388672 15.12933594 13.21388672 16.6640625 13.11328125 C17.82035156 13.05720703 17.82035156 13.05720703 19 13 C19.33 11.68 19.66 10.36 20 9 C20.66 9 21.32 9 22 9 C22.125 11.375 22.125 11.375 22 14 C19.48629886 16.51370114 18.5845358 16.18840589 15.125 16.25 C12.44150157 16.37830025 12.44150157 16.37830025 10 17 C7.52351923 19.92043703 7.52351923 19.92043703 6 23 C5.01 23 4.02 23 3 23 C3 20.69 3 18.38 3 16 C2.0409375 15.8453125 2.0409375 15.8453125 1.0625 15.6875 C0.381875 15.460625 -0.29875 15.23375 -1 15 C-1.92867074 12.21398777 -2.16342217 10.38933911 -2.1875 7.5 C-2.20167969 6.7265625 -2.21585938 5.953125 -2.23046875 5.15625 C-2 3 -2 3 0 0 Z " fill="#060806" transform="translate(42,0)"/>
<path d="M0 0 C2.51169316 1.43452394 3.33296364 2.55898248 5 5 C5.33 5.33 5.66 5.66 6 6 C6.04092937 8.33297433 6.04241723 10.66705225 6 13 C5.01 13.33 4.02 13.66 3 14 C2.34 11.69 1.68 9.38 1 7 C-3.62 7 -8.24 7 -13 7 C-13.66 9.31 -14.32 11.62 -15 14 C-15.99 13.67 -16.98 13.34 -18 13 C-18.38639587 8.44052869 -18.573795 6.02008 -16.3125 2 C-11.11192504 -1.13996978 -5.9131367 -0.97794184 0 0 Z " fill="#6E6871" transform="translate(31,5)"/>
<path d="M0 0 C2.31 0 4.62 0 7 0 C7 5.94 7 11.88 7 18 C4.36 18 1.72 18 -1 18 C-0.505 9.09 -0.505 9.09 0 0 Z " fill="#D3E0F0" transform="translate(37,40)"/>
<path d="M0 0 C3.96 0 7.92 0 12 0 C12 0.66 12 1.32 12 2 C10.35 2 8.7 2 7 2 C7 2.99 7 3.98 7 5 C8.65 5 10.3 5 12 5 C12 5.66 12 6.32 12 7 C8.7 7 5.4 7 2 7 C2 7.66 2 8.32 2 9 C5.3 9 8.6 9 12 9 C12 9.66 12 10.32 12 11 C11.4225 11.061875 10.845 11.12375 10.25 11.1875 C7.11309013 12.32027301 5.90832496 14.34197595 4 17 C3.67 15.35 3.34 13.7 3 12 C2.01 11.67 1.02 11.34 0 11 C0 7.37 0 3.74 0 0 Z " fill="#A6D796" transform="translate(43,2)"/>
<path d="M0 0 C0.33 0 0.66 0 1 0 C2.13357275 3.32514673 3.1469752 6.5879008 4 10 C7.96 10.33 11.92 10.66 16 11 C16 11.33 16 11.66 16 12 C5.44 12 -5.12 12 -16 12 C-16 11.34 -16 10.68 -16 10 C-15.34 10 -14.68 10 -14 10 C-14 9.01 -14 8.02 -14 7 C-13.34 7 -12.68 7 -12 7 C-12 7.99 -12 8.98 -12 10 C-7.38 10 -2.76 10 2 10 C1.34 8.68 0.68 7.36 0 6 C-0.125 2.75 -0.125 2.75 0 0 Z " fill="#0D0F11" transform="translate(19,48)"/>
<path d="M0 0 C0.33 0 0.66 0 1 0 C1.33 3.3 1.66 6.6 2 10 C16.19 10.33 30.38 10.66 45 11 C45 11.33 45 11.66 45 12 C29.82 12 14.64 12 -1 12 C-1 1 -1 1 0 0 Z " fill="#000000" transform="translate(1,52)"/>
<path d="M0 0 C11.62123174 -0.76567413 11.62123174 -0.76567413 14.94140625 1.078125 C16.25 2.4375 16.25 2.4375 18 5 C18.33 5.33 18.66 5.66 19 6 C19.04092937 8.33297433 19.04241723 10.66705225 19 13 C18.01 13.33 17.02 13.66 16 14 C15.5978125 12.2984375 15.5978125 12.2984375 15.1875 10.5625 C14.795625 9.386875 14.40375 8.21125 14 7 C13.01 6.67 12.02 6.34 11 6 C10.67 4.68 10.34 3.36 10 2 C6.7 1.67 3.4 1.34 0 1 C0 0.67 0 0.34 0 0 Z " fill="#595259" transform="translate(18,5)"/>
<path d="M0 0 C0.66 0 1.32 0 2 0 C3.16461426 3.49384279 3.13568319 6.33655389 3 10 C2 11 2 11 -0.51171875 11.1328125 C-11.01865672 11.10696517 -11.01865672 11.10696517 -16 10 C-16 9.67 -16 9.34 -16 9 C-13.70839681 8.97307516 -11.41670454 8.95363876 -9.125 8.9375 C-7.84882812 8.92589844 -6.57265625 8.91429687 -5.2578125 8.90234375 C-2 9 -2 9 0 10 C0 6.7 0 3.4 0 0 Z " fill="#524426" transform="translate(45,49)"/>
<path d="M0 0 C0.66 0.66 1.32 1.32 2 2 C1.6442194 5.37991574 0.64284201 8.04288438 -1 11 C-2.32 11 -3.64 11 -5 11 C-7.09350689 7.5980513 -7.17942163 4.94727588 -7 1 C-6.34 2.32 -5.68 3.64 -5 5 C-3.68 5 -2.36 5 -1 5 C-0.67 3.35 -0.34 1.7 0 0 Z " fill="#75A4E6" transform="translate(28,47)"/>
<path d="M0 0 C1.32 0.33 2.64 0.66 4 1 C5.45184478 5.53701494 6.23509196 9.18061476 6 14 C4.35 14 2.7 14 1 14 C1.33 9.71 1.66 5.42 2 1 C1.34 0.67 0.68 0.34 0 0 Z " fill="#EFBFB2" transform="translate(28,13)"/>
<path d="M0 0 C3.875 1.875 3.875 1.875 5 3 C4.61577388 7.07279689 4.12055529 10.46574118 2 14 C1.34 14 0.68 14 0 14 C0.2475 12.824375 0.2475 12.824375 0.5 11.625 C1.0623707 9.11791961 1.0623707 9.11791961 1 7 C0.67 7 0.34 7 0 7 C0 4.69 0 2.38 0 0 Z " fill="#1B1D21" transform="translate(27,45)"/>
<path d="M0 0 C0.3125 2.1875 0.3125 2.1875 0 5 C-2.4257298 8.04948889 -4.04028505 9.72274901 -7.8125 10.8125 C-8.534375 10.874375 -9.25625 10.93625 -10 11 C-10 10.34 -10 9.68 -10 9 C-8.68 8.67 -7.36 8.34 -6 8 C-5.9175 7.05125 -5.835 6.1025 -5.75 5.125 C-5 2 -5 2 -3 0.625 C-1 0 -1 0 0 0 Z " fill="#504957" transform="translate(39,19)"/>
<path d="M0 0 C2.64 0 5.28 0 8 0 C8 0.99 8 1.98 8 3 C5.36 3 2.72 3 0 3 C0 2.01 0 1.02 0 0 Z " fill="#D8BBAF" transform="translate(21,35)"/>
<path d="M0 0 C2 3 2 3 1.625 6.1875 C1.41875 7.115625 1.2125 8.04375 1 9 C0.34 9 -0.32 9 -1 9 C-1.09765625 2.84765625 -1.09765625 2.84765625 -1 1 C-0.67 0.67 -0.34 0.34 0 0 Z " fill="#DDB65D" transform="translate(4,49)"/>
</svg>
