<?xml version="1.0" encoding="UTF-8"?>
<svg version="1.1" xmlns="http://www.w3.org/2000/svg" width="64" height="64">
<path d="M0 0 C0.9343689 -0.00630432 1.86873779 -0.01260864 2.8314209 -0.019104 C4.34862732 -0.01303131 4.34862732 -0.01303131 5.89648438 -0.00683594 C6.93212524 -0.00874939 7.96776611 -0.01066284 9.03479004 -0.01263428 C11.22713463 -0.01399691 13.41948726 -0.01029508 15.61181641 -0.00195312 C18.97642054 0.00874514 22.34049069 -0.00184597 25.70507812 -0.01464844 C27.83138139 -0.01332686 29.95768433 -0.01076449 32.08398438 -0.00683594 C33.09545532 -0.0108844 34.10692627 -0.01493286 35.14904785 -0.019104 C36.08341675 -0.01279968 37.01778564 -0.00649536 37.98046875 0 C39.21718323 0.00238678 39.21718323 0.00238678 40.47888184 0.00482178 C42.49023438 0.25878906 42.49023438 0.25878906 44.49023438 2.25878906 C44.68554688 4.86035156 44.68554688 4.86035156 44.61523438 7.88378906 C44.5971875 8.88667969 44.57914063 9.88957031 44.56054688 10.92285156 C44.53734375 11.69371094 44.51414063 12.46457031 44.49023438 13.25878906 C45.45960937 13.23816406 46.42898437 13.21753906 47.42773438 13.19628906 C50.49023438 13.25878906 50.49023438 13.25878906 51.49023438 14.25878906 C51.58922961 15.80834465 51.62102962 17.36232579 51.62304688 18.91503906 C51.62498047 20.32462891 51.62498047 20.32462891 51.62695312 21.76269531 C51.62308594 22.75140625 51.61921875 23.74011719 51.61523438 24.75878906 C51.62103516 26.24185547 51.62103516 26.24185547 51.62695312 27.75488281 C51.62566406 28.69460937 51.624375 29.63433594 51.62304688 30.60253906 C51.62191895 31.47072266 51.62079102 32.33890625 51.61962891 33.23339844 C51.49023438 35.25878906 51.49023438 35.25878906 50.49023438 36.25878906 C48.49065074 36.29959689 46.48978184 36.30133263 44.49023438 36.25878906 C44.50594482 37.42450439 44.50594482 37.42450439 44.52197266 38.61376953 C44.5634372 42.12041007 44.58953016 45.62699912 44.61523438 49.13378906 C44.63199219 50.35710938 44.64875 51.58042969 44.66601562 52.84082031 C44.67568359 54.59072266 44.67568359 54.59072266 44.68554688 56.37597656 C44.70125732 57.99415283 44.70125732 57.99415283 44.71728516 59.64501953 C44.49023438 62.25878906 44.49023438 62.25878906 42.49023438 64.25878906 C40.50579834 64.5262146 40.50579834 64.5262146 38.04394531 64.54931641 C37.12248718 64.56207611 36.20102905 64.57483582 35.25164795 64.58798218 C34.25272522 64.59020782 33.25380249 64.59243347 32.22460938 64.59472656 C31.1984552 64.60138336 30.17230103 64.60804016 29.11505127 64.61489868 C26.93951208 64.62503927 24.7639417 64.62971527 22.58837891 64.62939453 C19.26737681 64.63375344 15.94771862 64.67001956 12.62695312 64.70800781 C10.51367642 64.71387858 8.4003934 64.71784623 6.28710938 64.71972656 C5.29628357 64.7340976 4.30545776 64.74846863 3.28460693 64.76327515 C-2.57691517 64.72466178 -6.1090846 64.28281473 -10.50976562 60.25878906 C-11.09570312 57.24316406 -11.09570312 57.24316406 -10.88476562 54.00878906 C-10.80355469 52.39230469 -10.80355469 52.39230469 -10.72070312 50.74316406 C-10.65109375 49.92332031 -10.58148438 49.10347656 -10.50976562 48.25878906 C-8.52976562 47.76378906 -8.52976562 47.76378906 -6.50976562 47.25878906 C-6.50976562 46.59878906 -6.50976562 45.93878906 -6.50976562 45.25878906 C-7.82976563 44.92878906 -9.14976563 44.59878906 -10.50976562 44.25878906 C-10.50976562 34.35878906 -10.50976562 24.45878906 -10.50976562 14.25878906 C-9.18976562 13.92878906 -7.86976562 13.59878906 -6.50976562 13.25878906 C-6.53296875 12.48792969 -6.55617188 11.71707031 -6.58007812 10.92285156 C-6.598125 9.91996094 -6.61617188 8.91707031 -6.63476562 7.88378906 C-6.65796875 6.88605469 -6.68117188 5.88832031 -6.70507812 4.86035156 C-6.35576158 0.20745523 -4.09835865 0.00790957 0 0 Z " fill="#312F40" transform="translate(11.509765625,-0.2587890625)"/>
<path d="M0 0 C15.51 0 31.02 0 47 0 C47 1.32 47 2.64 47 4 C37.1 4.33 27.2 4.66 17 5 C17 11.6 17 18.2 17 25 C31.85 25.495 31.85 25.495 47 26 C47.04125 30.24875 47.0825 34.4975 47.125 38.875 C47.14320801 40.2141748 47.16141602 41.55334961 47.18017578 42.93310547 C47.1851709 43.98385254 47.19016602 45.03459961 47.1953125 46.1171875 C47.21102295 47.73536377 47.21102295 47.73536377 47.22705078 49.38623047 C47 52 47 52 45 54 C43.08908081 54.24050903 43.08908081 54.24050903 40.73388672 54.22705078 C39.85312469 54.22689972 38.97236267 54.22674866 38.06491089 54.22659302 C37.11278717 54.21627045 36.16066345 54.20594788 35.1796875 54.1953125 C33.71899338 54.19106766 33.71899338 54.19106766 32.22879028 54.18673706 C29.11073651 54.17551913 25.99296732 54.1504117 22.875 54.125 C20.76432706 54.11497228 18.65364962 54.10584607 16.54296875 54.09765625 C11.36188165 54.07557458 6.18096115 54.04208129 1 54 C0.505 52.515 0.505 52.515 0 51 C5.94 50.505 5.94 50.505 12 50 C12 46.7 12 43.4 12 40 C8.04 39.67 4.08 39.34 0 39 C0 38.01 0 37.02 0 36 C5.94 35.505 5.94 35.505 12 35 C12 25.1 12 15.2 12 5 C8.04 4.67 4.08 4.34 0 4 C0 2.68 0 1.36 0 0 Z " fill="#CCDCEF" transform="translate(7,9)"/>
<path d="M0 0 C11.88 0 23.76 0 36 0 C36 6.27 36 12.54 36 19 C31.87407007 17.96851752 31.02929503 17.37713898 28.25 14.4375 C27.63640625 13.79683594 27.0228125 13.15617187 26.390625 12.49609375 C25.93171875 12.00238281 25.4728125 11.50867187 25 11 C23.700625 11.6496875 23.700625 11.6496875 22.375 12.3125 C19 13 19 13 17.265625 12.01953125 C15.77703077 10.75422615 14.38146838 9.38146838 13 8 C12.22914062 8.7940625 11.45828125 9.588125 10.6640625 10.40625 C9.65130683 11.43776041 8.63827148 12.46899627 7.625 13.5 C7.11710937 14.02464844 6.60921875 14.54929687 6.0859375 15.08984375 C4.76167396 16.43153181 3.38394135 17.71995815 2 19 C1.34 19 0.68 19 0 19 C0 12.73 0 6.46 0 0 Z " fill="#F0F7FB" transform="translate(25,15)"/>
<path d="M0 0 C3.6815625 -0.0309375 3.6815625 -0.0309375 7.4375 -0.0625 C8.21150146 -0.071604 8.98550293 -0.08070801 9.78295898 -0.09008789 C11.52221717 -0.09724913 13.26145304 -0.05024702 15 0 C16 1 16 1 16.11352539 3.68383789 C16.10828857 4.85164795 16.10305176 6.01945801 16.09765625 7.22265625 C16.09443359 8.48271484 16.09121094 9.74277344 16.08789062 11.04101562 C16.07953403 12.38151109 16.07106907 13.72200588 16.0625 15.0625 C16.0574866 16.40689942 16.05292342 17.7513006 16.04882812 19.09570312 C16.03699497 22.39715433 16.01905886 25.6985826 16 29 C10.72 29 5.44 29 0 29 C0 19.43 0 9.86 0 0 Z " fill="#588BDD" transform="translate(3,14)"/>
<path d="M0 0 C0.66 0.33 1.32 0.66 2 1 C1.67 10.57 1.34 20.14 1 30 C6.61 30 12.22 30 18 30 C17.67 30.66 17.34 31.32 17 32 C13.04 32 9.08 32 5 32 C5 32.99 5 33.98 5 35 C6.28197266 34.98259766 6.28197266 34.98259766 7.58984375 34.96484375 C8.69457031 34.95582031 9.79929687 34.94679687 10.9375 34.9375 C12.03964844 34.92589844 13.14179688 34.91429687 14.27734375 34.90234375 C17 35 17 35 18 36 C18.09823937 37.66429051 18.12973631 39.33281931 18.125 41 C18.12886719 42.36125 18.12886719 42.36125 18.1328125 43.75 C18 46 18 46 17 47 C14.98035801 47.07244053 12.95832876 47.08377188 10.9375 47.0625 C9.28041016 47.04896484 9.28041016 47.04896484 7.58984375 47.03515625 C6.73519531 47.02355469 5.88054688 47.01195312 5 47 C5.33 47.66 5.66 48.32 6 49 C12.19303089 49.0247204 18.38603305 49.04286973 24.57910156 49.05493164 C26.68587749 49.05996013 28.79264992 49.06678376 30.89941406 49.07543945 C33.92774314 49.08756989 36.95602606 49.09324317 39.984375 49.09765625 C40.92617615 49.10281754 41.86797729 49.10797882 42.83831787 49.11329651 C44.15923431 49.11340981 44.15923431 49.11340981 45.50683594 49.11352539 C46.27960876 49.115746 47.05238159 49.11796661 47.84857178 49.12025452 C50.01724977 48.99903582 51.91636924 48.59739699 54 48 C53.34 48.99 52.68 49.98 52 51 C50.01556396 51.38768005 50.01556396 51.38768005 47.55371094 51.40405273 C46.63225281 51.41673691 45.71079468 51.42942108 44.76141357 51.44248962 C43.76249084 51.43955399 42.76356812 51.43661835 41.734375 51.43359375 C40.19514374 51.44145653 40.19514374 51.44145653 38.62481689 51.44947815 C36.44926865 51.45591157 34.27368568 51.45454438 32.09814453 51.44604492 C28.77703249 51.43756899 25.45765918 51.46622387 22.13671875 51.49804688 C20.02343802 51.49965984 17.91015424 51.49907954 15.796875 51.49609375 C14.31063629 51.51294472 14.31063629 51.51294472 12.79437256 51.53013611 C6.93925925 51.47133246 3.39723578 51.01678443 -1 47 C-1.5859375 43.984375 -1.5859375 43.984375 -1.375 40.75 C-1.29378906 39.13351563 -1.29378906 39.13351563 -1.2109375 37.484375 C-1.14132813 36.66453125 -1.07171875 35.8446875 -1 35 C0.98 34.505 0.98 34.505 3 34 C3 33.34 3 32.68 3 32 C1.68 31.67 0.36 31.34 -1 31 C-1.02465622 26.74585377 -1.04283899 22.49174502 -1.05493164 18.23754883 C-1.05997101 16.78929927 -1.06680253 15.34105483 -1.07543945 13.89282227 C-1.08752247 11.81525412 -1.09323211 9.73775303 -1.09765625 7.66015625 C-1.10289307 6.40855713 -1.10812988 5.15695801 -1.11352539 3.86743164 C-1 1 -1 1 0 0 Z " fill="#35303E" transform="translate(2,13)"/>
<path d="M0 0 C1.34644592 -0.00472824 1.34644592 -0.00472824 2.72009277 -0.009552 C4.18412537 -0.00651566 4.18412537 -0.00651566 5.67773438 -0.00341797 C6.67276978 -0.00437469 7.66780518 -0.00533142 8.69299316 -0.00631714 C10.80135155 -0.00699907 12.90971203 -0.0051439 15.01806641 -0.00097656 C18.25753465 0.0043715 21.49686423 -0.00092114 24.73632812 -0.00732422 C26.77929718 -0.00666344 28.82226615 -0.00538228 30.86523438 -0.00341797 C31.8412561 -0.0054422 32.81727783 -0.00746643 33.82287598 -0.009552 C34.72050659 -0.00639984 35.61813721 -0.00324768 36.54296875 0 C37.73424377 0.00119339 37.73424377 0.00119339 38.94958496 0.00241089 C40.77148438 0.12939453 40.77148438 0.12939453 41.77148438 1.12939453 C41.77148438 3.10939453 41.77148438 5.08939453 41.77148438 7.12939453 C26.26148437 7.12939453 10.75148437 7.12939453 -5.22851562 7.12939453 C-5.22851562 0.0052378 -5.22851562 0.0052378 0 0 Z " fill="#5E99F4" transform="translate(12.228515625,0.87060546875)"/>
<path d="M0 0 C0.70253906 0.00386719 1.40507812 0.00773437 2.12890625 0.01171875 C2.83144531 0.00785156 3.53398438 0.00398438 4.2578125 0 C9.50229247 0.01010497 9.50229247 0.01010497 10.62890625 1.13671875 C10.72714562 2.80100926 10.75864256 4.46953806 10.75390625 6.13671875 C10.75777344 7.49796875 10.75777344 7.49796875 10.76171875 8.88671875 C10.62890625 11.13671875 10.62890625 11.13671875 9.62890625 12.13671875 C6.93235771 12.20991496 4.26199167 12.22914412 1.56640625 12.19921875 C0.42848633 12.19245117 0.42848633 12.19245117 -0.73242188 12.18554688 C-2.61201246 12.17372555 -4.49156274 12.15578953 -6.37109375 12.13671875 C-6.39796654 10.32429823 -6.4174309 8.51176642 -6.43359375 6.69921875 C-6.44519531 5.68988281 -6.45679687 4.68054687 -6.46875 3.640625 C-6.28989538 -0.94520748 -4.04363809 0.00779121 0 0 Z " fill="#236060" transform="translate(30.37109375,37.86328125)"/>
<path d="M0 0 C0.9343689 -0.00630432 1.86873779 -0.01260864 2.8314209 -0.019104 C4.34862732 -0.01303131 4.34862732 -0.01303131 5.89648438 -0.00683594 C6.93212524 -0.00874939 7.96776611 -0.01066284 9.03479004 -0.01263428 C11.22713463 -0.01399691 13.41948726 -0.01029508 15.61181641 -0.00195312 C18.97642054 0.00874514 22.34049069 -0.00184597 25.70507812 -0.01464844 C27.83138139 -0.01332686 29.95768433 -0.01076449 32.08398438 -0.00683594 C33.09545532 -0.0108844 34.10692627 -0.01493286 35.14904785 -0.019104 C36.08341675 -0.01279968 37.01778564 -0.00649536 37.98046875 0 C39.21718323 0.00238678 39.21718323 0.00238678 40.47888184 0.00482178 C42.49023438 0.25878906 42.49023438 0.25878906 44.49023438 2.25878906 C44.68554688 4.86035156 44.68554688 4.86035156 44.61523438 7.88378906 C44.5971875 8.88667969 44.57914063 9.88957031 44.56054688 10.92285156 C44.53734375 11.69371094 44.51414063 12.46457031 44.49023438 13.25878906 C43.83023438 13.25878906 43.17023437 13.25878906 42.49023438 13.25878906 C42.49023438 11.93878906 42.49023438 10.61878906 42.49023438 9.25878906 C26.98023437 9.25878906 11.47023437 9.25878906 -4.50976562 9.25878906 C-4.50976562 10.57878906 -4.50976562 11.89878906 -4.50976562 13.25878906 C-3.65511719 13.2471875 -2.80046875 13.23558594 -1.91992188 13.22363281 C-0.81519531 13.21460938 0.28953125 13.20558594 1.42773438 13.19628906 C2.52988281 13.1846875 3.63203125 13.17308594 4.76757812 13.16113281 C7.49023438 13.25878906 7.49023438 13.25878906 8.49023438 14.25878906 C8.57799043 16.40437733 8.59718656 18.55283327 8.58789062 20.70019531 C8.58466797 22.00537109 8.58144531 23.31054688 8.578125 24.65527344 C8.56976839 26.04394596 8.56130343 27.43261783 8.55273438 28.82128906 C8.54772103 30.21386562 8.54315784 31.60644388 8.5390625 32.99902344 C8.52722871 36.41898777 8.51074318 39.8388675 8.49023438 43.25878906 C8.16023438 43.25878906 7.83023437 43.25878906 7.49023438 43.25878906 C7.16023438 34.01878906 6.83023437 24.77878906 6.49023438 15.25878906 C-0.43976562 14.76378906 -0.43976562 14.76378906 -7.50976562 14.25878906 C-6.60044324 0.01273843 -6.60044324 0.01273843 0 0 Z M-4.50976562 2.25878906 C-4.50976562 4.23878906 -4.50976562 6.21878906 -4.50976562 8.25878906 C11.00023438 8.25878906 26.51023438 8.25878906 42.49023438 8.25878906 C42.49023438 6.27878906 42.49023438 4.29878906 42.49023438 2.25878906 C40.93116655 0.69972124 39.42869156 1.13156535 37.26171875 1.12939453 C36.36408813 1.12624237 35.46645752 1.12309021 34.54162598 1.11984253 C33.56560425 1.12186676 32.58958252 1.12389099 31.58398438 1.12597656 C30.58894897 1.12501984 29.59391357 1.12406311 28.56872559 1.12307739 C26.4603672 1.12239546 24.35200672 1.12425063 22.24365234 1.12841797 C19.0041841 1.13376603 15.76485452 1.12847339 12.52539062 1.12207031 C10.48242157 1.12273109 8.4394526 1.12401225 6.39648438 1.12597656 C4.93245178 1.12294022 4.93245178 1.12294022 3.43884277 1.11984253 C2.09239685 1.12457077 2.09239685 1.12457077 0.71875 1.12939453 C-0.47252502 1.13058792 -0.47252502 1.13058792 -1.68786621 1.13180542 C-3.52966366 1.0599436 -3.52966366 1.0599436 -4.50976562 2.25878906 Z " fill="#312E3E" transform="translate(11.509765625,-0.2587890625)"/>
<path d="M0 0 C1.61358398 -0.01836914 1.61358398 -0.01836914 3.25976562 -0.03710938 C4.28650391 -0.03904297 5.31324219 -0.04097656 6.37109375 -0.04296875 C7.79119751 -0.04913208 7.79119751 -0.04913208 9.23999023 -0.05541992 C11.5625 0.1875 11.5625 0.1875 13.5625 2.1875 C13.2325 3.8375 12.9025 5.4875 12.5625 7.1875 C4.3125 7.1875 -3.9375 7.1875 -12.4375 7.1875 C-12.4375 -2.52603504 -8.33384871 0.00497543 0 0 Z " fill="#4B4E64" transform="translate(36.4375,52.8125)"/>
<path d="M0 0 C5.61 0 11.22 0 17 0 C17 3.3 17 6.6 17 10 C11.39 10 5.78 10 0 10 C0 6.7 0 3.4 0 0 Z " fill="#CC8C50" transform="translate(3,49)"/>
<path d="M0 0 C0.82290527 0.00202423 1.64581055 0.00404846 2.49365234 0.00613403 C3.33331543 0.00517731 4.17297852 0.00422058 5.03808594 0.00323486 C6.81689529 0.00255306 8.59570712 0.00440737 10.37451172 0.00857544 C13.10699011 0.01392371 15.83930411 0.00863048 18.57177734 0.00222778 C20.29573604 0.00288856 22.01969464 0.00416973 23.74365234 0.00613403 C24.56655762 0.0041098 25.38946289 0.00208557 26.23730469 0 C32.0037018 0.02399599 32.0037018 0.02399599 33.11865234 1.13894653 C33.20550837 2.70067398 33.22567454 4.26623998 33.21630859 5.83035278 C33.21308594 6.77459106 33.20986328 7.71882935 33.20654297 8.69168091 C33.19397461 10.18151489 33.19397461 10.18151489 33.18115234 11.70144653 C33.17664062 12.69853638 33.17212891 13.69562622 33.16748047 14.72293091 C33.15565241 17.19499502 33.13917084 19.66694171 33.11865234 22.13894653 C32.45865234 22.13894653 31.79865234 22.13894653 31.11865234 22.13894653 C31.11865234 15.53894653 31.11865234 8.93894653 31.11865234 2.13894653 C19.23865234 2.13894653 7.35865234 2.13894653 -4.88134766 2.13894653 C-4.88134766 8.07894653 -4.88134766 14.01894653 -4.88134766 20.13894653 C-5.54134766 20.46894653 -6.20134766 20.79894653 -6.88134766 21.13894653 C-6.91022912 17.82646467 -6.92810565 14.51401486 -6.94384766 11.20144653 C-6.95222656 10.25591919 -6.96060547 9.31039185 -6.96923828 8.33621216 C-6.97246094 7.43709106 -6.97568359 6.53796997 -6.97900391 5.61160278 C-6.98424072 4.77894897 -6.98947754 3.94629517 -6.99487305 3.08840942 C-6.74672851 -1.17273921 -3.52347384 0.0146624 0 0 Z " fill="#434151" transform="translate(29.88134765625,12.861053466796875)"/>
<path d="M0 0 C0.79719955 0.00222061 1.59439911 0.00444122 2.41575623 0.00672913 C3.31661453 0.00680466 4.21747284 0.00688019 5.14562988 0.00695801 C6.12478867 0.01211929 7.10394745 0.01728058 8.11277771 0.02259827 C9.11018478 0.02401321 10.10759186 0.02542816 11.13522339 0.02688599 C14.3348027 0.03250337 17.53431315 0.04505881 20.73387146 0.05775452 C22.89728191 0.06276728 25.06069345 0.06733057 27.22410583 0.07142639 C32.53988471 0.08247845 37.85562317 0.09923348 43.17137146 0.12025452 C43.17137146 0.45025452 43.17137146 0.78025452 43.17137146 1.12025452 C31.95137146 1.12025452 20.73137146 1.12025452 9.17137146 1.12025452 C9.17137146 3.10025452 9.17137146 5.08025452 9.17137146 7.12025452 C5.21137146 7.12025452 1.25137146 7.12025452 -2.82862854 7.12025452 C-2.82862854 0.18601665 -2.82862854 0.18601665 0 0 Z " fill="#515B9D" transform="translate(9.828628540039063,0.8797454833984375)"/>
<path d="M0 0 C4.95 0 9.9 0 15 0 C16 5 16 5 14.5625 7.1875 C14.046875 7.785625 13.53125 8.38375 13 9 C13 9.66 13 10.32 13 11 C9.04 11 5.08 11 1 11 C1.66 10.01 2.32 9.02 3 8 C2.34 6.68 1.68 5.36 1 4 C2.32 3.34 3.64 2.68 5 2 C4.67 2.99 4.34 3.98 4 5 C6.89508511 5 8.59696473 3.51770648 11 2 C7.37 1.67 3.74 1.34 0 1 C0 0.67 0 0.34 0 0 Z " fill="#4E74B6" transform="translate(3,14)"/>
<path d="M0 0 C1.10865985 0.91122727 2.21172219 1.82926659 3.3125 2.75 C3.92738281 3.26046875 4.54226562 3.7709375 5.17578125 4.296875 C7 6 7 6 10 10 C3.73 10 -2.54 10 -9 10 C-3 3 -3 3 0 0 Z " fill="#757BB6" transform="translate(38,24)"/>
<path d="M0 0 C0.66 0.33 1.32 0.66 2 1 C1.67 10.57 1.34 20.14 1 30 C6.61 30 12.22 30 18 30 C17.67 30.66 17.34 31.32 17 32 C14.18743719 32.02684312 11.37512759 32.04676188 8.5625 32.0625 C7.76005859 32.07087891 6.95761719 32.07925781 6.13085938 32.08789062 C4.08704779 32.0965143 2.04316098 32.0522815 0 32 C-1.88319268 30.11680732 -1.13054285 26.88069863 -1.1328125 24.375 C-1.13376923 23.71290527 -1.13472595 23.05081055 -1.13571167 22.36865234 C-1.13639326 20.96647039 -1.13454042 19.5642853 -1.13037109 18.16210938 C-1.12502246 16.00904287 -1.1303167 13.85618498 -1.13671875 11.703125 C-1.13605796 10.34374954 -1.13477679 8.9843742 -1.1328125 7.625 C-1.13168457 6.37976563 -1.13055664 5.13453125 -1.12939453 3.8515625 C-1 1 -1 1 0 0 Z " fill="#3C4564" transform="translate(2,13)"/>
<path d="M0 0 C0.86625 0.825 1.7325 1.65 2.625 2.5 C5.34953471 4.82275102 5.34953471 4.82275102 9 4.875 C12 5 12 5 13.7109375 6.5390625 C15.21724426 8.31410004 16.64073975 10.11053186 18 12 C14.82706533 12.51920749 13.06395305 12.7697616 10 12 C6.61733137 9.32618027 3.80166825 6.26861296 1 3 C-0.1055189 3.93590504 -1.20935453 4.87379858 -2.3125 5.8125 C-2.92738281 6.33457031 -3.54226562 6.85664063 -4.17578125 7.39453125 C-5.85424679 8.87172469 -7.43882034 10.40039131 -9 12 C-9.66 11.67 -10.32 11.34 -11 11 C-7.37 7.37 -3.74 3.74 0 0 Z " fill="#434256" transform="translate(38,22)"/>
<path d="M0 0 C1.56061724 0.04234229 3.12108644 0.09036674 4.68139648 0.14282227 C5.5012352 0.16643326 6.32107391 0.19004425 7.16575623 0.21437073 C9.79483562 0.29119463 12.42363418 0.3751377 15.05249023 0.45922852 C16.8304711 0.51243049 18.60846583 0.56517099 20.38647461 0.61743164 C24.75449236 0.74683494 29.12227106 0.88262516 33.48999023 1.02172852 C33.48999023 1.35172852 33.48999023 1.68172852 33.48999023 2.02172852 C21.60999023 2.02172852 9.72999023 2.02172852 -2.51000977 2.02172852 C-2.51000977 7.96172852 -2.51000977 13.90172852 -2.51000977 20.02172852 C-3.17000977 20.35172852 -3.83000977 20.68172852 -4.51000977 21.02172852 C-4.53889123 17.70924665 -4.55676776 14.39679684 -4.57250977 11.08422852 C-4.58088867 10.13870117 -4.58926758 9.19317383 -4.59790039 8.21899414 C-4.60112305 7.31987305 -4.6043457 6.42075195 -4.60766602 5.49438477 C-4.61290283 4.66173096 -4.61813965 3.82907715 -4.62353516 2.97119141 C-4.42045681 -0.51607867 -3.60817164 0.02233618 0 0 Z " fill="#868A95" transform="translate(27.510009765625,12.978271484375)"/>
<path d="M0 0 C1.65 0 3.3 0 5 0 C4.34 0.66 3.68 1.32 3 2 C2.83312552 4.58354218 2.83312552 4.58354218 3 7 C3.66 7.33 4.32 7.66 5 8 C5 7.34 5 6.68 5 6 C7.5 4.375 7.5 4.375 10 3 C10 4.32 10 5.64 10 7 C10.66 7 11.32 7 12 7 C11.67 4.69 11.34 2.38 11 0 C11.99 0 12.98 0 14 0 C14 2.97 14 5.94 14 9 C9.38 9 4.76 9 0 9 C0 6.03 0 3.06 0 0 Z " fill="#01AE92" transform="translate(25,40)"/>
<path d="M0 0 C4.95 0 9.9 0 15 0 C15 1.32 15 2.64 15 4 C10.05 4 5.1 4 0 4 C0 2.68 0 1.36 0 0 Z " fill="#5F9BF9" transform="translate(33,55)"/>
<path d="M0 0 C3.96 0 7.92 0 12 0 C10.73134318 2.53731364 9.50290879 2.78646846 7 4 C6.34 4.66 5.68 5.32 5 6 C4.34 5.01 3.68 4.02 3 3 C2.89459074 5.21081851 2.89459074 5.21081851 4 8 C2.02 8.99 2.02 8.99 0 10 C0 6.7 0 3.4 0 0 Z " fill="#5F9BF9" transform="translate(3,15)"/>
<path d="M0 0 C3.83953399 1.27984466 5.65316744 3.81501296 8 7 C4.29706315 7.33663062 2.60465619 7.47736015 -0.375 5.125 C-2 3 -2 3 -2 1 C-1.34 0.67 -0.68 0.34 0 0 Z " fill="#56529A" transform="translate(48,27)"/>
<path d="M0 0 C1.65 0.33 3.3 0.66 5 1 C4.67 2.65 4.34 4.3 4 6 C2.35 5.67 0.7 5.34 -1 5 C-0.67 3.35 -0.34 1.7 0 0 Z " fill="#826656" transform="translate(43,17)"/>
<path d="M0 0 C2.31 0 4.62 0 7 0 C7 1.32 7 2.64 7 4 C4.69 4 2.38 4 0 4 C0 2.68 0 1.36 0 0 Z " fill="#565299" transform="translate(25,55)"/>
</svg>
