<?xml version="1.0" encoding="UTF-8"?>
<svg version="1.1" xmlns="http://www.w3.org/2000/svg" width="64" height="64">
<path d="M0 0 C0.85807251 -0.0033284 1.71614502 -0.0066568 2.60021973 -0.01008606 C4.41592878 -0.01515263 6.23164716 -0.01749447 8.04736328 -0.01733398 C10.8325117 -0.01952242 13.61726536 -0.03768614 16.40234375 -0.05664062 C18.16406114 -0.05957415 19.92578042 -0.06155922 21.6875 -0.0625 C22.94222107 -0.07327827 22.94222107 -0.07327827 24.22229004 -0.08427429 C30.11492388 -0.06085737 30.11492388 -0.06085737 32.34375 2.16796875 C32.5390625 5.20703125 32.5390625 5.20703125 32.46875 8.79296875 C32.45070312 9.98148438 32.43265625 11.17 32.4140625 12.39453125 C32.39085937 13.30976563 32.36765625 14.225 32.34375 15.16796875 C34.32375 14.83796875 36.30375 14.50796875 38.34375 14.16796875 C38.00730469 13.60464844 37.67085937 13.04132812 37.32421875 12.4609375 C36.18501318 9.79673961 36.26594323 8.32547592 36.65625 5.48046875 C36.75550781 4.69285156 36.85476562 3.90523438 36.95703125 3.09375 C37.34375 1.16796875 37.34375 1.16796875 38.34375 0.16796875 C40.33984375 0 40.33984375 0 42.78125 -0.01953125 C43.98587891 -0.04080078 43.98587891 -0.04080078 45.21484375 -0.0625 C47.34375 0.16796875 47.34375 0.16796875 49.34375 2.16796875 C49.5390625 4.4453125 49.5390625 4.4453125 49.46875 7.10546875 C49.45070312 7.98074219 49.43265625 8.85601562 49.4140625 9.7578125 C49.39085937 10.55316406 49.36765625 11.34851563 49.34375 12.16796875 C49.34375 13.15796875 49.34375 14.14796875 49.34375 15.16796875 C50.33375 15.49796875 51.32375 15.82796875 52.34375 16.16796875 C53.99872356 19.47791588 53.44459335 23.15919875 53.40625 26.79296875 C53.40173828 27.59476563 53.39722656 28.3965625 53.39257812 29.22265625 C53.38078168 31.20445881 53.36284605 33.18622308 53.34375 35.16796875 C52.02375 35.82796875 50.70375 36.48796875 49.34375 37.16796875 C49.39704468 38.34153931 49.39704468 38.34153931 49.45141602 39.53881836 C49.60837454 43.06082081 49.75741811 46.58311394 49.90625 50.10546875 C49.99036133 51.95301758 49.99036133 51.95301758 50.07617188 53.83789062 C50.12451172 55.00771484 50.17285156 56.17753906 50.22265625 57.3828125 C50.2697876 58.4668335 50.31691895 59.55085449 50.36547852 60.66772461 C50.34375 63.16796875 50.34375 63.16796875 49.34375 64.16796875 C47.50802369 64.26702027 45.66847425 64.29596082 43.83007812 64.29736328 C42.65215698 64.30051544 41.47423584 64.3036676 40.26062012 64.30691528 C38.97836548 64.30489105 37.69611084 64.30286682 36.375 64.30078125 C35.06921997 64.30173798 33.76343994 64.3026947 32.41809082 64.30368042 C29.65062278 64.30515708 26.88318696 64.30300386 24.11572266 64.29833984 C20.56112351 64.29264256 17.00659986 64.29592173 13.45200348 64.30191231 C10.07216286 64.30638622 6.69234277 64.30325761 3.3125 64.30078125 C2.03024536 64.30280548 0.74799072 64.30482971 -0.57312012 64.30691528 C-2.34000183 64.30218704 -2.34000183 64.30218704 -4.14257812 64.29736328 C-5.18546997 64.29656769 -6.22836182 64.29577209 -7.30285645 64.29495239 C-9.65625 64.16796875 -9.65625 64.16796875 -10.65625 63.16796875 C-10.859375 61.20703125 -10.859375 61.20703125 -10.90625 58.79296875 C-10.93203125 58.00148437 -10.9578125 57.21 -10.984375 56.39453125 C-10.57856616 53.6408284 -9.84519879 52.83525217 -7.65625 51.16796875 C-6.17125 50.67296875 -6.17125 50.67296875 -4.65625 50.16796875 C-5.31625 49.17796875 -5.97625 48.18796875 -6.65625 47.16796875 C-6.8515625 44.6875 -6.8515625 44.6875 -6.78125 41.98046875 C-6.76320313 41.07941406 -6.74515625 40.17835937 -6.7265625 39.25 C-6.70335937 38.56292969 -6.68015625 37.87585937 -6.65625 37.16796875 C-7.97625 36.83796875 -9.29625 36.50796875 -10.65625 36.16796875 C-10.65625 24.61796875 -10.65625 13.06796875 -10.65625 1.16796875 C-7.34272254 -0.48879498 -3.64284638 0.00484631 0 0 Z M31.34375 23.16796875 C31.67375 27.45796875 32.00375 31.74796875 32.34375 36.16796875 C30.36375 36.49796875 28.38375 36.82796875 26.34375 37.16796875 C26.29476562 37.75964844 26.24578125 38.35132813 26.1953125 38.9609375 C25.77918133 43.35901347 25.29409405 47.13725772 23.34375 51.16796875 C28.24778962 52.96806755 28.24778962 52.96806755 33.28125 52.29296875 C33.961875 51.92171875 34.6425 51.55046875 35.34375 51.16796875 C35.01890625 50.60207031 34.6940625 50.03617188 34.359375 49.453125 C33.25456903 46.96731156 33.07545565 45.30845828 33.09375 42.60546875 C33.08859375 41.84105469 33.0834375 41.07664062 33.078125 40.2890625 C33.34375 38.16796875 33.34375 38.16796875 35.34375 35.16796875 C35.58594315 32.19347267 35.58594315 32.19347267 35.46875 28.98046875 C35.45070313 27.89378906 35.43265625 26.80710937 35.4140625 25.6875 C35.39085937 24.85605469 35.36765625 24.02460938 35.34375 23.16796875 C34.02375 23.16796875 32.70375 23.16796875 31.34375 23.16796875 Z M6.34375 37.16796875 C6.28316406 37.92722656 6.22257812 38.68648437 6.16015625 39.46875 C6.07636719 40.46261719 5.99257813 41.45648438 5.90625 42.48046875 C5.82503906 43.46660156 5.74382813 44.45273437 5.66015625 45.46875 C5.34375 48.16796875 5.34375 48.16796875 4.34375 51.16796875 C8.68302969 53.00492309 8.68302969 53.00492309 13.21875 52.29296875 C13.92 51.92171875 14.62125 51.55046875 15.34375 51.16796875 C15.01375 50.17796875 14.68375 49.18796875 14.34375 48.16796875 C14.12195215 46.27584138 13.93760985 44.37912403 13.78125 42.48046875 C13.69746094 41.48660156 13.61367188 40.49273437 13.52734375 39.46875 C13.46675781 38.70949219 13.40617187 37.95023438 13.34375 37.16796875 C11.03375 37.16796875 8.72375 37.16796875 6.34375 37.16796875 Z " fill="#060709" transform="translate(10.65625,-0.16796875)"/>
<path d="M0 0 C0.72302307 0.02265427 1.44604614 0.04530853 2.190979 0.06864929 C3.71066488 0.11839981 5.23018908 0.17332956 6.74951172 0.2331543 C9.08405615 0.3244507 11.4186895 0.3988767 13.75390625 0.47070312 C15.2318047 0.52115287 16.70967113 0.5725515 18.1875 0.625 C19.23898224 0.6594799 19.23898224 0.6594799 20.31170654 0.69465637 C25.2117936 0.89538735 25.2117936 0.89538735 26.328125 2.01171875 C26.40071446 4.19811328 26.41186283 6.38672264 26.390625 8.57421875 C26.38160156 9.77175781 26.37257812 10.96929687 26.36328125 12.203125 C26.35167969 13.12996094 26.34007812 14.05679687 26.328125 15.01171875 C23.688125 15.01171875 21.048125 15.01171875 18.328125 15.01171875 C19.203125 10.26171875 19.203125 10.26171875 20.328125 8.01171875 C21.318125 7.68171875 22.308125 7.35171875 23.328125 7.01171875 C23.328125 6.02171875 23.328125 5.03171875 23.328125 4.01171875 C22.338125 4.01171875 21.348125 4.01171875 20.328125 4.01171875 C20.080625 4.79546875 19.833125 5.57921875 19.578125 6.38671875 C18.17423401 9.33488983 17.32136763 9.91419645 14.328125 11.01171875 C13.6475 9.77421875 13.6475 9.77421875 12.953125 8.51171875 C12.416875 7.68671875 11.880625 6.86171875 11.328125 6.01171875 C10.668125 6.01171875 10.008125 6.01171875 9.328125 6.01171875 C9.01875 6.81609375 8.709375 7.62046875 8.390625 8.44921875 C7.328125 11.01171875 7.328125 11.01171875 6.328125 12.01171875 C3.890625 12.26171875 3.890625 12.26171875 1.328125 12.01171875 C0.668125 11.02171875 0.008125 10.03171875 -0.671875 9.01171875 C-1.661875 9.34171875 -2.651875 9.67171875 -3.671875 10.01171875 C-3.98125 10.67171875 -4.290625 11.33171875 -4.609375 12.01171875 C-5.671875 14.01171875 -5.671875 14.01171875 -7.796875 14.76171875 C-8.725 14.88546875 -8.725 14.88546875 -9.671875 15.01171875 C-9.671875 16.00171875 -9.671875 16.99171875 -9.671875 18.01171875 C-8.681875 18.01171875 -7.691875 18.01171875 -6.671875 18.01171875 C-6.218125 17.18671875 -5.764375 16.36171875 -5.296875 15.51171875 C-4.760625 14.68671875 -4.224375 13.86171875 -3.671875 13.01171875 C-1.171875 12.51171875 -1.171875 12.51171875 1.328125 13.01171875 C3.015625 14.51171875 3.015625 14.51171875 4.328125 16.01171875 C4.988125 16.01171875 5.648125 16.01171875 6.328125 16.01171875 C6.988125 14.36171875 7.648125 12.71171875 8.328125 11.01171875 C9.648125 11.01171875 10.968125 11.01171875 12.328125 11.01171875 C13.318125 13.98171875 14.308125 16.95171875 15.328125 20.01171875 C19.288125 20.34171875 23.248125 20.67171875 27.328125 21.01171875 C26.453125 32.88671875 26.453125 32.88671875 25.328125 34.01171875 C22.60088221 34.11271363 19.89949977 34.15142404 17.171875 34.14453125 C15.94567444 34.14596634 15.94567444 34.14596634 14.69470215 34.14743042 C12.96297122 34.1481122 11.23123776 34.14625804 9.49951172 34.14208984 C6.83946018 34.13674154 4.1795775 34.14203487 1.51953125 34.1484375 C-0.15885454 34.14777672 -1.83724023 34.14649555 -3.515625 34.14453125 C-4.31665649 34.14655548 -5.11768799 34.14857971 -5.94299316 34.15066528 C-11.55692421 34.12666954 -11.55692421 34.12666954 -12.671875 33.01171875 C-12.75978475 30.72020458 -12.77881538 28.42599351 -12.76953125 26.1328125 C-12.7681163 25.44615005 -12.76670135 24.75948761 -12.76524353 24.05201721 C-12.75962979 21.85104074 -12.74707507 19.65016466 -12.734375 17.44921875 C-12.72936176 15.96028792 -12.72479855 14.47135551 -12.72070312 12.98242188 C-12.70965593 9.325488 -12.69238213 5.66861317 -12.671875 2.01171875 C-8.40639191 -0.09782962 -4.65278386 -0.19513398 0 0 Z " fill="#D3DAE7" transform="translate(14.671875,0.98828125)"/>
<path d="M0 0 C4.52065428 -0.049377 9.04115217 -0.08570823 13.56201172 -0.10986328 C15.10045098 -0.11993118 16.63887107 -0.13358646 18.17724609 -0.15087891 C20.38644133 -0.17509317 22.59538395 -0.18647491 24.8046875 -0.1953125 C25.49432587 -0.20563507 26.18396423 -0.21595764 26.89450073 -0.22659302 C28.59800906 -0.22699478 30.30085943 -0.12191026 32 0 C34 2 34 2 34.1953125 5.0390625 C34.17210937 6.22242188 34.14890625 7.40578125 34.125 8.625 C34.10695312 9.81351563 34.08890625 11.00203125 34.0703125 12.2265625 C34.04710937 13.14179688 34.02390625 14.05703125 34 15 C35.98 14.67 37.96 14.34 40 14 C39.66355469 13.43667969 39.32710937 12.87335937 38.98046875 12.29296875 C37.84126318 9.62877086 37.92219323 8.15750717 38.3125 5.3125 C38.41175781 4.52488281 38.51101562 3.73726563 38.61328125 2.92578125 C39 1 39 1 40 0 C41.99609375 -0.16796875 41.99609375 -0.16796875 44.4375 -0.1875 C45.64212891 -0.20876953 45.64212891 -0.20876953 46.87109375 -0.23046875 C49 -0 49 -0 51 2 C51.1953125 4.27734375 51.1953125 4.27734375 51.125 6.9375 C51.10695312 7.81277344 51.08890625 8.68804687 51.0703125 9.58984375 C51.04710937 10.38519531 51.02390625 11.18054688 51 12 C51 12.99 51 13.98 51 15 C51.99 15.33 52.98 15.66 54 16 C55.65497356 19.30994713 55.10084335 22.99123 55.0625 26.625 C55.05798828 27.42679688 55.05347656 28.22859375 55.04882812 29.0546875 C55.03703168 31.03649006 55.01909605 33.01825433 55 35 C53.68 35.66 52.36 36.32 51 37 C51 37.99 51 38.98 51 40 C50.01 40 49.02 40 48 40 C48.3125 37.625 48.3125 37.625 49 35 C49.99 34.34 50.98 33.68 52 33 C52.36558117 29.64496524 52.36558117 29.64496524 52.1875 25.875 C52.16042969 24.59367187 52.13335937 23.31234375 52.10546875 21.9921875 C52.05326172 20.51105469 52.05326172 20.51105469 52 19 C49.44165472 18.96187896 47.24103083 18.93974229 44.75 19.5625 C44.1725 19.706875 43.595 19.85125 43 20 C42.67 19.67 42.34 19.34 42 19 C40.51361008 18.84344973 39.02050873 18.74933057 37.52734375 18.68359375 C36.62822266 18.64169922 35.72910156 18.59980469 34.80273438 18.55664062 C33.85720703 18.51732422 32.91167969 18.47800781 31.9375 18.4375 C30.5134082 18.37272461 30.5134082 18.37272461 29.06054688 18.30664062 C26.70718647 18.20020724 24.35371646 18.09818992 22 18 C22.33 18.66 22.66 19.32 23 20 C28.61 20.33 34.22 20.66 40 21 C40 25.62 40 30.24 40 35 C42.31 35 44.62 35 47 35 C46.67 37.31 46.34 39.62 46 42 C45.814375 41.360625 45.62875 40.72125 45.4375 40.0625 C44.05753944 37.57873787 44.05753944 37.57873787 40.375 37.25 C39.26125 37.1675 38.1475 37.085 37 37 C36.83312552 39.41645782 36.83312552 39.41645782 37 42 C38.95216435 43.95216435 40.53199953 44.84826645 43 46 C40.525 46.495 40.525 46.495 38 47 C38.33 47.33 38.66 47.66 39 48 C39.04063832 49.66617115 39.042721 51.33388095 39 53 C40.32 53.33 41.64 53.66 43 54 C40.03 54 37.06 54 34 54 C33.34 56.31 32.68 58.62 32 61 C31.34 61 30.68 61 30 61 C29.505 57.535 29.505 57.535 29 54 C25.7 54 22.4 54 19 54 C20.98 53.505 20.98 53.505 23 53 C22.95875 52.21625 22.9175 51.4325 22.875 50.625 C23 48 23 48 25 46 C24.67 45.01 24.34 44.02 24 43 C24.27571139 40.99124558 24.60235737 38.98821313 25 37 C21.535 37.495 21.535 37.495 18 38 C17.67 38.99 17.34 39.98 17 41 C16.34 41 15.68 41 15 41 C15 39.68 15 38.36 15 37 C12.69 37 10.38 37 8 37 C8.02320313 37.75925781 8.04640625 38.51851562 8.0703125 39.30078125 C8.09738281 40.79158203 8.09738281 40.79158203 8.125 42.3125 C8.14820313 43.29863281 8.17140625 44.28476562 8.1953125 45.30078125 C8 48 8 48 6 51 C8.64 51.33 11.28 51.66 14 52 C14 52.99 14 53.98 14 55 C13.01 55.66 12.02 56.32 11 57 C10.608125 56.525625 10.21625 56.05125 9.8125 55.5625 C7.59191626 53.64820367 5.86624291 53.38733012 3 53 C2.875 50.625 2.875 50.625 3 48 C3.66 47.34 4.32 46.68 5 46 C4.67 45.34 4.34 44.68 4 44 C4.165 43.030625 4.33 42.06125 4.5 41.0625 C5.24846895 37.97047565 5.24846895 37.97047565 4 35 C12.91 34.67 21.82 34.34 31 34 C31.33 31.03 31.66 28.06 32 25 C32.66 25 33.32 25 34 25 C34 28.63 34 32.26 34 36 C31.03 36.495 31.03 36.495 28 37 C28.02320313 37.60328125 28.04640625 38.2065625 28.0703125 38.828125 C28.08835938 39.62734375 28.10640625 40.4265625 28.125 41.25 C28.14820313 42.03890625 28.17140625 42.8278125 28.1953125 43.640625 C27.9828378 46.20731941 27.28654105 47.7916067 26 50 C30.12148343 51.82660197 30.12148343 51.82660197 34.375 51.125 C34.91125 50.75375 35.4475 50.3825 36 50 C35.34 49.01 34.68 48.02 34 47 C33.734375 44.84375 33.734375 44.84375 33.75 42.5 C33.74226563 41.33984375 33.74226563 41.33984375 33.734375 40.15625 C34 38 34 38 36 35 C36.45915507 32.03157342 36.45915507 32.03157342 36.625 28.8125 C36.810625 25.9353125 36.810625 25.9353125 37 23 C31.72 22.67 26.44 22.34 21 22 C19.68 18.7 18.36 15.4 17 12 C16.01 12.33 15.02 12.66 14 13 C12.78130071 15.50447516 12.78130071 15.50447516 12 18 C8.125 16.125 8.125 16.125 7 15 C4.58517587 14.49940084 4.58517587 14.49940084 2 15 C0.1375562 17.40858714 0.1375562 17.40858714 -1 20 C-2.32 19.67 -3.64 19.34 -5 19 C-4.67 17.68 -4.34 16.36 -4 15 C-3.401875 14.938125 -2.80375 14.87625 -2.1875 14.8125 C0.87143458 13.6763243 1.55041099 11.82669858 3 9 C6 10 6 10 7 12 C8.65 12 10.3 12 12 12 C12.99 10.02 13.98 8.04 15 6 C16.9375 6.8125 16.9375 6.8125 19 8 C19.33 8.99 19.66 9.98 20 11 C22.99324263 9.9024777 23.84610901 9.32317108 25.25 6.375 C25.4975 5.59125 25.745 4.8075 26 4 C27.32 4.33 28.64 4.66 30 5 C29.67 6.32 29.34 7.64 29 9 C28.01 9 27.02 9 26 9 C25.34 11.31 24.68 13.62 24 16 C26.64 16 29.28 16 32 16 C31.67 11.71 31.34 7.42 31 3 C20.77 2.67 10.54 2.34 0 2 C0 1.34 0 0.68 0 0 Z " fill="#04080A" transform="translate(9,0)"/>
<path d="M0 0 C0 0.66 0 1.32 0 2 C-1.32 2.33 -2.64 2.66 -4 3 C-4 13.23 -4 23.46 -4 34 C-0.7 34.33 2.6 34.66 6 35 C8.58675384 38.88013076 7.79830401 40.52949754 7 45 C7 45.99 7 46.98 7 48 C6.34 48 5.68 48 5 48 C5.33 49.65 5.66 51.3 6 53 C7.175625 53.185625 7.175625 53.185625 8.375 53.375 C11 54 11 54 13 56 C13.125 59.125 13.125 59.125 13 62 C11.68 62 10.36 62 9 62 C9 61.01 9 60.02 9 59 C8.34 59 7.68 59 7 59 C7 59.99 7 60.98 7 62 C4.69 62 2.38 62 0 62 C0 61.01 0 60.02 0 59 C-0.66 59 -1.32 59 -2 59 C-2 59.99 -2 60.98 -2 62 C-3.65 62 -5.3 62 -7 62 C-7.36681223 54.54148472 -7.36681223 54.54148472 -5.6875 52.0625 C-4 51 -4 51 -1 50 C-1.66 49.01 -2.32 48.02 -3 47 C-3.1953125 44.51953125 -3.1953125 44.51953125 -3.125 41.8125 C-3.10695312 40.91144531 -3.08890625 40.01039062 -3.0703125 39.08203125 C-3.04710937 38.39496094 -3.02390625 37.70789062 -3 37 C-4.32 36.67 -5.64 36.34 -7 36 C-7 24.45 -7 12.9 -7 1 C-4.53721199 -0.231394 -2.7204945 -0.07159196 0 0 Z " fill="#080809" transform="translate(7,0)"/>
<path d="M0 0 C5.94 0 11.88 0 18 0 C18 4.62 18 9.24 18 14 C20.31 14 22.62 14 25 14 C24.67 16.31 24.34 18.62 24 21 C23.7215625 20.0409375 23.7215625 20.0409375 23.4375 19.0625 C22.05753944 16.57873787 22.05753944 16.57873787 18.375 16.25 C16.704375 16.12625 16.704375 16.12625 15 16 C14.83312552 18.41645782 14.83312552 18.41645782 15 21 C16.95216435 22.95216435 18.53199953 23.84826645 21 25 C19.35 25.33 17.7 25.66 16 26 C16.33 26.33 16.66 26.66 17 27 C17.04063832 28.66617115 17.042721 30.33388095 17 32 C18.32 32.33 19.64 32.66 21 33 C18.03 33 15.06 33 12 33 C11.34 35.31 10.68 37.62 10 40 C9.34 40 8.68 40 8 40 C7.67 37.69 7.34 35.38 7 33 C3.7 33 0.4 33 -3 33 C-1.02 32.505 -1.02 32.505 1 32 C0.95875 31.21625 0.9175 30.4325 0.875 29.625 C1 27 1 27 3 25 C2.67 24.01 2.34 23.02 2 22 C2.27571139 19.99124558 2.60235737 17.98821313 3 16 C0.69 16.33 -1.62 16.66 -4 17 C-4.33 17.99 -4.66 18.98 -5 20 C-5.66 20 -6.32 20 -7 20 C-7 18.68 -7 17.36 -7 16 C-9.31 16 -11.62 16 -14 16 C-13.97679687 16.75925781 -13.95359375 17.51851562 -13.9296875 18.30078125 C-13.91164063 19.29464844 -13.89359375 20.28851563 -13.875 21.3125 C-13.85179687 22.29863281 -13.82859375 23.28476562 -13.8046875 24.30078125 C-14 27 -14 27 -16 30 C-13.36 30.33 -10.72 30.66 -8 31 C-8 31.99 -8 32.98 -8 34 C-8.99 34.66 -9.98 35.32 -11 36 C-11.391875 35.525625 -11.78375 35.05125 -12.1875 34.5625 C-14.40808374 32.64820367 -16.13375709 32.38733012 -19 32 C-19.125 29.625 -19.125 29.625 -19 27 C-18.34 26.34 -17.68 25.68 -17 25 C-17.33 24.34 -17.66 23.68 -18 23 C-17.835 22.030625 -17.67 21.06125 -17.5 20.0625 C-16.75153105 16.97047565 -16.75153105 16.97047565 -18 14 C-9.09 13.67 -0.18 13.34 9 13 C9.33 10.03 9.66 7.06 10 4 C10.66 4 11.32 4 12 4 C12 7.63 12 11.26 12 15 C10.02 15.33 8.04 15.66 6 16 C6.02320312 16.60328125 6.04640625 17.2065625 6.0703125 17.828125 C6.09738281 19.02695312 6.09738281 19.02695312 6.125 20.25 C6.14820312 21.03890625 6.17140625 21.8278125 6.1953125 22.640625 C5.9828378 25.20731941 5.28654105 26.7916067 4 29 C8.12148343 30.82660197 8.12148343 30.82660197 12.375 30.125 C12.91125 29.75375 13.4475 29.3825 14 29 C13.34 28.01 12.68 27.02 12 26 C11.734375 23.84375 11.734375 23.84375 11.75 21.5 C11.74484375 20.7265625 11.7396875 19.953125 11.734375 19.15625 C12 17 12 17 14 14 C14.45915507 11.03157342 14.45915507 11.03157342 14.625 7.8125 C14.810625 4.9353125 14.810625 4.9353125 15 2 C10.05 1.67 5.1 1.34 0 1 C0 0.67 0 0.34 0 0 Z " fill="#040405" transform="translate(31,21)"/>
<path d="M0 0 C3.63 0 7.26 0 11 0 C10.85966889 1.97956441 10.7125877 3.95865141 10.5625 5.9375 C10.48128906 7.03964844 10.40007813 8.14179688 10.31640625 9.27734375 C10 12 10 12 9 13 C6.26105915 13.08858646 3.5474673 13.11523479 0.80859375 13.09765625 C-0.01124496 13.0962413 -0.83108368 13.09482635 -1.67576599 13.09336853 C-4.30471382 13.08775289 -6.93357773 13.07519779 -9.5625 13.0625 C-11.34049357 13.05748701 -13.11848846 13.05292376 -14.89648438 13.04882812 C-19.26435545 13.03777839 -23.63216348 13.02050331 -28 13 C-28.33 12.01 -28.66 11.02 -29 10 C-28.34 10 -27.68 10 -27 10 C-27.0309375 8.7934375 -27.0309375 8.7934375 -27.0625 7.5625 C-27 5 -27 5 -26 4 C-24.14825294 3.84213692 -22.2909089 3.74892644 -20.43359375 3.68359375 C-19.30888672 3.64169922 -18.18417969 3.59980469 -17.02539062 3.55664062 C-15.24938477 3.49766602 -15.24938477 3.49766602 -13.4375 3.4375 C-12.24962891 3.39431641 -11.06175781 3.35113281 -9.83789062 3.30664062 C-6.89205216 3.20016454 -3.9461257 3.09815159 -1 3 C-0.67 2.01 -0.34 1.02 0 0 Z " fill="#A3A8B4" transform="translate(31,22)"/>
<path d="M0 0 C2.31 0 4.62 0 7 0 C7.125 5.75 7.125 5.75 6 8 C6.66 8.33 7.32 8.66 8 9 C7.34 9.66 6.68 10.32 6 11 C5.35232207 13.57061311 5.35232207 13.57061311 5 16 C5.969375 16.12375 6.93875 16.2475 7.9375 16.375 C9.4534375 16.684375 9.4534375 16.684375 11 17 C12.35439668 19.70879335 12.06501451 22.00933268 12 25 C11.01 25 10.02 25 9 25 C9 24.01 9 23.02 9 22 C8.34 22 7.68 22 7 22 C7 22.99 7 23.98 7 25 C4.69 25 2.38 25 0 25 C0 24.01 0 23.02 0 22 C-0.66 22 -1.32 22 -2 22 C-2 22.99 -2 23.98 -2 25 C-3.32 25 -4.64 25 -6 25 C-6.3227506 20.37390802 -5.84450614 17.71973879 -3 14 C-2.34 14 -1.68 14 -1 14 C-1.66 13.01 -2.32 12.02 -3 11 C-3.07905064 8.66800612 -3.08798769 6.33167378 -3 4 C-2.34 4 -1.68 4 -1 4 C-0.67 2.68 -0.34 1.36 0 0 Z " fill="#0D0B0B" transform="translate(27,37)"/>
<path d="M0 0 C3.24998112 -0.02909763 6.49992857 -0.04683161 9.75 -0.0625 C10.67039062 -0.07087891 11.59078125 -0.07925781 12.5390625 -0.08789062 C13.42851563 -0.09111328 14.31796875 -0.09433594 15.234375 -0.09765625 C16.05131836 -0.10289307 16.86826172 -0.10812988 17.70996094 -0.11352539 C20 0 20 0 22.23535156 0.56860352 C22.81768555 0.71096436 23.40001953 0.8533252 24 1 C24.33 0.67 24.66 0.34 25 0 C27.5 -0.125 27.5 -0.125 30 0 C31 1 31 1 31.09765625 4.16015625 C31.08605469 5.44792969 31.07445313 6.73570313 31.0625 8.0625 C31.05347656 9.35285156 31.04445313 10.64320312 31.03515625 11.97265625 C31.02355469 12.97167969 31.01195313 13.97070312 31 15 C30.01 15.33 29.02 15.66 28 16 C28 12.37 28 8.74 28 5 C27.34 5 26.68 5 26 5 C26 8.96 26 12.92 26 17 C23.36 17 20.72 17 18 17 C18 12.38 18 7.76 18 3 C12.39 3 6.78 3 1 3 C0.67 2.01 0.34 1.02 0 0 Z " fill="#44B1E0" transform="translate(31,18)"/>
<path d="M0 0 C0.66 0 1.32 0 2 0 C2.05441656 1.89551022 2.09298035 3.7914792 2.125 5.6875 C2.14820313 6.74324219 2.17140625 7.79898437 2.1953125 8.88671875 C1.99858729 12.02251859 1.33057654 14.17645373 0 17 C0.66 17 1.32 17 2 17 C2 17.99 2 18.98 2 20 C1.34 20 0.68 20 0 20 C0 22.97 0 25.94 0 29 C-1.32 28.67 -2.64 28.34 -4 28 C-4 27.01 -4 26.02 -4 25 C-4.66 25 -5.32 25 -6 25 C-6 26.32 -6 27.64 -6 29 C-6.99 29 -7.98 29 -9 29 C-9.66 27.02 -10.32 25.04 -11 23 C-10.34 22.67 -9.68 22.34 -9 22 C-9.515625 21.608125 -10.03125 21.21625 -10.5625 20.8125 C-11.036875 20.214375 -11.51125 19.61625 -12 19 C-11.6875 16.3125 -11.6875 16.3125 -11 14 C-8.66705225 13.95758277 -6.33297433 13.95907063 -4 14 C-3.67 14.33 -3.34 14.66 -3 15 C-0.73045369 11.59568053 -0.63450051 9.83475798 -0.375 5.8125 C-0.30023438 4.72582031 -0.22546875 3.63914062 -0.1484375 2.51953125 C-0.09945312 1.68808594 -0.05046875 0.85664063 0 0 Z " fill="#091217" transform="translate(57,23)"/>
<path d="M0 0 C3.63 0 7.26 0 11 0 C10.67 3.96 10.34 7.92 10 12 C9.67 12 9.34 12 9 12 C8.505 9.03 8.505 9.03 8 6 C7.67 6.33 7.34 6.66 7 7 C4.47905924 7.08847743 1.98569107 7.11527301 -0.53515625 7.09765625 C-1.66503212 7.09553383 -1.66503212 7.09553383 -2.81773376 7.09336853 C-5.2326956 7.08775376 -7.64756601 7.07519883 -10.0625 7.0625 C-11.69596221 7.0574869 -13.32942586 7.05292366 -14.96289062 7.04882812 C-18.97529585 7.03777954 -22.98763241 7.02050506 -27 7 C-26.67 6.01 -26.34 5.02 -26 4 C-13.625 3.505 -13.625 3.505 -1 3 C-0.67 2.01 -0.34 1.02 0 0 Z " fill="#767A82" transform="translate(31,22)"/>
<path d="M0 0 C1.45792884 -0.05399736 2.91642712 -0.09279177 4.375 -0.125 C5.18710937 -0.14820312 5.99921875 -0.17140625 6.8359375 -0.1953125 C9 0 9 0 11 2 C11.30078125 4.3125 11.30078125 4.3125 11.3125 7 C11.32925781 7.886875 11.34601562 8.77375 11.36328125 9.6875 C11.24339844 10.450625 11.12351562 11.21375 11 12 C10.01 12.66 9.02 13.32 8 14 C6.80767387 16.05003955 6.80767387 16.05003955 6 18 C5.01 17.67 4.02 17.34 3 17 C2.375 15 2.375 15 2 13 C1.67 12.67 1.34 12.34 1 12 C0.85884839 9.32941149 0.95752893 6.67567762 1 4 C0.34 4 -0.32 4 -1 4 C-0.67 2.68 -0.34 1.36 0 0 Z " fill="#1B1514" transform="translate(49,0)"/>
<path d="M0 0 C1.73056641 -0.02513672 1.73056641 -0.02513672 3.49609375 -0.05078125 C6.5625 0.3125 6.5625 0.3125 8.4609375 1.6328125 C10.11345296 4.15260557 9.75792183 6.38117258 9.5625 9.3125 C8.2425 9.3125 6.9225 9.3125 5.5625 9.3125 C5.5625 8.3225 5.5625 7.3325 5.5625 6.3125 C4.9025 6.3125 4.2425 6.3125 3.5625 6.3125 C3.5625 7.3025 3.5625 8.2925 3.5625 9.3125 C1.2525 9.3125 -1.0575 9.3125 -3.4375 9.3125 C-3.4375 8.3225 -3.4375 7.3325 -3.4375 6.3125 C-4.0975 6.3125 -4.7575 6.3125 -5.4375 6.3125 C-5.4375 7.3025 -5.4375 8.2925 -5.4375 9.3125 C-6.4275 9.3125 -7.4175 9.3125 -8.4375 9.3125 C-8.5625 5.9375 -8.5625 5.9375 -8.4375 2.3125 C-5.65940605 -0.46559395 -3.86994797 0.01294297 0 0 Z " fill="#6C78D6" transform="translate(49.4375,52.6875)"/>
<path d="M0 0 C1.73056641 -0.02513672 1.73056641 -0.02513672 3.49609375 -0.05078125 C6.5625 0.3125 6.5625 0.3125 8.4609375 1.6328125 C10.11345296 4.15260557 9.75792183 6.38117258 9.5625 9.3125 C8.2425 9.3125 6.9225 9.3125 5.5625 9.3125 C5.5625 8.3225 5.5625 7.3325 5.5625 6.3125 C4.9025 6.3125 4.2425 6.3125 3.5625 6.3125 C3.5625 7.3025 3.5625 8.2925 3.5625 9.3125 C1.2525 9.3125 -1.0575 9.3125 -3.4375 9.3125 C-3.4375 8.3225 -3.4375 7.3325 -3.4375 6.3125 C-4.0975 6.3125 -4.7575 6.3125 -5.4375 6.3125 C-5.4375 7.3025 -5.4375 8.2925 -5.4375 9.3125 C-6.4275 9.3125 -7.4175 9.3125 -8.4375 9.3125 C-8.5625 5.9375 -8.5625 5.9375 -8.4375 2.3125 C-5.65940605 -0.46559395 -3.86994797 0.01294297 0 0 Z " fill="#6C78D6" transform="translate(10.4375,52.6875)"/>
<path d="M0 0 C1.051875 -0.00773437 2.10375 -0.01546875 3.1875 -0.0234375 C6 0.375 6 0.375 7.86328125 1.69921875 C9.56672592 4.21048254 9.19657801 6.42632982 9 9.375 C8.01 9.375 7.02 9.375 6 9.375 C6 8.385 6 7.395 6 6.375 C5.34 6.375 4.68 6.375 4 6.375 C4 7.365 4 8.355 4 9.375 C1.69 9.375 -0.62 9.375 -3 9.375 C-3 8.385 -3 7.395 -3 6.375 C-3.66 6.375 -4.32 6.375 -5 6.375 C-5 7.365 -5 8.355 -5 9.375 C-6.32 9.375 -7.64 9.375 -9 9.375 C-9.36420526 3.91192115 -9.36420526 3.91192115 -7.86328125 1.69921875 C-5.21625613 -0.18200036 -3.21672125 -0.02365236 0 0 Z " fill="#41AAD8" transform="translate(30,52.625)"/>
<path d="M0 0 C4.39656173 -0.02465504 8.7930872 -0.04283842 13.18969727 -0.05493164 C14.68644918 -0.05997121 16.18319616 -0.06680287 17.67993164 -0.07543945 C19.82699807 -0.08752159 21.97399962 -0.09323191 24.12109375 -0.09765625 C26.06133423 -0.10551147 26.06133423 -0.10551147 28.04077148 -0.11352539 C31 0 31 0 32 1 C32.07258946 3.18639453 32.08373783 5.37500389 32.0625 7.5625 C32.05347656 8.76003906 32.04445312 9.95757812 32.03515625 11.19140625 C32.02355469 12.11824219 32.01195312 13.04507812 32 14 C29.36 14 26.72 14 24 14 C24.875 9.25 24.875 9.25 26 7 C26.99 6.67 27.98 6.34 29 6 C29 5.01 29 4.02 29 3 C26.26321275 1.63160637 23.95735576 1.78365182 20.8984375 1.68359375 C19.68671875 1.64169922 18.475 1.59980469 17.2265625 1.55664062 C15.95554687 1.51732422 14.68453125 1.47800781 13.375 1.4375 C11.456875 1.37272461 11.456875 1.37272461 9.5 1.30664062 C6.33344652 1.20030114 3.16681247 1.09827167 0 1 C0 0.67 0 0.34 0 0 Z " fill="#B1B7C3" transform="translate(9,2)"/>
<path d="M0 0 C5.94 0 11.88 0 18 0 C18 4.62 18 9.24 18 14 C20.31 14 22.62 14 25 14 C24.67 16.31 24.34 18.62 24 21 C23.814375 20.360625 23.62875 19.72125 23.4375 19.0625 C22.05753944 16.57873787 22.05753944 16.57873787 18.375 16.25 C17.26125 16.1675 16.1475 16.085 15 16 C14.67 16.66 14.34 17.32 14 18 C14 12.62632464 14.53443925 7.35394858 15 2 C10.05 1.67 5.1 1.34 0 1 C0 0.67 0 0.34 0 0 Z " fill="#060F13" transform="translate(31,21)"/>
<path d="M0 0 C0.66 0.99 1.32 1.98 2 3 C2.99 3.33 3.98 3.66 5 4 C6.65497356 7.30994713 6.10084335 10.99123 6.0625 14.625 C6.05798828 15.42679688 6.05347656 16.22859375 6.04882812 17.0546875 C6.03703168 19.03649006 6.01909605 21.01825433 6 23 C4.02 23.99 4.02 23.99 2 25 C2 25.99 2 26.98 2 28 C1.01 28 0.02 28 -1 28 C-0.6875 25.625 -0.6875 25.625 0 23 C0.99 22.34 1.98 21.68 3 21 C3.36558117 17.64496524 3.36558117 17.64496524 3.1875 13.875 C3.16042969 12.59367187 3.13335937 11.31234375 3.10546875 9.9921875 C3.07066406 9.00476562 3.03585938 8.01734375 3 7 C1.35 6.67 -0.3 6.34 -2 6 C-1.125 1.125 -1.125 1.125 0 0 Z " fill="#03080B" transform="translate(58,12)"/>
<path d="M0 0 C0.66 0.99 1.32 1.98 2 3 C1.34 3.66 0.68 4.32 0 5 C-0.70710678 6.64991582 -1.37943989 8.31562256 -2 10 C-5.875 8.125 -5.875 8.125 -7 7 C-9.41482413 6.49940084 -9.41482413 6.49940084 -12 7 C-13.8624438 9.40858714 -13.8624438 9.40858714 -15 12 C-16.32 11.67 -17.64 11.34 -19 11 C-18.67 9.68 -18.34 8.36 -18 7 C-17.401875 6.938125 -16.80375 6.87625 -16.1875 6.8125 C-13.12856542 5.6763243 -12.44958901 3.82669858 -11 1 C-8 2 -8 2 -7 4 C-5.35 4 -3.7 4 -2 4 C-1.34 2.68 -0.68 1.36 0 0 Z " fill="#221D16" transform="translate(23,8)"/>
<path d="M0 0 C2.31 0 4.62 0 7 0 C7.625 2.3125 7.625 2.3125 8 5 C7.01 6.485 7.01 6.485 6 8 C1.25 7.25 1.25 7.25 -1 5 C-0.625 2.375 -0.625 2.375 0 0 Z " fill="#30435F" transform="translate(7,37)"/>
<path d="M0 0 C2.31 0 4.62 0 7 0 C7.6875 2.3125 7.6875 2.3125 8 5 C6.8125 6.875 6.8125 6.875 5 8 C2.02602384 7.72963853 1.14553974 7.14553974 -1 5 C-0.625 2.375 -0.625 2.375 0 0 Z " fill="#314360" transform="translate(46,37)"/>
<path d="M0 0 C1.134375 0.020625 2.26875 0.04125 3.4375 0.0625 C3.5625 2.9375 3.5625 2.9375 3.4375 6.0625 C2.7775 6.7225 2.1175 7.3825 1.4375 8.0625 C-3.11805556 7.50694444 -3.11805556 7.50694444 -4.5625 6.0625 C-4.6875 3.5625 -4.6875 3.5625 -4.5625 1.0625 C-3.5625 0.0625 -3.5625 0.0625 0 0 Z " fill="#314462" transform="translate(30.5625,36.9375)"/>
<path d="M0 0 C0 0.66 0 1.32 0 2 C-1.65 2.66 -3.3 3.32 -5 4 C-5.33 13.57 -5.66 23.14 -6 33 C-6.33 33 -6.66 33 -7 33 C-7 22.44 -7 11.88 -7 1 C-4.53721199 -0.231394 -2.7204945 -0.07159196 0 0 Z " fill="#010102" transform="translate(7,0)"/>
<path d="M0 0 C2.31 0 4.62 0 7 0 C7.625 1.875 7.625 1.875 8 4 C6 6 6 6 3.4375 6.1875 C1 6 1 6 0 5 C-0.04063832 3.33382885 -0.042721 1.66611905 0 0 Z " fill="#EEB6AF" transform="translate(50,7)"/>
<path d="M0 0 C0.66 0.99 1.32 1.98 2 3 C1.34 3.66 0.68 4.32 0 5 C-0.70710678 6.64991582 -1.37943989 8.31562256 -2 10 C-2.53625 9.71125 -3.0725 9.4225 -3.625 9.125 C-6.35280484 7.83288192 -9.12612718 6.91441408 -12 6 C-11.01 5.67 -10.02 5.34 -9 5 C-8.67 4.34 -8.34 3.68 -8 3 C-7.67 3.33 -7.34 3.66 -7 4 C-5.33382885 4.04063832 -3.66611905 4.042721 -2 4 C-1.34 2.68 -0.68 1.36 0 0 Z " fill="#100D0A" transform="translate(23,8)"/>
<path d="M0 0 C1.32 0.33 2.64 0.66 4 1 C3.67 2.32 3.34 3.64 3 5 C2.01 5 1.02 5 0 5 C-0.66 7.31 -1.32 9.62 -2 12 C-2.99 11.67 -3.98 11.34 -5 11 C-3.55049545 7.2089881 -1.84827434 3.6125362 0 0 Z " fill="#26211A" transform="translate(35,4)"/>
<path d="M0 0 C0.33 0.99 0.66 1.98 1 3 C1.66 3 2.32 3 3 3 C3 3.99 3 4.98 3 6 C2.34 6 1.68 6 1 6 C1 8.97 1 11.94 1 15 C-0.32 14.67 -1.64 14.34 -3 14 C-2.5359375 13.0409375 -2.5359375 13.0409375 -2.0625 12.0625 C-0.68064597 8.07950896 -0.3463457 4.18349151 0 0 Z " fill="#2F425E" transform="translate(56,37)"/>
<path d="M0 0 C2.64 0.33 5.28 0.66 8 1 C7.34 3.31 6.68 5.62 6 8 C5.01 8 4.02 8 3 8 C3 6.35 3 4.7 3 3 C2.01 2.67 1.02 2.34 0 2 C0 1.34 0 0.68 0 0 Z " fill="#C89992" transform="translate(26,45)"/>
<path d="M0 0 C0 0.99 0 1.98 0 3 C-0.66 3 -1.32 3 -2 3 C-2 4.65 -2 6.3 -2 8 C-2.99 8 -3.98 8 -5 8 C-5.66 5.69 -6.32 3.38 -7 1 C-3.535 0.505 -3.535 0.505 0 0 Z " fill="#CA9B94" transform="translate(14,45)"/>
<path d="M0 0 C0 0.99 0 1.98 0 3 C-0.66 3 -1.32 3 -2 3 C-2 4.32 -2 5.64 -2 7 C-2.99 7 -3.98 7 -5 7 C-5.66 5.02 -6.32 3.04 -7 1 C-3.535 0.505 -3.535 0.505 0 0 Z " fill="#D3A19B" transform="translate(53,45)"/>
<path d="M0 0 C1.9375 0.75 1.9375 0.75 4 2 C4.75 4.125 4.75 4.125 5 6 C4.01 6 3.02 6 2 6 C0.3125 3.5 0.3125 3.5 -1 1 C-0.67 0.67 -0.34 0.34 0 0 Z " fill="#2C2822" transform="translate(24,6)"/>
<path d="M0 0 C1.98 0 3.96 0 6 0 C6.33 0.99 6.66 1.98 7 3 C4.36 3 1.72 3 -1 3 C-0.67 2.01 -0.34 1.02 0 0 Z " fill="#2B3C55" transform="translate(51,2)"/>
<path d="M0 0 C-0.33 1.98 -0.66 3.96 -1 6 C-1.309375 5.0409375 -1.309375 5.0409375 -1.625 4.0625 C-2.89538209 1.65074923 -2.89538209 1.65074923 -6.125 1.25 C-7.07375 1.1675 -8.0225 1.085 -9 1 C-9 0.67 -9 0.34 -9 0 C-5.62182575 -0.84454356 -3.32534757 -1.10844919 0 0 Z " fill="#050609" transform="translate(56,36)"/>
</svg>
